<mxfile host="app.diagrams.net" agent="Mozilla/5.0 (Windows NT 10.0; Win64; x64) AppleWebKit/537.36 (KHTML, like Gecko) Chrome/131.0.0.0 Safari/537.36" version="26.0.3">
  <diagram name="Page-1" id="loTP32G7AHd_blTVozKu">
    <mxGraphModel dx="4980" dy="2716" grid="1" gridSize="10" guides="1" tooltips="1" connect="1" arrows="1" fold="1" page="1" pageScale="1" pageWidth="3840" pageHeight="2160" background="#FFFFFF" math="0" shadow="0">
      <root>
        <mxCell id="0" />
        <mxCell id="1" parent="0" />
        <mxCell id="H2nf7LDv6Upw4ht9AUnb-1" value="" style="shape=image;verticalLabelPosition=bottom;labelBackgroundColor=default;verticalAlign=top;aspect=fixed;imageAspect=0;image=data:image/jpeg,/9j/4AAQSkZJRgABAQAEsASwAAD/4QAWRXhpZgAATU0AKgAAAAgAAAAAAAD/2wBDAAgGBgcGBQgHBwcJCQgKDBQNDAsLDBkSEw8UHRofHh0aHBwgJC4nICIsIxwcKDcpLDAxNDQ0Hyc5PTgyPC4zNDL/2wBDAQkJCQwLDBgNDRgyIRwhMjIyMjIyMjIyMjIyMjIyMjIyMjIyMjIyMjIyMjIyMjIyMjIyMjIyMjIyMjIyMjIyMjL/wAARCAZABkADASIAAhEBAxEB/8QAHwAAAQUBAQEBAQEAAAAAAAAAAAECAwQFBgcICQoL/8QAtRAAAgEDAwIEAwUFBAQAAAF9AQIDAAQRBRIhMUEGE1FhByJxFDKBkaEII0KxwRVS0fAkM2JyggkKFhcYGRolJicoKSo0NTY3ODk6Q0RFRkdISUpTVFVWV1hZWmNkZWZnaGlqc3R1dnd4eXqDhIWGh4iJipKTlJWWl5iZmqKjpKWmp6ipqrKztLW2t7i5usLDxMXGx8jJytLT1NXW19jZ2uHi4+Tl5ufo6erx8vP09fb3+Pn6/8QAHwEAAwEBAQEBAQEBAQAAAAAAAAECAwQFBgcICQoL/8QAtREAAgECBAQDBAcFBAQAAQJ3AAECAxEEBSExBhJBUQdhcRMiMoEIFEKRobHBCSMzUvAVYnLRChYkNOEl8RcYGRomJygpKjU2Nzg5OkNERUZHSElKU1RVVldYWVpjZGVmZ2hpanN0dXZ3eHl6goOEhYaHiImKkpOUlZaXmJmaoqOkpaanqKmqsrO0tba3uLm6wsPExcbHyMnK0tPU1dbX2Nna4uPk5ebn6Onq8vP09fb3+Pn6/9oADAMBAAIRAxEAPwD3+iiigAooooAKKKKACiiigAooooAKKKKACiiigAooooAKKKKACiiigAooooAKKKKACiiigAooooAKKKKACiiigAooooAKKKKACiiigAooooAKKKKACiiigAooooAKKKKACiiigAooooAKKKKACiiigAooooAKKKKACiiigAooooAKKKKACiiigAooooAKKKKACiiigAooooAKKKKACiiigAooooAKKKKACiiigAooooAKKKKACiiigAooooAKKKKACiiigAooooAKKKKACiiigAooooAKKKKACiiigAooooAKKKKACiiigAooooAKKKKACiiigAooooAKKKKACiiigAooooAKKKKACiiigAooooAKKKKACiiigAooooAKKKKACiiigAooooAKKKKACiiigAooooAKKKKACiiigAooooAKKKKACiiigAooooAKKKKACiiigAooooAKKKKACiiigAooooAKKKKACiiigAooooAKKKKACiiigAooooAKKKKACiiigAooooAKKKKACiiigAooooAKKKKACiiigAooooAKKKKACiiigAooooAKKKKACiiigAooooAKKKKACiiigAooooAKKKKACiiigAooooAKKKKACiiigAooooAKKKKACiiigAooooAKKKKACiiigAooooAKKKKACiiigAooooAKKKKACiiigAooooAKKKKACiiigAooooAKKKKACiiigAooooAKKKKACiiigAooooAKKKKACiiigAooooAKKKKACiiigAooooAKKKKACiiigAooooAKKKKACiiigAooooAKKKKACiiigAooooAKKKKACiiigAooooAKKKKACiiigAooooAKKKKACiiigAooooAKKKKACiiigAooooAKKKKACiiigAooooAKKKKACiiigAooooAKKKKACiiigAooooAKKKKACiiigAooooAKKKKACiiigAooooAKKKKACiiigAooooAKKKKACiiigAooooAKKKKACiiigAooooAKKKKACiiigAooooAKKKKACiiigAooooAKKKKACiiigAooooAKKKKACiiigAooooAKKKKACiiigAooooAKKKKACiiigAooooAKKKKACiiigAooooAKKKKACiiigAooooAKKKKACiiigAooooAKKKKACiiigAooooAKKKKACiiigAooooAKKKKACiiigAooooAKKKKACiiigAooooAKKKKACiiigAooooAKKKKACiiigAooooAKKKKACiiigAooooAKKKKACiiigAooooAKKKKACiiigAooooAKKKKACiiigAooooAKKKKACiiigAooooAKKKKACiiigAooooAKKKKACiiigAooooAKKKKACiiigAooooAKKKKACiiigAooooAKKKKACiiigAooooAKKKKACiiigAooooAKKKKACiiigAooooAKKKKACiiigAooooAKKKKACiiigAooooAKKKKACiiigAooooAKKKKACiiigAooooAKKKKACiiigAooooAKKKKACiiigAooooAKKKKACiiigAooooAKKKKACiiigAooooAKKKKACiiigAooooAKKKKACiiigAooooAKKKKACiiigAooooAKKKKACiiigAooooAKKKKACiiigAooooAKKKKACiiigAooooAKKKKACiiigAooooAKKKKACiiigAooooAKKKKACiiigAooooAKKKKACiiigAooooAKKKKACiiigAooooAKKKKACiiigAooooAKKKKACiiigAooooAKKKKACiiigAooooAKKKKACiiigAooooAKKKKACiiigAooooAKKKKACiiigAooooAKKKKACiiigAooooAKKKKACiiigAooooAKKKKACiiigAooooAKKKKACiiigAooooAKKKKACiiigAooooAKKKKACiiigAooooAKKKKACiiigAooooAKKKKACiiigAooooAKKKKACiiigAooooAKKKKACiiigAooooAKKKKACiiigAooooAKKKKACiiigAooooAKKKKACiiigAooooAKKKKACiiigAooooAKKKKACiiigAooooAKKKKACiiigAooooAKKKKACiiigAooooAKKKKACiiigAooooAKKKKACiiigAooooAKKKKACiiigAooooAKKKKACiiigAooooAKKKKACiiigAooooAKKKKACiiigAooooAKKKKACiiigAooooAKKKKACiiigAooooAKKKKACiiigAooooAKKKKACiiigAooooAKKKKACiiigAooooAKKKKACiiigAooooAKKKKACiiigAooooAKKKKACiiigAooooAKKKKACiiigAooooAKKKKACiiigAooooAKKKKACiiigAooooAKKKKACiiigAooooAKKKKACiiigAooooAKKKKACiiigAooooAKKKKACiiigAooooAKKKKACiiigAooooAKKKKACiiigAooooAKKKKACiiigAooooAKKKKACiiigAooooAKKKKACiiigAooooAKKKKACiiigAooooAKKKKACiiigAooooAKKKKACiiigAooooAKKKKACiiigAooooAKKKKACiiigAooooAKKKKACiiigAooooAKKKKACiiigAooooAKKKKACiiigAooooAKKKKACiiigAooooAKKKKACiiigAooooAKKKKACiiigAooooAKKKKACiiigAooooAKKKKACiiigAooooAKKKKACiiigAooooAKKKKACiiigAooooAKKKKACiiigAooooAKKKKACiiigAooooAKKKKACiiigAooooAKKKKACiiigAooooAKKKKACiiigAooooAKKKKACiiigAooooAKKKKACiiigAooooAKKKKACiiigAooooAKKKKACiiigAooooAKKKKACiiigAooooAKKKKACiiigAooooAKKKKACiiigAooooAKKKKACiiigAooooAKKKKACiiigAooooAKKKKACiiigAooooAKKKKACiiigAooooAKKKKACiiigAooooAKKKKACiiigAooooAKKKKACiiigAooooAKKKKACiiigAooooAKKKKACiiigAooooAKKKKACiiigAooooAKKKKACiiigAooooAKKKKACiiigAooooAKKKKACiiigAooooAKKKKACiiigAooooAKKKKACiiigAooooAKKKKACiiigAooooAKKKKACiiigAooooAKKKKACiiigAooooAKKKKACiiigAooooAKKKKACiiigAooooAKKKKACiiigAooooAKKKKACiiigAooooAKKKKACiiigAooooAKKKKACiiigAooooAKKKKACiiigAooooAKKKKACiiigAooooAKKKKACiiigAooooAKKKKACiiigAooooAKKKKACiiigAooooAKKKKACiiigAooooAKKKKACiiigAooooAKKKKACiiigAooooAKKKz9b1e20LSLjULo/JEuQueWbsB9aAMLxp43t/C1usUSLPqEoykRPCj+83+FeS3vxB8UX0hb+1ZYR/dt1CAflzXK+LfFE91d3GpXLb7qdsqCeFHYD2FcNLruoykk3DD2HFAHps+u63cHM2rX759bh/8AGq4vL8k5vrwn1M7/AONcDbNd3B3Pcyj6NWrDZBsFpZjn/boA62PV9WgIMep36Ef3bh/8avReMvFEBBj1++wOzuH/AJiuTitgnCyzD/tof8asKJFPE0me2TmgDs4vid4xgUAX9vMP+mluv8xWjb/GbX4OLrT7WTHVlU/0Neeh5x3Rx7jB/OnicAfOjqfVeRQB6pafGsyECXToCfRZSp/UVt2vxb0yQgXOn3UI9UYP/hXiBWGfI+RyOx6imiKWHmGZk/2W5FAH0hY+PPDl+VVNRSJz/DMCh/M8frXQxTRTxiSGRJEPRkYEfmK+U01CWPH2iHI/vRnP6VradrNxbMJdPvpYmH/PNyP0oA+maK8W0z4m67ZbVujFeRjj94uG/MV22k/EvRdQwl1vsZT/AM9OU/76H9RQB2dFRwTw3MQlglSWM9GRgQfxFSUAFFFFABRRRQAUUUUAFFFFABRRRQAUUUUAFFFFABRRRQAUUUUAFFFFABRRRQAUUUUAFFFFABRRRQAUUUUAFFFFABRRRQAUUUUAFFFFABRRRQAUUUUAFFFFABRRRQAUUUUAFFFFABRRRQAUUUUAFFFFABRRRQAUUUUAFFFFABRRRQAUUUUAFFFFABRRRQAUUUUAFFFFABRRRQAUUUUAFFFFABRRRQAUUUUAFFFFABRRRQAUUUUAFFFFABRRRQAUUUUAFFFFABRRRQAUUUUAFFFFABRRRQAUUUUAFFFFABRRRQAUUUUAFFFFABRRRQAUUUUAFFFFABRRRQAUUUUAFFFFABRRRQAUUUUAFFFFABRRRQAUUUUAFFFFABRRRQAUUUUAFFFFABRRRQAUUUUAFFFFABRRRQAUUUUAFFFFABRRRQAUUUUAFFFFABRRRQAUUUUAFFFFABRRRQAUUUUAFFY9/wCKtB0xtt3q1rG393zNx/IZrMk+JXhKPrqyn6RP/wDE0AdXRXHr8TvCkhxHqJc+ixtSt8SvDo/5a3B+kJoA6+iuVh+InhuU4N48f+/E39KdN8RfCNt/r9bgj/31Yf0oA6iiuKn+LXgiBc/25FJ7RoxP8qxb346+FoV/0SK9um9BGEH5k/0oA9OJABJOAOpNeCfE7xomsak1pbS/8S6zJG4HiR+5+nYVU8T/ABf1LxBbvZ2UQ0+0fh9r7nYehPYfSvJda1bzx9nib5f4iO9AFDU75r67aQn5Rwo9qhtoTK+ewqJFLsAK1bWIJgUAaFnCABmtaEAAcVRgXn045q6h9KALS8c8H3p+R1HWq/mAA5pDMoPUcUAWcggfpS5x34qibtQeowKZ9uU5+bHtQBoMiN94A+hxR+8QfI+cdn5/+vVBb1Ce3FTrcqSeeaALImIwJE2/7Q5FI1vG5VwcN2dDimrJkUm0bt65Vj3FAE6XV1bffAnjHfowq9b3cFyP3bjI6qeorNWUj/WDPoyj+YoeBJcSKcN2kQ4xQB1Gm6zqOkTCWwu5YT3Cn5T9R0NegaH8U1O2HWrfHbz4R/Nf8K8bg1CW3mW3usOG/wBXIOM+xrQFyvdSKAPpex1Gz1O3FxZXMc8R/iQ5x9fSrNfNum65daTci4sbqSCQddp4P1HevTfDvxStLspb6woglPAnT7h+o7UAei0U1HWRFdGDIwyrKcgj1p1ABRRRQAUUUUAFFFFABRRRQAUUUUAFFFFABRRRQAUUUUAFFFFABRRRQAUUUUAFFFFABRRRQAUUUUAFFFFABRRRQAUUUUAFFFFABRRRQAUUUUAFFFFABRRRQAUUUUAFFFFABRRRQAUUUUAFFFFABRRRQAUUUUAFFFFABRRRQAUUUUAFFFFABRRRQAUUUUAFFFFABRRRQAUUUUAFFFFABRRRQAUUUUAFFFFABRRRQAUUUUAFFFFABRRRQAUUUUAFFFFABRRRQAUUUUAFFFFABRRRQAUUUUAFFFFABRRRQAUUUUAFFFFABRRRQAUUUUAFFFFABRRRQAUUUUAFFFFABRRRQAUUUUAFFFFABRRRQAUUUUAFFFFABRRRQAUUUUAFFFFABRRRQAUUUUAFFFFABRRRQAUUUUAFFFFABRRRQAUUUUAFFFFABRRRQAUUUUAFFFZHiXX4PDujyXsuGf7sUefvt/hQBD4l8Vaf4ZtBJdMZJ3H7uBD8zf4D3rwfxZ8U77UpHjnu2jh7Wts2B/wI965Pxl4yutV1GdjMZJZD88np7D0FcUu+aTA5Y9zQOx0sniuZmIhgRcnvyasW2ranNy0EW0/3hiqWn6WyqGEbMx6nFaMoa0hLvDKQP7qE1PMtrmio1GrqLt6FwSRyqDcQhH/vIeR/WrMV3NaYMjedbn+MdV+tcs/iFBlTbyAfUVNaeIolcA8I3DIwqjNprc7dJEkQOjAqRwRVXUIIrq3aORQwI6Gs2Kf7IUeI7rOY8H+6f8KmnvQqnmgRw+o2j2M7BclO1VResO1beqyLLmuckXDGgCd76aRdu7A9qr9abTgaALEOBWjA/IrLjPzADk+ldJpmlFgJbngdloAfbiSQgIjMfatBLO4cfM6oPTGTVrfDbRgDaoHYVE93I3+qhZvduKAG/wBnEj57lz9MCqF3bRRg7Z5m/l+dNg1yWfUvs3kjaM5IPPHpWm19CyGOVWUHg7xigDlPK86UpHPKsn91jVadL22J3MxA6mrN7byW+pRsCNjt8hDZyK6QRR3EAWTliOo6igDj1v5QeTV6DVCMZNGp6SYGLIOvYd6xuVPpQB11tfhsc8VoxXAOO9cPDcMjda3LK93dWoA6QOOxpRgNlSVbv6GqMVxkA8DNWUbIyP0oATUxusWkAAaMhxjsa2ISJIEf+8oNZzJ59q8Xcgg07SrrNiiOPnj+RvYigDR2Kab5S9qVZEbvTu3FAHb+D/iE/h22Sw1FHnsAfkdTlogfbuPavX9O1Oy1ezS7sLmOeFujIensfQ180Pyhqzo2t6l4evRdabcNGSfnjPKOPQigD6ZorkvCPjzT/E8YgfFrqIHzQMeG91Pce3WutoAKKKKACiiigAooooAKKKKACiiigAooooAKKKKACiiigAooooAKKKKACiiigAooooAKKKKACiiigAooooAKKKKACiiigAooooAKKKKACiiigAooooAKKKKACiiigAooooAKKKKACiiigAooooAKKKKACiiigAooooAKKKKACiiigAooooAKKKKACiiigAooooAKKKKACiiigAooooAKKKKACiiigAooooAKKKKACiiigAooooAKKKKACiiigAooooAKKKKACiiigAooooAKKKKACiiigAooooAKKKKACiiigAooooAKKKKACiiigAooooAKKKKACiiigAooooAKKKKACiiigAooooAKKKKACiiigAooooAKKKKACiiigAooooAKKKKACiiigAooooAKKKKACiiigAooooAKKKKACiiigAooooAKKKKACvnz41eKmk1OSzhk/d248pR/tfxH+n4V79czC2tZpz0jRnP4DNfGXja+e91mRmJJJLEk9yc0McVdnOwQT312kECNLPK2FVeSSa9h8K/DW2sIFuNVxNcHnYPur7Unww8KLY6cNZu4x9puRmEEfcj7H6n+Vei4rkq1G3ZbH0GBwkYRVSavJ/h/wSnFp1nAoEVtEuOmFFNn0uyuFw9tH9QuD+Yq6aKwsepzvuedeK/AlvLBJcQL0Gdyj5l+vqP1ryS8spLO4aKQcjuOhFfT5AIweQa8d+I/h8WF8tzCmIJclcD7p7itac3F26HDjMLGrBzS95ficz4cuxJv0u4OYpQfLz2NS3TyQM0Umd8Z2k/yNYMbNBMkqHDowYH3rpdbRZ7W31CP7syAN9a607nzlSHKzCnlLmqD81PIc1XaqMyM1b03S77V7sWthbSTzHnag6D1PpUYWKSMc7HH5GvdPhLpEWm+EW1BkBnu5GbcR/COAP0J/GgDz2x8Ca1YnzrqxJcdFUg4q5JBdQna8TxAdS6kflXrtxfXJJ2orL6EVUa7R8iezBHtTsB5LIyR89Wx1PJqo9+AeTXq8+laDegiW1VCe+3H8qxrv4c6Pe5NtdSRMf7r5/Q0WA8gmaS2vjdQ9Q24fStA6/NNERHBlyOTnvXY3fwr1CLLWt6ko7BlI/lmufuvBGu2LFv7PEnqYjn9KQGTp1k0jPPcY3H7in+dPc3FjIZIHYgdYyc8e1NnN5ZPtuYJYW6YkUrTftm9dpPPY+lAGvBfQ39sVbnPBBrn9UszDKWHOeSfWmlzbSiaI4B4YVdecXlvgnnsTQBhVPBMY24NRypscimA4NAHSWlxkDJrVhlyPUCuWtJcHBNbtvLkAf1oA2IJQrYP3W6n0p7wtHK00GNzfeQ9GqnG4P07VZiuHQYI3KB0JwaAHi4Ct+8UxE/3un51OjvjIOQe/UVF58TfISBnjDjGaQ25jJMLGJj2HQ/hQBdWR8cjI9qAQapx3hjbbdIF/wCmidPx9KtkCQBlYH0YUAOR3jlWWJ2jkQ5V1OCDXrngf4krfGPS9cdUuvuxXJ4WT2b0Pv3ryD5gPm/MUh5oA+q6K8n+H3xCKmLRdbm44W3unP5Kx/ka9YoAKKKKACiiigAooooAKKKKACiiigAooooAKKKKACiiigAooooAKKKKACiiigAooooAKKKKACiiigAooooAKKKKACiiigAooooAKKKKACiiigAooooAKKKKACiiigAooooAKKKKACiiigAooooAKKKKACiiigAooooAKKKKACiiigAooooAKKKKACiiigAooooAKKKKACiiigAooooAKKKKACiiigAooooAKKKKACiiigAooooAKKKKACiiigAooooAKKKKACiiigAooooAKKKKACiiigAooooAKKKKACiiigAooooAKKKKACiiigAooooAKKKKACiiigAooooAKKKKACiiigAooooAKKKKACiiigAooooAKKKKACiiigAooooAKKKKACiiigAooooAKKKKACiiigAooooAKKKKACiiigAooooAoa5k6BqWOv2WX/0E18ezac+r+M7SwAJ8+ZEOOy55/TNfZtxCLi2lhbpIhQ/iMV8x+GtL2fE9GcEG2ilbnsQNv/s1TN2jc3w0eaqonqKRpDGscYCogCqB2ApadRXCfVDKMU6kpANxXM+PLFbvwxOxGWhIcV1GOayvEaB/Dt+D/wA8TSZcd7HznKm12Hoa6LTW+2+F7i3blrdty/Tr/jWNeoFuHA7Gtbwqw8+7t2PEkf8An+ddlNnzmLp2TObk4Yj3qA1avU8q7kT0NVDWx5w5Bk4HWvqTw1aDS/Cem2548u3XOfUivmfRLU32t2VqoyZZ0TH1YV9YMqxQKmBtRQPwpoDCub6XeSIEZfpVb7bCf9ZA6e4q1c3yq5AtlI9RxVb7XaP95HQ+4zTEJ/oUucSAH0YUh0+Nx+7Kn/dNPFva3HEciE+nQ1XubVLXkuyEjI560APNtcwfdldfrUM+qTWRT7RtkRvUVHo2svNO9vKdyjua52+uWub5oQfkEh2/SgDZ8SpZ3WnK0kaPDMCCrDofavCLpBb3s0KnKo5UH8a9h8RTG30u2hJ6Aua8YuHMlxJJ/fYmkxkmdykHvS2rlX2570yPqKVfluh7mkA6+i2OGHQ1TrWvIy1ru/u1k0ATwPhh71uWj5A5rnkODW3YtkAdqANqM8eme9WU5HJ+lU4/ujHPtUwlVM5YDigCyxyOx45BphYoP3Um09dpORVSTUIEzl/y5qlJrFsDjcfyoA11vV3eXMoVjxjPBpys9s2+25U8tGeh/wAK586rBICCw/GpLfUxGwBfMfr1IoA623uo7mMunGDhlPVTUpCsK57zyrrcwN8/cdmFacV0s0SyoTtPb0PpQBZYEV6z8OPHpn8rQtWlzKBttp2P3h/cJ9fSvIhOOhpRJtYMrYYHIIPINAH1fRXC/Drxr/wkFl/Z99IP7St1+8f+Wy+v19a7qgAooooAKKKKACiiigAooooAKKKKACiiigAooooAKKKKACiiigAooooAKKKKACiiigAooooAKKKKACiiigAooooAKKKKACiiigAooooAKKKKACiiigAooooAKKKKACiiigAooooAKKKKACiiigAooooAKKKKACiiigAooooAKKKKACiiigAooooAKKKKACiiigAooooAKKKKACiiigAooooAKKKKACiiigAooooAKKKKACiiigAooooAKKKKACiiigAooooAKKKKACiiigAooooAKKKKACiiigAooooAKKKKACiiigAooooAKKKKACiiigAooooAKKKKACiiigAooooAKKKKACiiigAooooAKKKKACiiigAooooAKKKKACiiigAooooAKKKKACiiigAooooAKKKKACiiigAooooAKKKKAI5547a3knmYJFGpdmPYDrXgGm3sV38RZb6NAiXZmCj0B+Yfyr0D4s+Il0vQV09H2yXWWk56Rj/E/wAq8J8L6+ZNRExOHgmDj3XP/wCsVMldNGtCfJUjLzPbqKEdZY1kQ5RhuU+xpa4T6q42jFOxSYoHcbisfxRIsfh+73HgritquB+JOsLBYpp8bfvJOWA7CkNO2p5LcnzJpH9WJq14fbZq4HYoQarOoCkmrehwsb1Zemc4+ldNPc8XGtKPqZmtDbqco96zTWlrZzqcv1rNNdB5B2/wr08XvjSzYjIhYyHj0HH6kV9D3skMMJeYqsajLFuleOfA+yLalf3ZHEcYQfUn/wCtXW/EXU3jaGxRiFYbm96aAtzeKtEEpTZKyg/fUcflWlDBZ6jaC5s5lljbocd/Q+leNXl0YYDtPzHgV2/w+uGs/tlqzgoYfOIByAR3piHanfLHMnkDa6tgjNS65fvJpVqCcOTnNYiMbnUix53OT+tW9ff9/BCP4E/nQBNow8uCa4bqFJzWZYKZr4E9zmtPP2fQJW7v8tVtBi3XO40DMrx3d+Wky5+5FtH1NeWEcA12vju78yWUA/flx+ArjEGUb2FSwHxDLClul2SoRx0NOgUY3MQFB6mnXWLh08nLY4PFAGlIofT3HfbmsGOKSaQRxqWY9AK6m1iLw+XjORggd6sqll4fgLuoe4YZANAGfYeGCEE17IEX0rRMujWI2gh2HpzWBe6tdahJtLnbnhB0FWrDShJh5Tk+nagDWj1PTpDiO0lb3C5q3ttZBlfMiPowxRb2qJGAFwPbpVlQBxQBRnsgF3Oiuh/5aRjkfhWZc6SjpvQhlPQiuhA2glOCeo7H61BLFtLTQJg/8tIexHqKAOJubBoiSKpfMh7iu2uLaOePzI+VbpXNX1mYySBQAadfsjCNjx2NbtneLFcAMf3c3Dex7GuQ5VvcVq21x5keCeo6+9AHYlSDSc03T5vtdhHITlh8rfUVYMdAEum6pcaXqEN3bSmOeFgyMP5GvpTwt4jt/E+iRX0OFk+7NHn7j9x9PSvmCWMlOnSul8AeL5PC2vIZmJsZyI519B/e+ooA+lKKbHIk0SSRsGR1DKw6EHoadQAUUUUAFFFFABRRRQAUUUUAFFFFABRRRQAUUUUAFFFFABRRRQAUUUUAFFFFABRRRQAUUUUAFFFFABRRRQAUUUUAFFFFABRRRQAUUUUAFFFFABRRRQAUUUUAFFFFABRRRQAUUUUAFFFFABRRRQAUUUUAFFFFABRRRQAUUUUAFFFFABRRRQAUUUUAFFFFABRRRQAUUUUAFFFFABRRRQAUUUUAFFFFABRRRQAUUUUAFFFFABRRRQAUUUUAFFFFABRRRQAUUUUAFFFFABRRRQAUUUUAFFFFABRRRQAUUUUAFFFFABRRRQAUUUUAFFFFABRRRQAUUUUAFFFFABRRRQAUUUUAFFFFABRRRQAUUUUAFFFFABRRRQAUUUUAFFFFABRRRQAUUUUAFFFFABRRRQAUUUUAFFFFABRRRQAUUVieL9VGjeFr+73BXEZSP/ebgfzz+FAHzp8X/Ep1PX7rypMx7vKjwf4F4/U5Nea6devYX0c69AcMPUd6s69eG81ORs5VTgVl0Ae/eEPE0UlvFZ3Eg2EfuZD0x6Gu1Ir5u8Nav5D/AGOdv3ZPyMT90+lenaT4svLFFhlxPGOAHPIHsa56lJ3vE9jB46KioVXa3U9CpK51fGlj5eXtbgN6KQawtV+JYhVo7Sz8l/782Wx+AGKwcWuh6cakJbSX3o6rX9dtdBsGnncGUj93Fnlj/hXiWqahcatfy3dw2Wc/kKff6u2qXTTTzSXMzexNMi0y5ujl0MMXv94/hTjCTexFfE0oRtzGekLXcwjT7o+8a3LK38lwQOFXNW7bTkhQJGoHfnqagv5RZWE0jcM2QK64R5UfP4iu6srnF6lL51/M/qxqtHGZHCihyWYt3JzWrpttApVpZ4wx7E1Zzntfwf082vhm4uCMGec4+igD+eaT4j6bLKYb6JSyqCrY7V1Hg6zFh4TsIgACY95x6k5/rWpeQechUwLNE4wy1QHzdqBd4mA6g5Feg+D7e5svBt7qV1GYzPGI4QwwSuev612A8MaElz50mn4cHOHXIqv4snEunR2VspbJBO1eABQI5LR4vMvAfQ1HqT+frEg7Btv5Vv6JpT21vJcyjAVS1c3bZuNRLHncxP60DNHWW8rS7eLuxyadow8mzmnPG1CareIXzewwg8Ig/Wp53+yeGp27uNtIR5d4nnM19GmegLH8TWPGu7co74FWNYlMmpykdsKKi2+SiL1dvmPt6UhjSpnuPKQ/IvFWYbYuk7BiBGcAg1Bp7BZXLdQM10Gh2xlt1BHMrZP4/wD1qALGm50zSDfXTFpG+4P5Vy95dy3lw0shJLGtzxXdKblbWI4jjGMVg2kXmzgUAaOl2WSGI+Y11un6Zc3HEEDMe3GKs+EPDT6rP8w2wJje2OvtXq9jZ2ljGsVtEmF4zinYDzR/CGuXCfI6wgjnClj+dYGo+FPEVmC63bvjkDGK9/iDkDmlntIrhCs0aup9uaLAfL/9qalYTGO5G7B5BGDWxY6xFd4IOHXqprvvG3gqJ4WuIFBXqCByK8gntZbO4O3KyJ+tIDqZdtvcqy/8e9x1/wBlqqahaBlbgZosJxqemyQE4dRuHsavwn7VYRyH7xGG+o60AcJdwmKQim2z7XxWxrNttJOKw0OHFAHZeG5svPCe4Dj+tb5WuS8PSFdSjH94FT+VdfQBEycVRmi2sRWniq9wmcGgD0n4Z/EZbRYdA1mTbFnbbXDH7v8Ast7ehr2gHIyOlfIMkZFetfDP4jlDFoOtzcfdtblz09EY/wAjQB7JRRRQAUUUUAFFFFABRRRQAUUUUAFFFFABRRRQAUUUUAFFFFABRRRQAUUUUAFFFFABRRRQAUUUUAFFFFABRRRQAUUUUAFFFFABRRRQAUUUUAFFFFABRRRQAUUUUAFFFFABRRRQAUUUUAFFFFABRRRQAUUUUAFFFFABRRRQAUUUUAFFFFABRRRQAUUUUAFFFFABRRRQAUUUUAFFFFABRRRQAUUUUAFFFFABRRRQAUUUUAFFFFABRRRQAUUUUAFFFFABRRRQAUUUUAFFFFABRRRQAUUUUAFFFFABRRRQAUUUUAFFFFABRRRQAUUUUAFFFFABRRRQAUUUUAFFFFABRRRQAUUUUAFFFFABRRRQAUUUUAFFFFABRRRQAUUUUAFFFFABRRRQAUUUUAFFFFABRRRQAUUUUAFFFFABXkXxx10WemWtgpPedxnr/Co/nXrtfNfx0vjNr91EG4j2R4/4CD/U0AeNSOZJGc9Sc0yg0UAWbRMtmuv0y+PlCKckjs3pXM2MWcZrorSHABIz9aAN1ZSAM/Op6Edf/r0G4tzw7gezjH86qxIwxtb8O1OaRlH7yNgPXGRQBI99Ywg5miX/AHSKrSam82VsbdpD/fYbVH+NN+12v/PSP9Kjm1iygXLTAn0XmgLlq3jaBWkml3yHlm6Aew9q5XxBqgu5vIibMad/U0an4glu1aKEFIz1Pc1jKjyNhVLE+goAbirFhbPeX0ECgnfIqn2yat22iXExUyDy1Pr1rfsbBbN0eJcFGDAnuRQB9F2sS2tpBCMbUjCflQ0VwrEwzKw7BuDWFpPi7SdTskW5nSGUgB45DjB9jWzHFBKu61uzjthtwqgJGnuU4lttw9Qc1A8lnLxLCAf9oYqbZexj5ZEkHp0NI1zIOJ7U/XGaBGL4iu4bfRp44iu+RdqKtchoGlTPcCR1wAe9ehuNOn4eMKT68VDc/ZdPsZZU2oiqTnPWgDy/UXE+vTY5AfaPwqfxPKLfRLeHoWO40zTLKa71AyFD8zE1U8eylblbVf8AlnFjA9TSGeZ8NO8785YmofmklLHvV17VsY28CiK0ZmAAJpAU5bZ0QyqDgdT2rpfDDPPMsrsdsaHapPArGuQZ5ks4TlV5c+9dHpEXkPsAwCmMUActq8pl1GZif4jVzQrRridEUZZ2CgfWs/UlK38o/wBo13vw508XGtWm4ZCEyHj0FAHqFhaR6NpsFhEAGC5kI7mtK2PIrJkn8y6kYn+Kr1tL0qhG/BjAqyQCtZ0MuFq4kmVoAqXduk8TwuAVcYrwbxlpX2LUX4xzivfpjzXlPxIt1+0u4HJGaBnnOiyfZtYRf4ZOPzreslMdzeW5PR96/jXOL8l7Aw6hu1dJITHrRJ6Sw5x9KkDM1qEGNuOa4/GJce9dzquDC2emK4lx/pBHvQBtaK23UID/ALWP0rsg/Fcdo4/0qM9CDn9K6gSUAW99Nc5WoBJTi520ANdMiqroQcjrVvI6Vzd5rj2+tGLj7OhCsP5mgD07w98UvEGkrHaz3CXVugCqJ1yQOw3dcV6Jp3xYspdq6hYyQk9XhO8fkcGvBXQMoZeQRkH1FXLC+KEQyH5f4T6UAfTen+KtD1MD7NqMBY/wO2xvyNbAORkdK+YRJWtp3iXV9KI+x6hPGAc7N25fyPFAH0RRXk2m/Fa/h2rqFnFcL3eM7G/wrr9N+IXh/UMK9y1rIf4Z1wM/UcUAdVRUcNxDcx+ZBNHKh/iRgw/MVJQAUUUUAFFFFABRRRQAUUUUAFFFFABRRRQAUUUUAFFFFABRRRQAUUUUAFFFFABRRRQAUUUUAFFFFABRRRQAUUUUAFFFFABRRRQAUUUUAFFFFABRRRQAUUUUAFFFFABRRRQAUUUUAFFFFABRRRQAUUUUAFFFFABRRRQAUUUUAFFFFABRRRQAUUUUAFFFFABRRRQAUUUUAFFFFABRRRQAUUUUAFFFFABRRRQAUUUUAFFFFABRRRQAUUUUAFFFFABRRRQAUUUUAFFFFABRRRQAUUUUAFFFFABRRRQAUUUUAFFFFABRRRQAUUUUAFFFFABRRRQAUUUUAFFFFABRRRQAUUUUAFFFFABRRRQAUUUUAFFFFABRRRQAUUUUAFFFFABRRRQAUUUUAFFFFABXzN8dbGW38XTMQRHcxJMhPc4wf1FfTNeUfHbQhe+GrXVUQGSzl2OQOdj/AOBA/OgD5aNKg3OBUlxH5UzLUlhCZrgDtQBs6bbfKCRXQwRBVGAPrUFla7IxntUN9rkNrmO3Hmyjvn5R/jQBrqAg5qCS+tYc+bcRr7FhXIXN/eXefNmbaf4QcCqRjx2oA66a702Ri8d0kch7qRz9RUL3EpXiK3uVHdQM1yjIBTFLxtujdkb2OKAOil1OCLIk05VPumP6VC2vqvEVsij0qjb61cRYWbEqe/WtmC7t7pQ6hDxzwMigAsNZFw+2aLbnjdjitsYxwciszcu3BHB7CrFnOSDGx+ZOhPcUAX1x9AauWtzNEcxzSIw6FWIqgrY7+9ShiBuHBHNAHRWvi3WbYhPtZfHQSDOa27b4h3MY/wBKtUYDqyNj+dcQpWVePxHcGs3XEv5rLyLZCxY8kEDigD1Sz+JfhrUJzA7lJO4aMkfmK2o5dC1VdsU8Lk9lcH9DXhNj4dWC0CyTOsrDLFDj9axZGu9C1yMGd3j3A/MTypp3A+lBY2OnRtMAFUDJZq8f1x/7V1u5uBzGWwp9u1WTd3LxeX9olaM/wliR+VVJ5YrdDJNIqDuTRcDMbTgRwBWRqEyW7C2thvuG44/hq9calc6hmDTomWM8NM39Ks6do0dn+8bLynq5pAUtN0k28e58eY3JNXRdWtvcJG0y+YTgKOetVtb1hbJDBCQZiO38NcgJZDMJNxL7s596ANTxBbmPUi2OHOa9H+G8Yj1aDPBaJgPyrjdYh+26ZDdr94AbuK6vw9cjTryxueioylvp0NAHXlilxIp4IY1et5elQavb+RfmRf8AVSjep9ajheqEdDbzVdjlGOtYUEpq/FLwO9AGg75rzH4jTBpyvB7V6K0wjiaRvuqM1474uvvtmoMAeAaAOSEZa8iAGcc1v3rYv7VhwTGc1mWMLSTNLtOOgP0q7qjYvLbPG2M1IyvqUn7hq48fNcH61u6pc4jI9axrNC8pNAG7pCASZ54WtgNg9TVDT0C+Y3pgVdNAEiye9P3/AC1XzzQWoAtB+Oa8/vH829nf1cn9a7ff8p+lcGTlifU0AdloU/2nS1UnLRnb+HarkseOlZPhXP2e5B6bhW665FAEtjdbiInPzdie9XyWXrWC6lTkcVo2d+HAim69AaAL4kp4kqF49vzKcioxJQBrWepXdhKJLS6mgcd43K11mm/E3W7PC3Pk3iDj94u1vzFcAslSK9AHtmmfE7RrzC3iS2Tnuw3J+Y/wrrbPULPUI/Ms7qGdcZzG4OK+avMwD3pg1Y2UoeK6eKUcgxMQR+IoA+oaK8E0j4tatYOqXE4vYQeROPm/76HP516/4Z8V6b4psvPspMSKP3kLH5k/xHvQBuUUUUAFFFFABRRRQAUUUUAFFFFABRRRQAUUUUAFFFFABRRRQAUUUUAFFFFABRRRQAUUUUAFFFFABRRRQAUUUUAFFFFABRRRQAUUUUAFFFFABRRRQAUUUUAFFFFABRRRQAUUUUAFFFFABRRRQAUUUUAFFFFABRRRQAUUUUAFFFFABRRRQAUUUUAFFFFABRRRQAUUUUAFFFFABRRRQAUUUUAFFFFABRRRQAUUUUAFFFFABRRRQAUUUUAFFFFABRRRQAUUUUAFFFFABRRRQAUUUUAFFFFABRRRQAUUUUAFFFFABRRRQAUUUUAFFFFABRRRQAUUUUAFFFFABRRRQAUUUUAFFFFABRRRQAUUUUAFFFFABRRRQAUUUUAFFFFABRRRQAVh+KYbTUtBvdLuH/4+YimB1HofwqbU9U8jdDCRvH3m/u1xFzrxmuWt7BPtE2fmcn5R/jTsBiWfwu8NW4DTWhuX/vSnNaa+CPD6LiPTIU91UVfhtLiT5ru5dz/dQ7QPyq5HBFH91R9aYHIap8O7G7t3S2kaIkfdJ4ry7XfAt3osp3I3l9j1B/GvoWobuzhvbdoJ4xIjDkEUrBc+XXsyuQQc1Wlh2jkV6V4y8JNo85miXfavyDj7vtXAXUZBOOvoaQ7GU6YqEip5XwSGGDUDEGgCMiiOR4XDIcUpppoEbVrf+YvJq4lxskSQdjz9K5mNzG+RWlFPuFAHWRyg7Wqyr5+lYun3G6EKTyvH4VqRtx0xQBZGQdyNhv51OsqN8v3WP8JNV0bAqTCuMMAfrQAxrNHy8c0kZHXDdPzrmdWuDeXgs41juJARiYLgrzXSS2yzIVyD7PyPzqOG1W0XMVnFnPJRsZ/MUAIlrdzRgPeOnHRFA/WhdGtd4eTdM396Rs1I9zcpnbZk45/1grPuL7VzkRWKp7ls0Aax8i1jydsaD14ArntW8SABobLr0Mn+FVJtN1e/fNw4x7twPwqaDw0q4aeUt7LwKAOfSOa6l+UM7nrW5YaN5WHk+Z/T0rahsYoEARAo9hVlYgMYHWgCCGJViMDD5HGCPQ1pKFVFRWyAKg2ggg01WKnaThl9e9AHoPh7UrfV9OXSrxwtxH/qXPcelTTWFxZSFZEOM8MOlcHHKciSNirA5BBwQa6aw8b31rGsN1CLqMcZ/iH+NO4GzESMVp28buMkbVHUmudk+IujxA77ZonHXdEaxtS+IkN4pS3diD0Cof5UxG34o16O3tjbwNz0z615dcF7qcopy7csfQVfmlu9RlLbWjB/jk649hU0FokC7VGe5J6k0hkUUAhgCqvtWPq9xnUSc8qgFbshXccnCpyee9cPqF35tzLID95uKQFe9nMjYzV/RrbdH5hHU9axiSxzXY2dv9l0ncQMhM/jQA60GIS3PzMTU9RwDZAi+wzTj70AKaTHNJn2pw6UAG3I9q5N7B1unjIPDHFdcKVAokEnloXHQkZxQBHpln/Z9ksZH7xzub29Ku5yKjJLkknJpQaAB1yKrsuOlWc5FNZc0AX9OuvNTy36ipLiMocisu0JS5GO9bMhDxZNAFIS46mnGdVjLs21B+tVJVw5djiNeT71m3N40z9cKOFWgC7cajJN8qfKnpVUNk5qKCKW5kKxIW9T2Faa6RLty8ig+gFAFPOe9a3h7X7zw5rEF/aOQUb507OvcGs+e0eAZPzD1qHqKAPrrStSt9Y0q21G1bdDcRh19vUfgeKuV5V8EdYNxo99pMj5NtIJIx/st1/UfrXqtABRRRQAUUUUAFFFFABRRRQAUUUUAFFFFABRRRQAUUUUAFFFFABRRRQAUUUUAFFFFABRRRQAUUUUAFFFFABRRRQAUUUUAFFFFABRRRQAUUUUAFFFFABRRRQAUUUUAFFFFABRRRQAUUUUAFFFFABRRRQAUUUUAFFFFABRRRQAUUUUAFFFFABRRRQAUUUUAFFFFABRRRQAUUUUAFFFFABRRRQAUUUUAFFFFABRRRQAUUUUAFFFFABRRRQAUUUUAFFFFABRRRQAUUUUAFFFFABRRRQAUUUUAFFFFABRRRQAUUUUAFFFFABRRRQAUUUUAFFFFABRRRQAUUUUAFFFFABRRRQAUUUUAFFFFABRRRQAUUUUAFFFFABRRRQAVS1O8+yW+FP7x+F9vertcB401z7HaTzK3zn93F/jQgOe13WJr+//ALKsWPJ/eyA/pWnaW9rolhukYIAMlj1JrG8K2Qjtnv7j7zfMWPYVXa4k8S6ztBIs4TgL2NUI24NQvNUfNqvkW/8Az0YZZvpWrDa7AC0ksjerOay77VYdKVLS3QSXLcBB2+tT2drdTqJbydyTzsQ4AoA1QOwJH1pwyODTUjVAAoIH1p9AFPU9Ph1KxltZ1BVwfwPrXz94i0mTTL+aBxho2x9RX0djtmvNfiZpKkQ6gq/eGx/6UmNM8WubcSpjo3Y1lMCjFW6iujki2yMp7HFZWp2+3EoHXg0hsoZopBTsUCGkcVNBIRxUZHFInDYoA2rCcrcKCeG4roIm56nHtXK2iSyyBYY2d+uFGa6eJXTAcFW9D2oAvI2V5/Sp16ADFVYznpVhc4wMigCUEDjGKMe1RvMkCF5XRV7ljWbLr1uDiGOWUg9VXigDVL4FMMi9xWI2uSlsixfHuwqP+2ypPm2sqfhmgDcZsj2pCQazI9Shm+44Y+lSrcKeQefagC6rc4604N+nrVUShiSDipPM96ALAJzTXTeuehHeo94wOv8AjSq/XoTQARyMj5Xhu6noaspcI5Cn5WPZv6VWYLIMH8x1FMYMBiRAynvj+YoA0Tj+L8aQIAThcVnpt/5ZzOo9FehoZHwGuZ8egbH8qALU1zDaoTLIFAHQ9TTbe880FzFtT+EHrj1qrFZ20LF9oLf335/nVLUdbhtlKQsHk9ugoANe1JbW3aGM/vJOvPQVxrZJ5qeeWS4lMkhJZjVm00m4ujnaUTuxFAFWzt2ubyKNVJywzj0rttTASzWIDG5gox6VBpulx20yKEPByT61NqbZu4I/TLkUAQ9OO1IT2ozSZoAXOaePwqJT81Sj8aAHD8acMfhTM/lTs0APFOFMpwY+tADqOtNz60hfFAEsCAzrVy7uoLWEmWQYA6dzWNdXJhhZkOGxgH61gXs7eWcsScdSaANVNXi1C6KyAiIH5VBwMeppcWt9fLFbo0aryxznIrm7aYRIcfePFaWkSmK5Y9Tt5NAHaWqxQRBIwFUVFf61ZacAJ5PmPRV5NZEurCGNmBzgZrM8PaJceK9bZ5mIt1bdM/oP7ooA7fQrU+K1JsgwiB2vI64A/wAa9D0bwRoWnopngF3N3eXkfgKh0xLbTbOO1tI1jhjGAo4rRGoxxkB5VXPTJxTA6PSoLDSrjz7GzggcjaxjULuHocV0MOrxt/rFx7ivL9a8RSadbobYq0rnjPIAqne+Jb6XQN5KxyScZTigD2iO6gl+5Ip9ulTV4h4c1C/NpJvu5WXdgbmJxXselS+fpNrJv3kxLlvU45oAuUUUUgCiiigAooooAKKKKACiiigAooooAKKKKACiiigAooooAKKKKACiiigAooooAKKKKACiiigAooooAKKKKACiiigAooooAKKKKACiiigAooooAKKKKACiiigAooooAKKKKACiiigAooooAKKKKACiiigAooooAKKKKACiiigAooooAKKKKACiiigAooooAKKKKACiiigAooooAKKKKACiiigAooooAKKKKACiiigAooooAKKKKACiiigAooooAKKKKACiiigAooooAKKKKACiiigAooooAKKKKACiiigAooooAKKKKACiiigAooooAKKKKACiiigAooooAKKKKACiiigAooooAKKKKACiiigAooooAgvJfJs5XHULxXiXjW6N5rltYKcquMj3Neyaw22w+rAV4bcP9q8dSZ5AlI/KmgN3xBc/2Z4bjt4+Hm+X8O9Jopj0fw4944+crkZ7k1l+NpS+p2dsDwqjj6mpvFMxt9Cs7deA/JH0piLHhi3a9uJdSueSxJBParsmsT6nqJs7BjHChw0g6mqYm/s7wduThnUKD9aXwjHs06S4AzIx4zQB08AtbFVWW4UOf78nJq+pBGQcg1xer6bIMyyZLNySateEr6UPJZSMSqjcme3tQB1grn/GVqLrw1dLjJQbx+FdAKo6ygfR7xT3hbr9KAPnS5TFwfcZqjfQeZayLjnbkfWti7jzMPbNVJEG059KQzj1qZUyM1Gow5HoatxpmkBAy0tlaTX2oQ2tuhaWVtqip3TAPrXbeENLGl6ZJrM6/wCkXAKWwPVV7t+NAF/7Jb6PZpp9oAWUfvpe7t/hVR0VxhhmrPltNIFHLMe57059PuonIuraaOLtIoyKoDNP7nkHI9CakWYlQ4jO31q9HpiOm2OaOcE/dlGDQ1gbfrFLDjunIpAVUFjO26aFHb1bmpZNH0y8XBDIexVqk+z+ZziKb/x00xrVV6GWE+jDI/OgDA1LwvcWyGS2bz4x2/iFc9vZG4ZlYe+K9KminsbNZZZVLvyF9q5XWbOK8VriFQsw5YDvQBz5mLHLAE+vQ/nU8V66fxFl/UVnlsEg8H+VAcg8UgN6G/5zmrqXasOCa5dZNvI6dx6VaiuWHegDoxcZPXipklyRjpWFFcds9auJcBQCWwKANZXzxj681IjdewzWStxcyjFtFn/abgU1rLU5QN12Ez2UYoA2Wjic5ZRu9RwaabdWGPMlX6NWE+kaoozHesT6b6qvd6zp5/eEuv8AtDOaAOgm0iKcYkuJz7b+KgHhuzHJMp+pqpY+Jo5XCXK+Wx43dq345UlAKFWB70AVodIs4CPLhTPqwyatCFQMAAAe1Pzk9selO4GO1ADY0USE8cCsi5fzNRmPZAEFbKkKrMMYrn42Lb5CPvsW60ASdqSkzxSZoAenJzUmeeaYnC/407PegB1Ln0plKDQBICaN2BTAR2oLUAO3Ux34prHtUbnjigCrfSYjH1rFnfdkda0dRfG0ZrHkbLUAEcIIyWxVlZRAuExnuarBsCo3egC0hku51gQFmkO0D3Ner6BaQ6NpsdtEBnq7f3j61wXhCzDTyXrjhPlT6967iORiDt7DNMDooblpHCryT0rL1NjPqwTOduFqx4fLySTSuxIVePaq9ov2nW89QZM/l/8AqoAl1w/6TDEOirVq6hSXTIIVcblxmpr21SW98w87RjHvQIsDOKYh2kRmJhGoYgc8nge9ey+H4jDoVop6lN35kn+teQ6RIJ5ptn3FIUH1Ne12qCOzhQdFjUfpSYyaiiikAUUUUAFFFFABRRRQAUUUUAFFFFABRRRQAUUUUAFFFFABRRRQAUUUUAFFFFABRRRQAUUUUAFFFFABRRRQAUUUUAFFFFABRRRQAUUUUAFFFFABRRRQAUUUUAFFFFABRRRQAUUUUAFFFFABRRRQAUUUUAFFFFABRRRQAUUUUAFFFFABRRRQAUUUUAFFFFABRRRQAUUUUAFFFFABRRRQAUUUUAFFFFABRRRQAUUUUAFFFFABRRRQAUUUUAFFFFABRRRQAUUUUAFFFFABRRRQAUUUUAFFFFABRRRQAUUUUAFFFFABRRRQAUUUUAFFFFABRRRQAUUUUAFFFFABRRRQAUUUUAFFFFABRRRQAUUUUAFFFFAGdrQzYj/fH8jXhMZ8vx1Ju/56t/Ove9UTfYP/ALODXg3iJDp/jXzTwrOGz9aaAf4zyniK2c9CqVN4xy+m6fKB8u0jNSeOLczWdnfpyAu0n9RTpYxrfgwGP5pYPmA/nTELfZuPBMbpzsIJq14JuVk05o+rI3Ss/wAI3cV5Yz6VcnqCuD6VRVL3wjrBZ42e1c9VHBHrQB6Fq08ElqAOTWb4dsiLma724XGxfepbTU9J1ONZA6MT/Dn+lbcAGwFUCRj7oxigCcVR1qQRaNeOegib+VXlrn/Gt2LXw1c8/NJ8goA8VmG6Qmqs42oxPYZq23JNZ2ry+Rp0p6FhtH40hnJxDc+cdTWlFH8tVbWLOMitVI8L7UgJ9F0ltY1iG0HCE7pG/uoOprt9RlWWcJENsEQ2RqOwFV/Dln/Znh6W+cYnvTsj45CDqfxNXLC2uJJllhhaRY2BbAzTQEul6Va6hGC12YZQeM9K6SKy1uwTMYju4fbnIp8A0e6ULcwNby/3gMVzeoa1Lp2pT29hdt5KHAcHrTEbMs2lXLldR0swSd3QbaRdEtpOdN1XbnpHNyK5X/hInhbdJLuyed3Oa63S5dD1fTYpnElpcEYJUcH3xQMpXOiX0Rzcaeky/wB+E81XgtoUDzM0qRRctHIOvtXTR6bfQLvsNSSaMc7S2K5bxTqklzItuWBKj5yvc0Ac5ql497ctIeF6KPQVltCXViDzVuQZNPijxikBxOqweTcCRRw/X61SDV0PiKAKGx2YGubHFICQGpEbmoRzTkBLgDvQBoQ7nPyitO3iUYJ+Y+9VbC1muZVht42kduAFHJ9673Svh5f3CK9zIsIP8I5NAHOo4Vcdqm89RgMwAz0rt2+GatEQL1934Vy+s/Di/sg0yM86j1Y07AUhdLnGaDNG6bXAb2rl7m3ntpSuXiYdRUcWpzxNiTn/AGhSA09U0KOVDLa4DjkoO/0rK0/VJ9OmCOSYweVPata01RXYFjVfWbJJ4zdQgZH3gKAOmtbpLiISIwO70q0GHPPP1rhtD1Bra4ELthGPftXYq+6I4OeKAJr0eTpkjg4+SsFBtjVemBVvUb9ZdNMYPcCqmaAFJpKTPPWheW+lAE4460Z7im5/KjNADs9aXJ61Hmlz60APz9aQmmbqQtQArN61GzUM3SombNAGZqMmZcegrNX5mqzeuWmb61WT7pPvQAjHGajAJNPk6VNp0Xn6hBH2LjP0oA7rSLcWmmwxd9uW+prft49unSzkffYIv9aylHIAroL1PI06ztxwSNx/GmBd0oeTpM8p4z/hUXh5N98ZD2Umppf3Hh0DoXH86l8Ox4imfHPCigC7q0V3peitrL2UslqHxuXH5/Ssq51NJdHW4hGDKMAHqDXQeOfFkZ0D+x41k2G2ZH+TC7sjGCev4VwrI0Wm2EB/ul8fU0Adh4Wtz9khUDmWQfzxXt4GAAOgry3wVZeZe2EeOIx5jfhz/OvUqGAUUUUgCiiigAooooAKKKKACiiigAooooAKKKKACiiigAooooAKKKKACiiigAooooAKKKKACiiigAooooAKKKKACiiigAooooAKKKKACiiigAooooAKKKKACiiigAooooAKKKKACiiigAooooAKKKKACiiigAooooAKKKKACiiigAooooAKKKKACiiigAooooAKKKKACiiigAooooAKKKKACiiigAooooAKKKKACiiigAooooAKKKKACiiigAooooAKKKKACiiigAooooAKKKKACiiigAooooAKKKKACiiigAooooAKKKKACiiigAooooAKKKKACiiigAooooAKKKKACiiigAooooAKKKKACiiigAooooAbIgkjZD0YEV458RtJcxx3ir88J2Px+Vey1z3iPS47uF965ilXa/sfWmgPNdHePxD4ZeykI8wLgezDpWJ4ev30LVpNPuxtRmx83TNKUufCGvMHB+zsevYj1rpdV0O08T2a3Vu6rc7chh/FTEYuteHLqyuxquj5Zc7ig7f/AFq1NM8UWV7CLbUYxHKOCko4NUdP1XVPDzC11O2keEcCUDPFb8WoaDqADuluzHn5lGaALlp/ZMT7rWGHeemxQTWohY/Mwx6LVS1ktFG2zhX/AIAuB+dXVBHzOefQUAO6Dnqa82+JGpiS4g0+M52De+PWu81XUYtL06W7mOAi8D1PpXi13NLqV7LeTE7pGzzQBnhOOa5rXZ/tF2ltHysfLY9a6HUbn7PEY4hunYcD096x7bTiv7yTlickn1pDK1ra7VBIxWlZ2T3t9b2kS5eVwg/E04xhe1dJ4Itl+2XmpuPks4jtJ/vNwP60gNPWGRblLSHiC2QRqB7VoaDaXUf+k2rRybuqE4NYTku7OxyWOTXV6HbSLbLLZXBAPJSVcjP1qhGpPeQT27wajZPC7KQH25xkda8c1GVraeVGP3SRn1r24XtxGmLuxLp3eI5H5Vj6h4Z8MeIJC0o8qVuDtbyyf6UAeP6Pb3Wr36Q20XnXEmdiE4AFey2Elpa6bb2Op6fteKMIXC4qPSvBEHh2c3OklS+MBpeTj0zWx/aF1GoS+sN6H+JORQMyNS/s7T7JryylckgqEJ4Brzy4cySM7HLMcmuo8WXkcl59mgUJEnO0etcq4oEQBcnNTRrSBfarEa/lSGcz4mACP9BXKEV0niifLqg6s2fwFc2eaTAQVf0uxm1C+jtoE3SOcAVRFeqfDLQxHaPqsqfPKdseeyigDr/C/hm10O0XCh7hgC8hHOa6qOqkS8VcjFUBOuKftDqQwyD1FMUVIBQI4Hxt4Mhu7Z7y0QK6jLACvGryyaJ2VlwR1r6kZQ6lWGVIwQa8Z8aaCtpqkoRflb5l+lIZ5hhoXyOlbFldeYnltgqwwc1Xu7XYxBFVbVikmPQ4pAR3sJtbs7eADkV1elXX2i1XjPHNYWqx+ZbxyjqODVjw9MdrpxxQAt6Wjllj7BsiriPvjVvUU/UdPMm64Rh05U1Ts2zAAf4TigCyelPQdTUWalHC0AOzSZ7U0mjNADs0mabmkLUAOLU0tTS3vTC1ADmaoXfAJoZqhlbKkUAZU5y5qNPuVNKvNRIODQAxhWn4ei3axGeoVSaziK1vDYxqw/3DQB29qu64jX1YVu6qd2oJGOiKBWNYcX0PpvH862CPtGtEesgFMC5rR8uyt4R14q/pNs/9jsIuJGyy/Uf/AKqytcfffRoP4Rmut0S322aD+6gpgcjLp2qa/fRJdxtHbxNnDLz75P4U/W7Xy9XtolXC7Qqj8a9CEPtWHrelmS9s7pRwj4b6f5FAHYeBrYKLmbHKhYx/P+grsawPCEHlaIHxzLIWz7dP6Vv1LAKKKKACiiigAooooAKKKKACiiigAooooAKKKKACiiigAooooAKKKKACiiigAooooAKKKKACiiigAooooAKKKKACiiigAooooAKKKKACiiigAooooAKKKKACiiigAooooAKKKKACiiigAooooAKKKKACiiigAooooAKKKKACiiigAooooAKKKKACiiigAooooAKKKKACiiigAooooAKKKKACiiigAooooAKKKKACiiigAooooAKKKKACiiigAooooAKKKKACiiigAooooAKKKKACiiigAooooAKKKKACiiigAooooAKKKKACiiigAooooAKKKKACiiigAooooAKKKKACiiigAooooAKKKKACiiigAooooAKbJGssbI4yrDBFOooA4vxF4bhvIWhuEyp/1cgHIrz8WGs+FLgmFGubPPQdq9ydFkQo6hlPUGsm50XOTAwIP8DU7gcHZeJ9OvkCT4R+6Sj/ABrQQaST5ixW+fXArRufDkUjEzacrHuQmf5VUew0zTvmeGCHv8wApiJo50cbYEyPYYFE88VpC09zIFRRkk9qwtV8a6TpUR2yCV8cBeBXm+teL7jW5fnfEQPyoDgUhmr4i1x9fvdoYx2UR+Rc/e96wp2+XbGMe5qoLsYxkcU17oEGi4EZtUDl2JJbqTUEjBaJbocjiqE1ycnmkATSr611nhG9ifwxq9kuBceYkv1TpXA3F0EByav+HLe/jvl1BWaJQMBT/GPQj0oA7AV2GgRx3FurQPJBMP7j9fwNYEEEOqRk2x8u4A+aI/0re0BJo4mjvY9sK8I7R5wfqOlUI6ASX0J+dYpx7/I1NllsZ+LuBoXP/PVP/ZhU8UcjJ/o9xvX0B3j8jzSiRh8ksAYHr5Zx/wCOmgCCPTyPnsLt09kbeP8AGiW6vbS3me68lkVD868H8qd9ls3f5D5Un4xt/hWV4rmmtNHELzvJ5rcF8ZA/rQBwV5M1xcPIxyWOapkc5qZ+TTCOMUDGquTUkreVbsehPSnxpj5m6Cud8S6r5URgiP72QYAH8K+tIDmdVuvteoSOpyi/Kv4VTxxThHjjvQV5xSAWJN7qo6scV9EaHZLZaTa26jASMDH4V4Dp6D7db5HHmL/OvpO2ixGnHYU0BPGnSrKCmItTKKYDgMU8UgFPFAgrjvG9mJTBLjkgrXZVznisAxWw77j/ACoGeO6xY7VYgdK5UptuiK9D1yNRE1cFKP8ATSPakBanUPp7exFQ6JmO7dMjrV2RdtiwI61W0hf9Pc/7X9KQGxqUnl2oUdWqkihIlTHQU++fzbtIxyF5NMJyc0AKOTipSaiXuSKUtQApaml6YW96jMmB1oAm300vUBkpu+gCcvTC9RF6YXoAkZvSo925se1MZ8UkTqHyxoAZJHmoPLIJrQKBuRzTfJHpQBR8vNXtIYQanC56E7T+NJ9mb+EZpUs5ywwAuO5NAHbwN5cyP/dINb+ir5upeZ2GWrlbOfzYV3EFwPmrf0K+EF2VkPDrgH0pgWrvNxrLAc8ha73SpoQxtc/vcbse3SuE04edqwfr85b8quWupSReJlnUZCts256jvTA9GC1HcWb3fkwR8F5AufrVG112CfUxYsuyQrlTnOfat7RbW4m13zWP+jwrux7kYH9TQI6i1to7O1jt4hhI1wKmooqRhRRRQAUUUUAFFFFABRRRQAUUUUAFFFFABRRRQAUUUUAFFFFABRRRQAUUUUAFFFFABRRRQAUUUUAFFFFABRRRQAUUUUAFFFFABRRRQAUUUUAFFFFABRRRQAUUUUAFFFFABRRRQAUUUUAFFFFABRRRQAUUUUAFFFFABRRRQAUUUUAFFFFABRRRQAUUUUAFFFFABRRRQAUUUUAFFFFABRRRQAUUUUAFFFFABRRRQAUUUUAFFFFABRRRQAUUUUAFFFFABRRRQAUUUUAFFFFABRRRQAUUUUAFFFFABRRRQAUUUUAFFFFABRRRQAUUUUAFFFFABRRRQAUUUUAFFFFABRRRQAUUUUAFFFFABRRRQAUUUUAFFFFABRRRQAUUUUAFUdV0iy1qya0voRJGeh6FT6g9jV6igDxHxR8M9QsVke1jOoWXX5F/eJ9V7/UV5hdaLcQO32fLgdUYYZfqK+vaytV8N6PrSn7fYQyv2kxtcf8AAhzQB8ivNJC22RWRh2IxTWuye9e/6z8IVkDPpd6GH/PG7XP4Bh/UV59rHgu70dj/AGho/lJ081U3If8AgQ4oA86e6AHLD86SO3vLwgQQOQf42GFrso7G1j+aO3iBPcKKsbBtxwBQBzlj4aSJxLdnzZOu3HArdESqAoHA9qmI600ccnoetADY7iWxb7Tb/wCsi+YH1x2r0/SdX0zWNLgvoGaESDDY5Ct3BrzHAIwRxWRouvXPhfVJowvm2ztiWBjgMPUehpoD3D7BHKd8JjkPqh2t+lI32qEYLkgfwzru/Wuf0u/tdWtxc6Vc+YO8ecSJ7EVpx6peQfJJ84HZxTEXRMrLiWBgvrGd6/kea5DxdcGe5W3RSI0UbOMCuqTUrOX/AF0Jib+8hqHUNMs9Qt3k+0oQB95+CKAPL9p3HIpVQD5nOBV27iWGV1DhlU4DetYd9qGwFIBub+8egpDE1XU0tYcAZY/dT1+tcZKrzzvNIdzsckmtWWNnkMkhyx7mq0yqgJJxikBmumwGoguTk1M5MjdMDsKAAqlm4AoAaJDbsrj7wIIr6X0iZLzSrS5QgrLErZHfivmBi0znsK9v+E2uLe6I+kyv+/sz+7z1ZD/hTQHoKpipAPWnBadimIQClAox6UtACYrk/FNwGu44gf8AVrk/U11FzOlrA8shwqivMtW1Lz55ZmPLHNAzn9dnBUjNcdDGZrlnxwTxWxq900r7VOWbgVHY2exQcDPvUgR3q+VZqDj5iKr6OgHnTN05NO1mbEoiU/dGMe9PI+yaasY+8+KAIkcu8kp7nApxOKQDYoX0FNY9B6mgCQH5RTWbFITgdKgkkx3oAV5MVC0nvULyZOAaI45Zm2xozH0AzQBIXppk960Lbw/eXDAPtiB/vcmu10PwLpu0S3e+4b0Jwv5CgDzyMSTSBIkeRz0VBkmtKPwz4hnt5J4tFvnij+8ywMcfpXstlp1nYoFtbaKIdPkUCvXtCsxY6NbQ4w2zc31PNAHxHcR3Fu+yeGSJv7silT+tVyxz1r7ovtH0zUlK32n21wDwfNiVj+ZFcfqnwa8Eanz/AGT9lb+9ayFP06UAfKdpPztbp3rTVAeRyK9l1H9nOzJZ9K1yaJv4UuIwwH4jBrnLv4JeMNPY/ZTZ30Y7pLtP5NQBwIQCpAMdq7O1+FHjSd9p0pIv9qSdQP512/h74HhJEm16/Dgcm3tuh9ix/oKAPNvCvhbVfE2prb6dGQoP72dh8kY9Sf6V7bF8I9CWyjjee7Nyo+adXAyfXbjFdrp2mWWkWaWmn20dvAnRIxj8/WrdAHmS/C65sJjJZajHMu0jbMhU/mM1hx+B9fsNREs1iZE3Ft0LB/5c17TRQB4KdG1hNdV5LC7iYyDaTEw4r2Tw9YSWWnAzljPL8zhuo9BWtRQAUUUUAFFFFABRRRQAUUUUAFFFFABRRRQAUUUUAFFFFABRRRQAUUUUAFFFFABRRRQAUUUUAFFFFABRRRQAUUUUAFFFFABRRRQAUUUUAFFFFABRRRQAUUUUAFFFFABRRRQAUUUUAFFFFABRRRQAUUUUAFFFFABRRRQAUUUUAFFFFABRRRQAUUUUAFFFFABRRRQAUUUUAFFFFABRRRQAUUUUAFFFFABRRRQAUUUUAFFFFABRRRQAUUUUAFFFFABRRRQAUUUUAFFFFABRRRQAUUUUAFFFFABRRRQAUUUUAFFFFABRRRQAUUUUAFFFFABRRRQAUUUUAFFFFABRRRQAUUUUAFFFFABRRRQAUUUUAFFFFABRRRQAUUUUAFFFFABRRRQAUUUUAFFFFABSMoZSrAEEYIPelooA5jV/AOgatuc2v2Wc/wDLW2Ow59x0P5VwmrfCzV7MM+nTxX0Y5Ct8kn+B/OvYqKAPme8srvT5/IvbWa2lH8MqFc/T1qv69s19M3Vna30Jhu7eKeM/wyIGH61xer/C3SLzdJp0slhL2Vfnj/I8j8DQB41jH/1qwdetD5i3SDrw/Fekav8AD3X9JDOLYXkI6yWx3Ee5XrXFXktuXaxnO15EYDI6HtQBylvdXFlMs1tK8Ug6MhxXYaX8QtUQCG8lWQdAziuLddrspBBBxTffvQB6oPFdzIm4Kgz3XH+FU7rV7m4B3Oce5rz6C9uLb/VyED0PIq4NcuMEMiNRcDduZTITvJOOcVnTKoJJ6dqz31edxgKozVGW4mmJ3SHHp0FAFu6uoo8gYZvQVlSyPM2W/ADtT9gJpWCQ8ycnsg6mgCIRhVLscKO5qnM5mb+7GOnvU0zNIwMmMdkB6VGR/EfwFADV4XpgVteFtUn0nVUurdykiMDn1HpWITgYogm8mXOcA8Z9KAPp/QPENprtqrxsEuAPnhJ5B9vWtjFfPOh6sZArxylJ07qcY967mx8b6rAgSQpPgcbxzTuB6bio57iK2jMkrhVHcmvP7jx3qbIRDbQhj2LY/pXMah4g1++ciW2Rgf8Apvx/Ki4HUeJPE32xzDA2IV/WuF1C/wCNoyS3AA6ml8rUrhsSGGAd9uWP9Klh0+OE7sl3PV2PNFwMy3sZGYyy/eb9B6VcldLO2eRj0HH1q7JshiZ3IVR3rlNRvZdXvBbW/wDqwevp70gI7KN9QvzK33Acn61PdSCW8CjG2MVomOLSdN2jG7H45rFVicserHJoAmJyajDAyE9hxTGkwOOvakQMxVEBZicADuaASuWIYJr24S3tomllc4VV6mt+2+Heq3I3XUsVuvXb9413Pg7wsmjactzOoa9mGWY/wD+6K6KSM0FcttzyxvBsOnHMkbTY/ibp+VPWCOIbURVHoBivRZoFdSCMg+tc/qGi7iXhwG/u+tKxqpKxh2se6YCuzsY9kCiuZ06Ai78txhweQa6+FcIKpGMtzQ0m1+2apbQdnkGfp3r1muA8E23mau8x6QxnH1PH+Nd/QxBRRRSAKKKKACiiigAooooAKKKKACiiigAooooAKKKKACiiigAooooAKKKKACiiigAooooAKKKKACiiigAooooAKKKKACiiigAooooAKKKKACiiigAooooAKKKKACiiigAooooAKKKKACiiigAooooAKKKKACiiigAooooAKKKKACiiigAooooAKKKKACiiigAooooAKKKKACiiigAooooAKKKKACiiigAooooAKKKKACiiigAooooAKKKKACiiigAooooAKKKKACiiigAooooAKKKKACiiigAooooAKKKKACiiigAooooAKKKKACiiigAooooAKKKKACiiigAooooAKKKKACiiigAooooAKKKKACiiigAooooAKKKKACiiigAooooAKKKKACiiigAooooAKKKKACiiigAooooAKKKKACiiigAooooAKKKKAGTTR28Ek0zhI41LOx6ADkmvkDxlrUeveLtR1K3jEcMspMYHHA4B+p61718YPEDWHhqTTbZsS3I/ekHonp+NfM79TQANK27JOSab9owckflTW5qJqAJxcR98g+lPWRGPDCqBFN5oA0gOMjrTsE8Zx9azA7r0YihpZH6sSKANCS4hhBAbc3qOcVSaYsTjjPfvUQFSKhLYFACKuaZI2Tj0qaRgg2r1qBloAiJ70w09hiozQBoaY7IdyNtYNkGurs9WXCi4+U9Nw+6f8K5Cw6n6iugt/mXGARQB0iSB1DKcqehB4qTjFYcdsvWF5IT/ALDcflUnkakPuX4I6fNHQBs9c+3eqd5qtrZKfMkBP90cms99M1C4z5upEKeoRSKfB4fs42V33Ttnq54/KgDKmnvtfl2wqY4BxuPStqx0+DSrcnuOWLdTV9jDbRZYBEHpxXL6tqxunMUJxGOM0AQ6jeG9ujz8gNVS2BUW4AYpBl/pQBIGyc/lXpfwx8Bz66k2vTYW0tG+RSP9Yw5OPpXnmnWE2o6lb2VspeaeQRoB6k4r7F8PaBb6B4ZtdGhACRRbHYfxMR8x/PNJq5UZOLujiGjHbtULp3rpb3w7dQZaHEyf7P3vyrDkhZCQwII7HtVDM50qtLGD1rSdMVWeP2oGYF/ZbsSx/LKnKt/Srun3P2q1D9GHDD0NWZI+tZVtutNWkiUfJKN2PehEyPUfA8G2wuZyPvyBR+A/+vXVVnaFZGw0W2gYYk27n+p5rRpEhRRRQAUUUUAFFFFABRRRQAUUUUAFFFFABRRRQAUUUUAFFFFABRRRQAUUUUAFFFFABRRRQAUUUUAFFFFABRRRQAUUUUAFFFFABRRRQAUUUUAFFFFABRRRQAUUUUAFFFFABRRRQAUUUUAFFFFABRRRQAUUUUAFFFFABRRRQAUUUUAFFFFABRRRQAUUUUAFFFFABRRRQAUUUUAFFFFABRRRQAUUUUAFFFFABRRRQAUUUUAFFFFABRRRQAUUUUAFFFFABRRRQAUUUUAFFFFABRRRQAUUUUAFFFFABRRRQAUUUUAFFFFABRRRQAUUUUAFFFFABRRRQAUUUUAFFFFABRRRQAUUUUAFFFFABRRRQAUUUUAFFFFABRRRQAUUUUAFFFFABRRRQAUUUUAFFFFABRRRQAUUUUAFFFFABRRRQAUUUUAFFFFABRRRQAVDdXMdnay3MxxHGpYmpq4P4h62IYV02Jucb5cH8h/WgDzTxnqD6zcXEsrcyHIGeg7CvL7i3KSEHg12OqXW5mGa5q4YO3PUGgDJaNh1FRlavsuM4PNRsD3UGgDPZKYVq8VTutNMaY70AUilLsqyVjX1phkUD5V/OgBixE9eBQzhBtXr601pC1CjJFACqmee9K0fFTRJUxjzxQBmPHVdhWs8GaqTWxAJA6UANseCx7ZFbts2CKwrMYZwR3FbUDrGm+QgLQBsQHjHaringA55rlpdacHEKYx3PNRf2zfNwHwPagDszIFGXIA9TVC81u1tgQpDt6LXKSXFzOfnlY/jSLAWbPJoAs3uqT3zYJIXsoqBLaZx02j3q9Ba7QCRUzDaDigCgLVU5Ylj+lDccDpUzmoDljgck9qAPWPgT4YGo+IJ9dnTMNgNsWRwZWHX8B/OvoquT+G/h0eGvBFhaMoFxKvnz/77c4/AYFdZQAVWutPtb1cTwqx/vdCPxqzRQByl/wCFZMl7SQOP7j8H865y5s5raQpNE8bDswr06mSRRzLtljV19GGRQO55NIgC5OBWp4V8KS3mrLq97GUtoh+5RhzIfXHp/Ou9XTLBH3rZwBvXyxxVugGwooooEFFFFABRRRQAUUUUAFFFFABRRRQAUUUUAFFFFABRRRQAUUUUAFFFFABRRRQAUUUUAFFFFABRRRQAUUUUAFFFFABRRRQAUUUUAFFFFABRRRQAUUUUAFFFFABRRRQAUUUUAFFFFABRRRQAUUUUAFFFFABRRRQAUUUUAFFFFABRRRQAUUUUAFFFFABRRRQAUUUUAFFFFABRRRQAUUUUAFFFFABRRRQAUUUUAFFFFABRRRQAUUUUAFFFFABRRRQAUUUUAFFFFABRRRQAUUUUAFFFFABRRRQAUUUUAFFFFABRRRQAUUUUAFFFFABRRRQAUUUUAFFFFABRRRQAUUUUAFFFFABRRRQAUUUUAFFFFABRRRQAUUUUAFFFFABRRRQAUUUUAFFFFABRRRQAUUUUAFFFFABRRRQAUUUUAFFFFABRRRQAUUUUAFFFFAFa/vI9PsZrqU/LGucep7CvB/EWqPd3M08rZeRixr0H4ha1t26dE3CfPJjuewrxzVLkszHNAGPfTFicGstzknmrM0hYmqxHPXk0ARE81G3XH8qkbkCo2BFADCN34Uxu9SHJ4HWoXIoAgeoj+lSNxmozQA3vUsYyaYBzzU8Qwc0AWYUFWxH7Zplug4/OrYXHSgCEQg9RSNagqQRVtVB6ipAtAHO/ZDFdsvIU85psrmdsf8sx0HrWpqcRUIyDljtNQx2mABigCgsPtT/JPAA5NaiWnPSpIrUG5bI4RR+Z/wAigDPjsycDHFXorRYwCRzVvYqDionNAEbkAVVkapnPvVZzQBC5ro/h7oR8ReONNsiuYlk86b/cXk/0H41zTHmvcP2ftFwNU1uReuLeIkfixH6UDR7gBgYHSiiigQUUUUAFFFFABRRRQAUUUUAFFFFABRRRQAUUUUAFFFFABRRRQAUUUUAFFFFABRRRQAUUUUAFFFFABRRRQAUUUUAFFFFABRRRQAUUUUAFFFFABRRRQAUUUUAFFFFABRRRQAUUUUAFFFFABRRRQAUUUUAFFFFABRRRQAUUUUAFFFFABRRRQAUUUUAFFFFABRRRQAUUUUAFFFFABRRRQAUUUUAFFFFABRRRQAUUUUAFFFFABRRRQAUUUUAFFFFABRRRQAUUUUAFFFFABRRRQAUUUUAFFFFABRRRQAUUUUAFFFFABRRRQAUUUUAFFFFABRRRQAUUUUAFFFFABRRRQAUUUUAFFFFABRRRQAUUUUAFFFFABRRRQAUUUUAFFFFABRRRQAUUUUAFFFFABRRRQAUUUUAFFFFABRRRQAUUUUAFFFFABRRRQAUUUUAFFFFABRRRQAUUUUAFVdRvY9O0+a6k6RrkD1PYVarz74hayAU0+NuEG+THr2FAHn3iDUpLm4lmkbLuxYk+tcTeSlnPrWtqdzuZua5+dt7YoArtnOf1qI5Jx3qR8nvUb5/OgCM96Y3TOOvepCCevWo36/higCPsKruc/SrJ9j7VWbH/AOqgCFuvNMp5B60z2oAVRk4qzEo4zzVdVzV2Acg4oAvwLhcirAGTTIx8o7VMooAcBz0pyjvSDuKeuPpQA14xIoDdjmhYlAxin8frRQAmMdAKrxH5529Xx+QAqcnHNVoP9SGx94k/rQA9iMYqBzT2NQOaAIpG61Xc1LIarsaAGYLNgDk19afDTRxovgLTbcqQ8iGZ8+rc/wAsV8w+GtPOp6/awbcguCR+PFfY9vCtvbRQJ92NAg+gGKm95Grjanfu/wAv+HJKKKKoyCiiigAooooAKKKKACiiigAooooAKKKKACiiigAooooAKKKKACiiigAooooAKKKKACiiigAooooAKKKKACiiigAooooAKKKKACiiigAooooAKKKKACiiigAooooAKKKKACiiigAooooAKKKKACiiigAooooAKKKKACiiigAooooAKKKKACiiigAooooAKKKKACiiigAooooAKKKKACiiigAooooAKKKKACiiigAooooAKKKKACiiigAooooAKKKKACiiigAooooAKKKKACiiigAooooAKKKKACiiigAooooAKKKKACiiigAooooAKKKKACiiigAooooAKKKKACiiigAooooAKKKKACiiigAooooAKKKKACiiigAooooAKKKKACiiigAooooAKKKKACiiigAooooAKKKKACiiigAooooAKKKKACiiigAooooAKKKKACiiigCtf3iafYTXUn3Y1Jx6nsK8I1/UnubiaaRsu7Fj+NeifELWBHHHp8bdP3kn9B/WvHdSuNzHmgDJu5ck1nt1PpViU5bqKrsDQBCfWo2B5Pepm7moWAxigCNiN3PpUZztx/OpeCDjt60xvU+lAEDjAHbvxVdz16gVPIc/1quwFAER/SmnrTjnNAAoAevUc8D2rQt15HHXrVKNeRmtO3U9uKALacYyKkBqNfrUgoAcODzThTQeKd74oAXvR07Uh70hbjmgCOd9kEjegP51Go2xqufugCmykPKsXYHc39P1pzNQAxmqvIakY1A5oAic1AakY9ajALMFHUnAoA9I+EWlm48SWcrLnM24f7qAn+Yr6Yrxj4R6cItZAx/x7WpP4kgf1Nez1lSd05HdjoezlGl2S+96hRRRWpwhRRRQAUUUUAFFFFABRRRQAUUUUAFFFFABRRRQAUUUUAFFFFABRRRQAUUUUAFFFFABRRRQAUUUUAFFFFABRRRQAUUUUAFFFFABRRRQAUUUUAFFFFABRRRQAUUUUAFFFFABRRRQAUUUUAFFFFABRRRQAUUUUAFFFFABRRRQAUUUUAFFFFABRRRQAUUUUAFFFFABRRRQAUUUUAFFFFABRRRQAUUUUAFFFFABRRRQAUUUUAFFFFABRRRQAUUUUAFFFFABRRRQAUUUUAFFFFABRRRQAUUUUAFFFFABRRRQAUUUUAFFFFABRRRQAUUUUAFFFFABRRRQAUUUUAFFFFABRRRQAUUUUAFFFFABRRRQAUUUUAFFFFABRRRQAUUUUAFFFFABRRRQAUUUUAFFFFABRRRQAUUUUAFFFFABRRRQAUUUUAFFFFABRRRQAUUUUAFFFFABUN1cR2lrLcSnCRqWNTVxHxB1xbOGDS1bElwDI30XGB+Of0oA888R6o95dzTyHLSMSa4q6lySa1tTuNzEZrClbJPegCuwFRNnoOKlbselRMB+NAETDGRjg1E2AOnB5qcjcRmoiD1PP1oAhPTgCozx359KlY5PpUUnUHoaAK75OSe9VzU8h71C344oAYeucU0fnTicmhcHigCxCMmtKEbVqjAuT3ArQj4HWgCYU8VGPSpAaAH0tMHpTXmSI/M3J6DqTQBL0FQyzCP5esh6KO9MzPNjA8pfflv/AK1KkUcRO0ZY9SepoAaimNSTy7csfekY09jUTmgCJzUDmpXNV2NAEbHmr+g2v2rVosj5Y/nP4VntXV+E7XZbS3JH3ztX6Cs6suWDO3L6PtcRFdFr9x7N8KYs3WozeiIv5kn+lenV538KVH2XU2774x+hr0SlR+BFZm74qXy/IKKKK1OAKKKKACiiigAooooAKKKKACiiigAooooAKKKKACiiigAooooAKKKKACiiigAooooAKKKKACiiigAooooAKKKKACiiigAooooAKKKKACiiigAooooAKKKKACiiigAooooAKKKKACiiigAooooAKKKKACiiigAooooAKKKKACiiigAooooAKKKKACiiigAooooAKKKKACiiigAooooAKKKKACiiigAooooAKKKKACiiigAooooAKKKKACiiigAooooAKKKKACiiigAooooAKKKKACiiigAooooAKKKKACiiigAooooAKKKKACiiigAooooAKKKKACiiigAooooAKKKKACiiigAooooAKKKKACiiigAooooAKKKKACiiigAooooAKKKKACiiigAooooAKKKKACiiigAooooAKKKKACiiigAooooAKKKKACiiigAooooAR3WNGdjhVGST2FeE+OL5tYvZrhZCjq+6Fv7uOB+GK9U8Z6mLDRWiVsSXHyj/AHe9eIancbmIzQBz8l95j7JwI5u6k8H6etQt3qa5jScbXUMPcVTkikiQ+VLwOz8jH160AK3QUxuR196jS6Zo1ZoWAYZBX5qPPifKh8kds/0oAa2AAR1xzxUTdlxUx7nPb0qJj780AR/w47j0NVpOpzxVl8ACqrtknNAED96hapm455IqJv0oAZx9KcnJximc1NGOeTQBcgXpVwcYqmssaYywLHsOTUokmf7kYQf3n/woAtA4ppuEzhMu3+zzUSw5I81mf26D8qsKoUAKAB6CgBgE0o+dhGv91ev51JHEkYJVRk9+pP407r70p69aADOB7U0mg9PpTSSRQAxjUTH0609j71CxoAjc1AxqRjULHmgBACzBV5JOK9EsLdbSwhhyBtUZ+tZngDwHqPjK+lktpI4ba1ILyygkbj0AAr1+w+D8Syo+o6tJKoOWjhj27vxJrCtCU7JHrZbiKOHUp1HqzR+FcDppN9cEfu5ZVCH1wOf5131QWdnb6fZxWlrEsUES7URegFT1rCPLFI4MTW9tVlU7hRRRVGAUUUUAFFFFABRRRQAUUUUAFFFFABRRRQAUUUUAFFFFABRRRQAUUUUAFFFFABRRRQAUUUUAFFFFABRRRQAUUUUAFFFFABRRRQAUUUUAFFFFABRRRQAUUUUAFFFFABRRRQAUUUUAFFFFABRRRQAUUUUAFFFFABRRRQAUUUUAFFFFABRRRQAUUUUAFFFFABRRRQAUUUUAFFFFABRRRQAUUUUAFFFFABRRRQAUUUUAFFFFABRRRQAUUUUAFFFFABRRRQAUUUUAFFFFABRRRQAUUUUAFFFFABRRRQAUUUUAFFFFABRRRQAUUUUAFFFFABRRRQAUUUUAFFFFABRRRQAUUUUAFFFFABRRRQAUUUUAFFFFABRRRQAUUUUAFFFFABRRRQAUUUUAFFFFABRRRQAUUUUAFFFFABRRRQAUUUUAFFFFABRRRQAUUUUAFFFFABRRWdrmoDTNHuLnOHC7U/3j0oA818d6v9r1SVUbMcI8tfTjr+tecXcm9yc1s6tcl3bJySa56VsmgCBqpXxJh8scNKdn4d/0q83SqLDzb1iOkK4/4Ef/AK2PzoAdtAGABjGKiliRwQ6KxHqKsYpjDnnrQBRNt2SR19Of8ajZJlzh1PPdcVcYDBznHSoWwAD+pNAFOR5lJBjX8Gqs7v8A88yT9atyd+tVn9aAIGdifuGoWL/3PzNTt71ESSaAI8OerAfQVZihBwGZmPp0qNV5FXIlwc8UATxosYAVQPpUwJzmolzTxnFAEgIPeng+tRjtkU8dKAJAe9Jn8KaD7UZoAU/WmMaCcU0kYxQAxjUT8Z5p7GoXNAEbGojycDk09jXYfC/wufFHjK2SRCbO0InuD2wDwv4mgD3z4ZeHP+Ea8E2cEi4ubgfaJ/XLcgfgMV2FGMDAooAKKKKACiiigAooooAKKKKACiiigAooooAKKKKACiiigAooooAKKKKACiiigAooooAKKKKACiiigAooooAKKKKACiiigAooooAKKKKACiiigAooooAKKKKACiiigAooooAKKKKACiiigAooooAKKKKACiiigAooooAKKKKACiiigAooooAKKKKACiiigAooooAKKKKACiiigAooooAKKKKACiiigAooooAKKKKACiiigAooooAKKKKACiiigAooooAKKKKACiiigAooooAKKKKACiiigAooooAKKKKACiiigAooooAKKKKACiiigAooooAKKKKACiiigAooooAKKKKACiiigAooooAKKKKACiiigAooooAKKKKACiiigAooooAKKKKACiiigAooooAKKKKACiiigAooooAKKKKACiiigAooooAKKKKACiiigAqvc39nZkC5u4ISegkkC5/OuZ8ZeObPw1ZOttLBPqOcLAWzt9S2OleFa14ivtb1CXUL5w0zjACjAUdgKAPqJWV0V0YMrDIIOQRS1598JPEB1Xw01hM+64sW2jJ5KHkflyK9BoAK8++ImqYeKxQ/cG9/qen6fzrvpZUgheWQ4RFLMfYV4X4k1Jr6+nuGPMjE/QUAc3eSl5D3qg/JzU8pLMTUJHPFAEEjBELHgAE1UtUPkB2+/Id549alvvmjWAf8tWC/h1P6VJgY4oAjx2qFxU7VCw4GO3BoAhIOT61BKfpViTjPtVOU9RQBXk5PTmq7frU7tx7VXY0ARMeajPJpzHHJ5pqktxQBLGvr+FW0GBUMSfSrIHJzQA4frTwOKaM9zTx7UAOHApwHoaaBmnA49KAFFIaXp9ab3oAQnimNwOtOPHWmMaAGMahY+tSMahY0AMIJOByT0Ar6k+FfhIeF/CUTTJi+vcTz+q5Hyr+A/nXivwo8K/8ACTeMIpJ03WNjiebPRiD8q/if5V9R0AFFFFABRRRQAUUUUAFFFFABRRRQAUUUUAFFFFABRRRQAUUUUAFFFFABRRRQAUUUUAFFFFABRRRQAUUUUAFFFFABRRRQAUUUUAFFFFABRRRQAUUUUAFFFFABRRRQAUUUUAFFFFABRRRQAUUUUAFFFFABRRRQAUUUUAFFFFABRRRQAUUUUAFFFFABRRRQAUUUUAFFFFABRRRQAUUUUAFFFFABRRRQAUUUUAFFFFABRRRQAUUUUAFFFFABRRRQAUUUUAFFFFABRRRQAUUUUAFFFFABRRRQAUUUUAFFFFABRRRQAUUUUAFFFFABRRRQAUUUUAFFFFABRRRQAUUUUAFFFFABRRRQAUUUUAFFFFABRRRQAUUUUAFFFFABRRRQAUUUUAFFFFABRRRQAUUUUAFFFFABRRRQAUUUUAFFFFABRRRQAUUUUAFFRyzwwY82WOPPTewGaYt7aOu5bmEj1DigCeioLm7itoTI7DHbnrXL6lrNzLlAfLjP97qf+A/40WA6O51O2tgcuGI7L/j0rEufE45ERUfQ5rlri5VjmR2c+rH+lZlzeAA7Sc+9OwHK+NrcJ4glmX7twolH49f1rkLg44/Guz8Rzx3dnASf3sRZfqp5/nmuJvDiYD2oA7n4RaqbHxtHbs2I7yJoj7kcr/L9a+hq+TPD1+dN8Rafeg48m4RyfbPNfQfjPxhDpOnCCwnV724X5ChzsX+99fSkBQ8Z+JhJJJpVm+UT/XuO5/u/415XqEu+Q81ob2S1LuxLuSxJ71jTPvc0AVjyaYR3qRjTGICkk8Dk0AUT+9vmP8MS7f8AgR5P6Y/Opj+dR2gJg8w/ekJc/j0qVgccUAQuOv61EcGp2H/6qibr/jQBXkyBjv35qjIcjP41clPbjFUZDyeaAK79eKgkI54qZzjrVZzQBGxBpyDJpnf2qaFRuBoAsIuFwamWo1GR7VIPbmgB45Ip3brTVpw9aAHjpnFLnjrTcinf5470AJg470duKM0hOKAGnjvUbHink1GxoAjY1E1SE810/wAOfDh8TeNLK1dM20LefOf9lecficCgD3j4VeGP+Eb8GQGVNt5e4uJvUZHyj8B/Ou4pAAAAAAB0ApaACiiigAooooAKKKKACiiigAooooAKKKKACiiigAooooAKKKKACiiigAooooAKKKKACiiigAooooAKKKKACiiigAooooAKKKKACiiigAooooAKKKKACiiigAooooAKKKKACiiigAooooAKKKKACiiigAooooAKKKKACiiigAooooAKKKKACiiigAooooAKKKKACiiigAooooAKKKKACiiigAooooAKKKKACiiigAooooAKKKKACiiigAooooAKKKKACiiigAooooAKKKKACiiigAooooAKKKKACiiigAooooAKKKKACiiigAooooAKKKKACiiigAooooAKKKKACiiigAooooAKKKKACiiigAooooAKKKKACiiigAooooAKKKKACiiigAooooAKKKKACiiigAooooAKKKKACiiigAooooAKKKKAMfxBptvf2iNPFv8AKbI9s8Zryq1vbnR/E8UEgD+XLgDaOR2Ne1SxiWJkPRhiuA1HQVuvENpd7cGLKyfh0NNAaeoam8ygWybnxzIei/SudlzI53uWJ6mty7tZ5mEEChYgOWPQ1m3FgIVOWLH8qYjLmkt4VJfGfSuf1S/SRCkEJQ/3s/0rVvYcE8Vg3SdaAMG53EksSSa5++P+lMPat6+uYLcEvIox6muRnv1vNTEVqPMdyAuDSGX7aNpmCrwO59K6O03GSOPcWJ4yTniqdlZ7AI15I+8fU1p2MQF27f3BikBevZcKFHYVlHk1ZuX3Ofaq5zQAwj2qnf8AzQeUOGlYR/gev6Zq7yBVOTMuoKvaJNx+p6fyP50APwAAMcYpre3NS4I61G/uKAIHwf8AComHBOeamb+VQSkBee3tQBSmbk9qpueTzVqbqTmqbnJ60AV3PFV3NTSHrVdjzxQALyatRKAPeq8Y5Herag8DtQBIBgCnDn0pqnnAp69ulADhzin9BTRTvxoAUcUZx9aDS/QUAJnPekpaaelADWqJjTzUbGgCNjX0L8DvD39n+GptZmjxNfviMkc+WvA/AnP5V4HpthLquq2mnwKWluJVjUD3OK+xdMsIdK0u1sIFAit4ljUAY6DFAFuiiigAooooAKKKKACiiigAooooAKKKKACiiigAooooAKKKKACiiigAooooAKKKKACiiigAooooAKKKKACiiigAooooAKKKKACiiigAooooAKKKKACiiigAooooAKKKKACiiigAooooAKKKKACiiigAooooAKKKKACiiigAooooAKKKKACiiigAooooAKKKKACiiigAooooAKKKKACiiigAooooAKKKKACiiigAooooAKKKKACiiigAooooAKKKKACiiigAooooAKKKKACiiigAooooAKKKKACiiigAooooAKKKKACiiigAooooAKKKKACiiigAooooAKKKKACiiigAooooAKKKKACiiigAooooAKKKKACiiigAooooAKKKKACiiigAooooAKKKKACiiigAooooAKKKKACiiigAooooAKKKKACiiigArC1WLy7reOA4z+NbtUdWiD2ZkP8Ayz+b8O9NAZMZ3Jis/UfLijZ5HCj1Jrn9X8ZizY22mWk99ddAkEZbn8K5STwt8RfGl0yXSDR7cjP79vmx9BQIm13xVplkzIsnmyf3V5rznWvF99cBhbxiJT3PWotTsH8K65d6Tfss09u+1nTkN3rJn83UZdkMBAPQAZJouMxbm6ubuQtNI7n3Ndb4d0xdNtvtM4H2iYfKP7i/4miw8PLaET3m0leViHOT71ffe7ktyTSA3dLKOCR2qeE7I5H7sSao6UdsLk+lXZTsiCigCBuSabtI6fjSg9x+VLjn2oAYR17GqVou7zZsZ8xyR9BwP5VYvZDDaSsPvYwv1PA/WkijEUSxgcKoAoAGHHNRN3Hepm4z6CoW6cgHFAEL4qpMeDxVx8YPp61QuDwe9AFOUk84qnIffkVZkNVJDQBBIah6mnyHnrTByeKAJogMirA4NRRL8tSjnpQA8Dmng47U0DinD8qAHjFOHTvTQfSnAigBRnmjtSdqWgBD9aa3fNL+VMJoAaxqJqkaomNAHpXwR0Mal4xfUpUzFp8RZcj+NuB+XJr6Orzf4KaN/ZvgcXjriW/lMv1QfKv9fzr0igAooooAKKKKACiiigAooooAKKKKACiiigAooooAKKKKACiiigAooooAKKKKACiiigAooooAKKKKACiiigAooooAKKKKACiiigAooooAKKKKACiiigAooooAKKKKACiiigAooooAKKKKACiiigAooooAKKKKACiiigAooooAKKKKACiiigAooooAKKKKACiiigAooooAKKKKACiiigAooooAKKKKACiiigAooooAKKKKACiiigAooooAKKKKACiiigAooooAKKKKACiiigAooooAKKKKACiiigAooooAKKKKACiiigAooooAKKKKACiiigAooooAKKKKACiiigAooooAKKKKACiiigAooooAKKKKACiiigAooooAKKKKACiiigAooooAKKKKACiiigAooooAKKKKACiiigAooooAKKKKACiiigAooooAKCMjB6UVHNPFbxNLNIsca8lmOAKAKmoXtnoemzXkiKkaDO2NQCx7Ae9fPfiTxD4m17W3vvttxZx4KRQW7ldq+hx1Ndn4x8ZQ6leGG2JkgiO1AOhPrXFu80xJOI1P93rQBzy6AHmaa9nZ3Y5PO5mPua1IbRIE2W8QiX9TVoIqdBz3p/0zk0AUjaZPzdaabMDkjAq+f1pjZAzQBBCvlnYPWpJGLNUUZzISaevzEUAPxwOtI3Jp3SkIxx6/jQBSuxumt4SQctvP0H/1yKlwSKijPmahM2ciMCMfXqf5ipzyOaAIm6GoTzjmp26e1RMADwaAK8nA44PSs6Y/Mfer8xwfYfpWZMeM4oAqynk1TkOCasynk1UlNAEDcmljGSPemHGQamiFAEyDFSA5YCmA56VIPSgBw5pwwTzSDGaeKAFGTTgOKaMYpwNAB07UZwKKQnPagBDTG604+9MNADG96IIXurmG3j+/K6ovHcnFIfyrq/hhpf8Aa3xD0uIgGOFzcOD6IM/zxQB9PaRYJpWj2dhGoC28KxgD2GKu0UUAFFFFABRRRQAUUUUAFFFFABRRRQAUUUUAFFFFABRRRQAUUUUAFFFFABRRRQAUUUUAFFFFABRRRQAUUUUAFFFFABRRRQAUUUUAFFFFABRRRQAUUUUAFFFFABRRRQAUUUUAFFFFABRRRQAUUUUAFFFFABRRRQAUUUUAFFFFABRRRQAUUUUAFFFFABRRRQAUUUUAFFFFABRRRQAUUUUAFFFFABRRRQAUUUUAFFFFABRRRQAUUUUAFFFFABRRRQAUUUUAFFFFABRRRQAUUUUAFFFFABRRRQAUUUUAFFFFABRRRQAUUUUAFFFFABRRRQAUUUUAFFFFABRRRQAUUUUAFFFFABRRRQAUUUUAFFFFABRRRQAUUUUAFFFFABRRRQAUUUUAFFFFABRRRQAUUUUAFFFFABRRRQAUUUUAFFFFABRRRQAUUUUAFIzKilmYKoGSScAUteZfFvxJdaXHZ6bb7lW5Vndh3wcYoA1PEPxGs9OLW+nKLm4HG8/cH+NeZ6rruqa7MXv7t2XtGpwo+grBtZ2kfczEk9TV8dOuaAE2hPugUuCtKeTmk7cUAB5Bxye9KMEcdKMetJx9KADIz3qC4fCfWp9oPBqldNztoAIsbfrViMcVXQdBVpenQUALnPfmmkAAkn3+lP6ntnoaq37FLKQKSGfCLjsW4/rQBHZDNsHPJkJk59z/AIYqZh3PXvmnKmxVQdAMCmNnPcUARsDz+lQH5hUzDNQyHA747UAUpz8x5rOlbIOBV6c9RWdKeDzQBVlJqlITVqU+9U3NADO9WI8Y6VXUHNWk4GaAHrn61J3BplSL70AOHXmnDFNFPFAC0uKaD+BpaAFJ6UhNGaQmgBCevNManE0wmgBjGvXvgFpvmatq2psoKxRLCp9Cxyf0FePtX0X8DNPFt4Ilu8ENd3TH6hcAf1oA9OooooAKKKKACiiigAooooAKKKKACiiigAooooAKKKKACiiigAooooAKKKKACiiigAooooAKKKKACiiigAooooAKKKKACiiigAooooAKKKKACiiigAooooAKKKKACiiigAooooAKKKKACiiigAooooAKKKKACiiigAooooAKKKKACiiigAooooAKKKKACiiigAooooAKKKKACiiigAooooAKKKKACiiigAooooAKKKKACiiigAooooAKKKKACiiigAooooAKKKKACiiigAooooAKKKKACiiigAooooAKKKKACiiigAooooAKKKKACiiigAooooAKKKKACiiigAooooAKKKKACiiigAooooAKKKKACiiigAooooAKKKKACiiigAooooAKKKKACiiigAooooAKKKKACiiigAooooAKKKKACiiigAooooAK88+MOj/b/CiX8aky2Mm44/uNwf1xXodVNUsI9U0u6sZQClxE0Zz2yOtAHy1ZycgVtxNuX+tYTwS2GoTWkoKyQyFGB9QcVrWzhkHPNAFnGcdKOg5NKeRgjFNP3senrQAdx3FJ64px6880n4UAICc57Vnytumq+52xE5PSs5OWLUAWIvvVZAqGEH0qfHHFABtBAHSql1811bRHkBi5/Af4kVbwT/L8aqKfM1KU9VjRUHsTyf6UATkmo2bOetSsBjp7ZqNjkkjj3oAgI6VBKQBU78f0qpO1AFCdjkmqErVbn71Rl6c0AVJT1qo55qxM3PWqx5PWgB8Y56VYHXFQRipwKAHinr19KaBjoaeP0oAcPQU4fpTRz604c80ALS56UYFH0oAO1JmjvTT3oAQmo2p5qMmgBjGvrb4f2B0zwFo1sygMLZXb6t839a+TraE3N7BABzLIqfmcV9n2kAtbOC3XpFGqD8BigCaiiigAooooAKKKKACiiigAooooAKKKKACiiigAooooAKKKKACiiigAooooAKKKKACiiigAooooAKKKKACiiigAooooAKKKKACiiigAooooAKKKKACiiigAooooAKKKKACiiigAooooAKKKKACiiigAooooAKKKKACiiigAooooAKKKKACiiigAooooAKKKKACiiigAooooAKKKKACiiigAooooAKKKKACiiigAooooAKKKKACiiigAooooAKKKKACiiigAooooAKKKKACiiigAooooAKKKKACiiigAooooAKKKKACiiigAooooAKKKKACiiigAooooAKKKKACiiigAooooAKKKKACiiigAooooAKKKKACiiigAooooAKKKKACiiigAooooAKKKKACiiigAooooAKKKKACiiigAooooAKKKKACiiigAooooA+fPixpP9l+NWukXEV8gmB/2ujfrz+Nc7ZyZAr2L4waP9v8ACa38a5lsZN5I/uNwf6V4jZSc9aAN7ORSY5psTblB/wAmn+hoAQ8mk+lLgnoaCAcUAQXT4ix61UjHAHrU143IWo4h8woAuRj5cVLjkUxeg7U9cuOmKAAg4PpVOxGY3l/56yFv6D9AKsXUghtZpcY2ISAPpTLePybWOP8AuqM0APJGCD1qFvbp71KxyRgcioWz+FAEbciqFy3XB61dk6dTWdcN1A4NAFGY5zVCU9quTEnvVCVjz2oAqStz04qHqakk60xcZoAmTpz+VSjjpUajipVBoAcOlPGOnWmD3FPB9qAHY5p2SO1JjI6UoOPSgBe1HajNBoAQmkNKeO1NPSgBpphNOPSo26UAb3gayGo+OtFtiMq10hb6A5P8q+u6+b/gfphvPHL3hAKWVuznP95vlH8zX0hQAUUUUAFFFFABRRRQAUUUUAFFFFABRRRQAUUUUAFFFFABRRRQAUUUUAFFFFABRRRQAUUUUAFFFFABRRRQAUUUUAFFFFABRRRQAUUUUAFFFFABRRRQAUUUUAFFFFABRRRQAUUUUAFFFFABRRRQAUUUUAFFFFABRRRQAUUUUAFFFFABRRRQAUUUUAFFFFABRRRQAUUUUAFFFFABRRRQAUUUUAFFFFABRRRQAUUUUAFFFFABRRRQAUUUUAFFFFABRRRQAUUUUAFFFFABRRRQAUUUUAFFFFABRRRQAUUUUAFFFFABRRRQAUUUUAFFFFABRRRQAUUUUAFFFFABRRRQAUUUUAFFFFABRRRQAUUUUAFFFFABRRRQAUUUUAFFFFABRRRQAUUUUAFFFFABRRRQAUUUUAFFFFABRRRQAUUUUAFFFFABRRRQAUUUUAFFFFAFXUrGPU9MurGYAxzxNGc+4618rS28un6lcWcwKywyNGwPqDivrOvn34taR/ZnjQ3iLiK+jEvH94cN/Q/jQBi2zZUdask46etZdnLkCtMA9RQADrR3yaOOh4pHbg4/WgChOcz/AEp8I+aoGOZGPvVqAcUAWRx7e1LgcevpSAgdad17mgCrf8wxxAj95Kq8emcn9BU655OB9Khm+a/gQDIRWf8Ap/U1OScnAAoAjJ65/Kom49ealducHmoHx0Pr+lAEMrY+uKzbhuvHNX5jweMGsyduv6UAUpT1OOaoTH3q7Me9Z8xoArSHJpE60jnmnx8EUATL2qQCmDOaeOtADx/nFPH0pg607p0xQA6nDj0po6cU4UAGaDRSGgAPSmmlzTT70ANNRk08mkSN5pUiQZd2CqPUnigD6A+A+kG18M3mqOo3Xk+1Djnan/1yfyr1isnwxpC6F4Y07TFGPs8Cq3+91b9Sa1qACiiigAooooAKKKKACiiigAooooAKKKKACiiigAooooAKKKKACiiigAooooAKKKKACiiigAooooAKKKKACiiigAooooAKKKKACiiigAooooAKKKKACiiigAooooAKKKKACiiigAooooAKKKKACiiigAooooAKKKKACiiigAooooAKKKKACiiigAooooAKKKKACiiigAooooAKKKKACiiigAooooAKKKKACiiigAooooAKKKKACiiigAooooAKKKKACiiigAooooAKKKKACiiigAooooAKKKKACiiigAooooAKKKKACiiigAooooAKKKKACiiigAooooAKKKKACiiigAooooAKKKKACiiigAooooAKKKKACiiigAooooAKKKKACiiigAooooAKKKKACiiigAooooAKKKKACiiigAooooAKKKKACiiigAooooAK89+MGjf2h4RF8i5lsJBJn/YPDf0r0Kq2oWUeo6bc2UwBjnjaNsj1GKAPlayk6c1tRMTzntWJNay6ZqdxZTAiSCVo2B9QcVrWr5WgCweeT1pkp2xsc1IcdcCq90dsHtQBRU81fiAC5qjGMkVoLgL74oAkT5uad1I5xTBjAHSnd/cUAVISW1K4YYIjVY/oeSf5irBODgdT3qvY/NHK5ABeVm/p/Sp2K7Wx1oAjPoeaiYeg9qkbjvg1ExxzQBVuDisyds5HStCchSRWbO3JNAFKYj/9VUJTVyU8ms+Q5oAhPXipox/+qoT1qaPp3oAlHqDTximAZp4+vFADx604frTAM09c5xQA4c0vam96XPNADu3vSGj8qQ0AIaafSlppNADTXV/DLR/7b8f6bCyhooX+0SA9MJz/ADxXJn617X8AdJ/5C2ruvPy28ZI/4EcfpQB7dRRRQAUUUUAFFFFABRRRQAUUUUAFFFFABRRRQAUUUUAFFFFABRRRQAUUUUAFFFFABRRRQAUUUUAFFFFABRRRQAUUUUAFFFFABRRRQAUUUUAFFFFABRRRQAUUUUAFFFFABRRRQAUUUUAFFFFABRRRQAUUUUAFFFFABRRRQAUUUUAFFFFABRRRQAUUUUAFFFFABRRRQAUUUUAFFFFABRRRQAUUUUAFFFFABRRRQAUUUUAFFFFABRRRQAUUUUAFFFFABRRRQAUUUUAFFFFABRRRQAUUUUAFFFFABRRRQAUUUUAFFFFABRRRQAUUUUAFFFFABRRRQAUUUUAFFFFABRRRQAUUUUAFFFFABRRRQAUUUUAFFFFABRRRQAUUUUAFFFFABRRRQAUUUUAFFFFABRRRQAUUUUAFFFFABRRRQAUUUUAFFFFABRRRQAUUUUAFFFFABRRRQB8/fFzSP7N8ZfbEXEV9GJOP744b+h/GuZspMqOa9l+MGj/2h4RF8i5lsZRJn/YPDf0rw+ylww5oA3AMmq18QIwBVmNsp+FUr88rQBFDyavjsKpWwyciri9O9AEg6YA/+tSSOEhZ2xhQT+lKD6fnVbUmP2GVc4MmE/M4/rQA6zR1tIAeCFGfyqRmwenNOVSqqPSmMe4zz0oAjJOcEj8qibgHNSMe/aoGyAaAKdwc5/lWZP3OcVfuMZOfWs2Y4BxQBTmNUpScmrcx4qi/WgBgOTVhOF5quoz1qyvTigBwBxingY//AFU0evanjnpk0AOXp/ninD6U3pTs/jQAtLSZx0paACkpetJQAhPpTDTiQaYaAGnrX1L8KdK/sr4eacrAiS4BuHBHdjx+mK+YbK2a91C3tVyWmlWMY9zivsyztls7G3tU+5DGsa/QDFAE9FFFABRRRQAUUUUAFFFFABRRRQAUUUUAFFFFABRRRQAUUUUAFFFFABRRRQAUUUUAFFFFABRRRQAUUUUAFFFFABRRRQAUUUUAFFFFABRRRQAUUUUAFFFFABRRRQAUUUUAFFFFABRRRQAUUUUAFFFFABRRRQAUUUUAFFFFABRRRQAUUUUAFFFFABRRRQAUUUUAFFFFABRRRQAUUUUAFFFFABRRRQAUUUUAFFFFABRRRQAUUUUAFFFFABRRRQAUUUUAFFFFABRRRQAUUUUAFFFFABRRRQAUUUUAFFFFABRRRQAUUUUAFFFFABRRRQAUUUUAFFFFABRRRQAUUUUAFFFFABRRRQAUUUUAFFFFABRRRQAUUUUAFFFFABRRRQAUUUUAFFFFABRRRQAUUUUAFFFFABRRRQAUUUUAFFFFABRRRQAUUUUAFFFFABRRRQAUUUUAFFFFAFXUrGPU9MurGUAxzxNGc+4xmvlR7eXT9RntJgVlhkMbA+oOK+ta+evizpP9l+N3ukXEV8gmH+90b9R+tAGRavkAVW1A5lUdKbYy5AFLe/NOAaAHW4+WrS8kZqvCMKOKn69cZ9qAHgYJPSq95y9shzhpQcfQZ/pVjP1/Gq8gLahAM/djZsZ+g/xoAsnvmoXKjr7CpDzxn8KibGc7ucUAMZutQueDzUjY7moZPumgDPuOfWs+c89fzq5cHk1QmP4UAUpmwDVN6tSkGqjZ6ZoAE64qdRxUMfWp1oAeKcOaaOxp45xxQA5aUe1IOKUUAOoNFGaADNIeKOKQ0AIeaaacaYaAOu+F+nf2n8RdJjwCsUhnbPogJ/nivquvn74CWAm8S6lfMufItgit6Fm/wFfQNABRRRQAUUUUAFFFFABRRRQAUUUUAFFFFABRRRQAUUUUAFFFFABRRRQAUUUUAFFFFABRRRQAUUUUAFFFFABRRRQAUUUUAFFFFABRRRQAUUUUAFFFFABRRRQAUUUUAFFFFABRRRQAUUUUAFFFFABRRRQAUUUUAFFFFABRRRQAUUUUAFFFFABRRRQAUUUUAFFFFABRRRQAUUUUAFFFFABRRRQAUUUUAFFFFABRRRQAUUUUAFFFFABRRRQAUUUUAFFFFABRRRQAUUUUAFFFFABRRRQAUUUUAFFFFABRRRQAUUUUAFFFFABRRRQAUUUUAFFFFABRRRQAUUUUAFFFFABRRRQAUUUUAFFFFABRRRQAUUUUAFFFFABRRRQAUUUUAFFFFABRRRQAUUUUAFFFFABRRRQAUUUUAFFFFABRRRQAUUUUAFFFFABRRRQAUUUUAFFFFABRRRQAV5z8ZNH+3eFY9QRcy2MoYkD+BuD+uK9Gqnq2nx6tpF3p8oBS4iaM57ZHB/OgD5YsZMVbueZ1PtVDypLK+mtZhiSGQowPqDj+lXWO6RD7UAWUGABUq/TFRJ0AqUccHvQA/HAzmqqHfqMzdkjVRn1yT/hU+QAM9M8VWtOZbqTH3pcD8ABQBaJwPb61G2MEkZpzDA5pj+h7dqAI2bPqKgmxtqVu+OoqvMeB70AZ055PPSs+Y1emOc9qz5T1oApymqrcVZkNVTyxoAfH1xU44qGP0qcGgBw+tPHSmDinjOMdaAHDgUuMfjTfbvThQAvWjvSduKWgBO9Bo7UmaAEJphpxppoA99+AVmY/D2qXhH+uuQgPsq//AF69drgfg1aG1+HFmxHM8skv5tj+ld9QAUUUUAFFFFABRRRQAUUUUAFFFFABRRRQAUUUUAFFFFABRRRQAUUUUAFFFFABRRRQAUUUUAFFFFABRRRQAUUUUAFFFFABRRRQAUUUUAFFFFABRRRQAUUUUAFFFFABRRRQAUUUUAFFFFABRRRQAUUUUAFFFFABRRRQAUUUUAFFFFABRRRQAUUUUAFFFFABRRRQAUUUUAFFFFABRRRQAUUUUAFFFFABRRRQAUUUUAFFFFABRRRQAUUUUAFFFFABRRRQAUUUUAFFFFABRRRQAUUUUAFFFFABRRRQAUUUUAFFFFABRRRQAUUUUAFFFFABRRRQAUUUUAFFFFABRRRQAUUUUAFFFFABRRRQAUUUUAFFFFABRRRQAUUUUAFFFFABRRRQAUUUUAFFFFABRRRQAUUUUAFFFFABRRRQAUUUUAFFFFABRRRQAUUUUAFFFFABRRRQAUUUUAFFFFAHzr8VdKGleOppkGI71BcD/ePDfqK5uFt231r0T42CNtb0wH7y2x/It/8AWrzu2Hy+1AFxRz2qQce5qNe2RT1PagCTgY7EVVsv+PfOfvMzfmxqWR9sTPjGFJqKzXFnCCDkIKAJjkZxmo2I5GKVj+IphI6UAMcn6VWuOmKnPH5dqq3BwfrQBnzHk81RlP8AhV2Y8nNZ8tAFOU+lQZ5qaXvUJoAljqYcVFGPepQaAHDJ/CnU0GnZ6UAOFOHHrTVzS0AKBx0oNJmjqPWgANIewpfwpDQAhphpxp9vAbm7hgHWR1QficUAfWfgK0Nj4C0S3YYYWqsf+BfN/WujqCytxaWFvbDpDEsf5ACp6ACiiigAooooAKKKKACiiigAooooAKKKKACiiigAooooAKKKKACiiigAooooAKKKKACiiigAooooAKKKKACiiigAooooAKKKKACiiigAooooAKKKKACiiigAooooAKKKKACiiigAooooAKKKKACiiigAooooAKKKKACiiigAooooAKKKKACiiigAooooAKKKKACiiigAooooAKKKKACiiigAooooAKKKKACiiigAooooAKKKKACiiigAooooAKKKKACiiigAooooAKKKKACiiigAooooAKKKKACiiigAooooAKKKKACiiigAooooAKKKKACiiigAooooAKKKKACiiigAooooAKKKKACiiigAooooAKKKKACiiigAooooAKKKKACiiigAooooAKKKKACiiigAooooAKKKKACiiigAooooAKKKKACiiigAooooAKKKKACiiigAooooA8C+LlwZvGrxZyIYEXr6jP8AWuPgHyCtjx9c/afHeqsTkLMUH/AeP6VjxAhRQBZXk1JnoM8+9RLTxQBFfsRYT467CB+NTrlYwAeAMVUvT+4RM/ekQf8AjwqzkDnvQAMQegqMmlJA6cGmMfegBjnniqlwcelWWIxVS4PNAGfMc1Rl71blOTVKU9aAKkh681D1NSydaixmgCePoalB4FRR8CpRxzQA4U4EZpo5pwoAWnDvTetL29KAFNAoz6UmaAAmkJ4oP0pDQAhrovAGn/2p490e2K7k+0K7j/ZX5j/KudPWvUfgTpv2rxjc35B22lscf7zHH8s0AfRNFFFABRRRQAUUUUAFFFFABRRRQAUUUUAFFFFABRRRQAUUUUAFFFFABRRRQAUUUUAFFFFABRRRQAUUUUAFFFFABRRRQAUUUUAFFFFABRRRQAUUUUAFFFFABRRRQAUUUUAFFFFABRRRQAUUUUAFFFFABRRRQAUUUUAFFFFABRRRQAUUUUAFFFFABRRRQAUUUUAFFFFABRRRQAUUUUAFFFFABRRRQAUUUUAFFFFABRRRQAUUUUAFFFFABRRRQAUUUUAFFFFABRRRQAUUUUAFFFFABRRRQAUUUUAFFFFABRRRQAUUUUAFFFFABRRRQAUUUUAFFFFABRRRQAUUUUAFFFFABRRRQAUUUUAFFFFABRRRQAUUUUAFFFFABRRRQAUUUUAFFFFABRRRQAUUUUAFFFFABRRRQAUUUUAFFFFABRRRQAUUUUAFFFFABRRRQAUUUUAFFFFABRRRQAUUVT1a4Fpo97cEgeVA75PspoA+XtWuDd65e3BOTJO7Z+rGljGF61SUl5ST1JzVxKAJ1PSnDjjAOO1RggCng/LkUAQ3JJlt145k9PQGp+xJqtJlrqAcZwzfp/8AXqdievagBCQPTmmH8KcT3xUbEUANY555qjcHk1bc+1Upyc0AUZTVGU1blNU5TQBVkNRinuetMX3oAsJ04qT0qNDgc1IKAHZpabk96dnmgB3elFNpcelAC0Ume1LQAntSGg0hoAQ19B/AbTPs/ha91FgM3VxtU+yDH8ya+ezX114F0r+xvBGk2RADrbq74HVm+Y/zoA6KiiigAooooAKKKKACiiigAooooAKKKKACiiigAooooAKKKKACiiigAooooAKKKKACiiigAooooAKKKKACiiigAooooAKKKKACiiigAooooAKKKKACiiigAooooAKKKKACiiigAooooAKKKKACiiigAooooAKKKKACiiigAooooAKKKKACiiigAooooAKKKKACiiigAooooAKKKKACiiigAooooAKKKKACiiigAooooAKKKKACiiigAooooAKKKKACiiigAooooAKKKKACiiigAooooAKKKKACiiigAooooAKKKKACiiigAooooAKKKKACiiigAooooAKKKKACiiigAooooAKKKKACiiigAooooAKKKKACiiigAooooAKKKKACiiigAooooAKKKKACiiigAooooAKKKKACiiigAooooAKKKKACiiigAooooAKKKKACiiigAooooAQkKpZiABySe1eU/EzxYbnSZ9PspCsDEK7D/lp/9atfxp4uhi3WFvOoUcSMD94+g9q8t8TTqdOiGcvI276CgDl4fvVdXiqUAy1XF7UASg47U/PFRrx7UueKAInIN/HyPljJ/Mj/AAqY9OKrq2dRkH92Jf1Jqc8igBCTnn+VRsaeevT86iY9TQA1jziqM+TmrbHjPWqU55PNAFGTrVOXOKtSnNU5TmgCs/Jpq9elK5pFwDQBYQcU8HkYpifdp45oAd+FO/GminZOKAFzS9uaQUc0AKKKTtRmgApppe9JmgDS8O2Dar4k02xUZM9yifhkZ/SvshVVEVFGFUYAHYV8u/CGCC4+JGneeyqI1eRNxxlgpwP1r6joAKKKKACiiigAooooAKKKKACiiigAooooAKKKKACiiigAooooAKKKKACiiigAooooAKKKKACiiigAooooAKKKKACiiigAooooAKKKKACiiigAooooAKKKKACiiigAooooAKKKKACiiigAooooAKKKKACiiigAooooAKKKKACiiigAooooAKKKKACiiigAooooAKKKKACiiigAooooAKKKKACiiigAooooAKKKKACiiigAooooAKKKKACiiigAooooAKKKKACiiigAooooAKKKKACiiigAooooAKKKKACiiigAooooAKKKKACiiigAooooAKKKKACiiigAooooAKKKKACiiigAooooAKKKKACiiigAooooAKKKKACiiigAooooAKKKKACiiigAooooAKKKKACiiigAooooAKKKKACiiigAooooAKKKKACiiigAooooAKKKKACuM8f+KW0SxWxtW/0y5U8/3E9fqa7OvCPG14954x1F25ET+So9lGP55oA5uaFrqTzJZSWznmsvVZWMwjZt20cVsk4PP/165/VGzfv9BQAyAcVaFVoOnFWRx3oAkFLnj9KQHFLu+maAK8RzeXJ9Nq/pn+tTk8ZIqvbHEtyc5zL/AOyipyc80ANP+eKYxxxSkjNMJGKAGN37H6VQmJGTV1s44OKoTc+lAFOQ/TFU5TVuUmqchzQBXY5pF60Nihc5oAsJ0p4NMXoKeD7/AJ0AKDThTc8UtADs+lLSA96OtAC0mKDSdaACk70GkoA1vDqsdUEikgxqSCOoNeq6N8Qdc0nbHJN9sgH8E/JA9m615f4cljjnl3cMwAFdLkEZBoA9t0b4j6JqYCXEhsZz/DN90/Rv8cVevfHHh6xB3agkzD+CAbz+nH614LjNN29xwfagD1a/+KyAldP04t6NO+P0H+NYM/xN8QSOTGbaIeixZ/nXECRh94ZHqKSS7hiXc8iqPc0Ad3bfFDXomzMlrOPRoyv8jXQ6d8VrGUqmo2Utue7xHev5cH+deJz6/Zwg7WLn2FZdx4ok58qIL7saAPrHTtd0vVlBsb6GY/3Q2G/I81o18ZWuuX9zfKFuHjxyDGdp/MV3nh74veIdKYQ3Ey38CnG245bH+8OaAPpGivP9C+LmgaoFS936fKe8nzJ/30On413VtdW95CJraeOaM9HjYMP0oAmooooAKKKKACiiigAooooAKKKKACiiigAooooAKKKKACiiigAooooAKKKKACiiigAooooAKKKKACiiigAooooAKKKKACiiigAooooAKKKKACiiigAooooAKKKKACiiigAooooAKKKKACiiigAooooAKKKKACiiigAooooAKKKKACiiigAooooAKKKKACiiigAooooAKKKKACiiigAooooAKKKKACiiigAooooAKKKKACiiigAooooAKKKKACiiigAooooAKKKKACiiigAooooAKKKKACiiigAooooAKKKKACiiigAooooAKKKKACiiigAooooAKKKKACiiigAooooAKKKKACiiigAooooAKKKKACiiigAooooAKKKKACiiigAooooAKKKKACiiigAooooAKKKKACiiigAooooAKKKKACvnPVpxc65qM5P+suZG/wDHjX0TLIIoXkPRFLH8K+ai5ZmcnlmLfmaAF4OM5rnNQIN/J9RXRYz3Ga5u9/5CEufWgCWHhe9WFPSoIh8oqdaAH8dOlLikpelAEFqcrK3HMrfzxUjZJxn86is8eRnplmP6mpWI6Y/GgBhJphP1P404jPao3PPYUARt3PSqMxHOOauvnmqMxPPPFAFOQ9apycc1bk/zxVSQnFAFdqFwKQ9aFoAsr0607imr0zT+lABkjpTh0pKPyoAWlzSdKM0ALSZoPemmgBc03NGaWNGlcIoyaANDSgwlDDsa6oHGCOM1l2Nj5EIz941ok4IHpQBKJPX86eGz3qAGnA46cUATVXu7GC8TbIvPZu4qQOO/FPzmgDitT0+bT5MN80Z6NWS8hr0W8t0urZ4nGQRXnl9btaXLRN0B4NAFvRgQ08uOimnxMdwNN0/KaZM+37xxmkTJFAGjBIeucVt6Tr2paRMJrC9mt2/6ZsQD9R0Nc4jEcgfrVqOTIBFAHsOh/GW+h2x6vaR3KD/lpEdj/l0P6V6Novjrw/roVba/SOY/8sZ/kb9eD+FfMUcuMdx71YEgHU0AfXFFfN2h+Odf0PattfvJCP8AljN86/hnkfhXo2i/F+xuNser2b2rnjzYfnT8uo/WgD0uiqWnavp2rQiXT7yG4Tr+7bJH1HUVdoAKKKKACiiigAooooAKKKKACiiigAooooAKKKKACiiigAooooAKKKKACiiigAooooAKKKKACiiigAooooAKKKKACiiigAooooAKKKKACiiigAooooAKKKKACiiigAooooAKKKKACiiigAooooAKKKKACiiigAooooAKKKKACiiigAooooAKKKKACiiigAooooAKKKKACiiigAooooAKKKKACiiigAooooAKKKKACiiigAooooAKKKKACiiigAooooAKKKKACiiigAooooAKKKKACiiigAooooAKKKKACiiigAooooAKKKKACiiigAooooAKKKKACiiigAooooAKKKKACiiigAooooAKKKKACiiigAooooAKKKKACiiigAooooAKKKKACiiigAooooAKKKKACiiigChrcnk6DqMucbLaQ/8Ajpr5yThR9K9/8aSmHwbqzjr9nZfz4/rXgA6AUAOwQOMVzl1/x/y/71dECPyrnbnm/l/3qALCD5RUyHioV4FTL6UAPH+TR260ntTWYLGzEjgGgCOzIFpGfUZ/OpD+tMthttIs/wBwdfpTjQAxgT+NRmpG5OeKiY44oAjfp3qjNxwDmrr4I6CqMx54oApy/pVSTqatSH1qpJ3oAgaheoNI3XNOXrQBOvSn0xenandsfzoAdS+1JmlFAC9aKQUmcUAKelN+tBOKFVpGCqCSe1AAqs7BVGSeldJpOmCBBNKPmpulaSsYEsv3utaU86xr2wKAHPIBz+VRq+R9aqiUyMWP4CpVNAFgNTg1Qg9qdmgCUNTtxAyvPtUOakQ/NigCZXDrkHg1x/ieBfllA53YrpIZPLuXjz8rZIHoawPEhzCF9WoAoIdmkImc72yRUSsCOaluiUtraMHkLmoE4GVA+hoAsxnOAefpVlHUAEZNUk49snqBVhCBgZoAuxvjuCDUzvthJAJJ4x9aqxuMED8TVu0tZNS1CzsYyA1xMEB9MnGf1oAz0luLU4BO3t3FXoNUVuJFwcckc1t+IvCd14e11NJEou5pVDRiJTlsngY9eKw57DypGimhaGZeqkbSD7igDXstQkhlE9pctHKOQ8blWH5V3Wi/FXXdP2R3yx6hCOP3nyyY/wB4dfxFeTfZJYyDG28D04NSxahLC22UZ9mGDQB9MaL8SfD+r7Y5Lg2VwePLuflGfZuhrrUdJEDxsrIeQynINfJUOoW8i4JCk9mroNI8Saxojq2nahLEmc+WTuQ/8BPFAH0vRXlOjfGAjbHrVh7Ge2/mVP8AQ16BpHibRtdjDadfwzN3j3Ycf8BPNAGtRRRQAUUUUAFFFFABRRRQAUUUUAFFFFABRRRQAUUUUAFFFFABRRRQAUUUUAFFFFABRRRQAUUUUAFFFFABRRRQAUUUUAFFFFABRRRQAUUUUAFFFFABRRRQAUUUUAFFFFABRRRQAUUUUAFFFFABRRRQAUUUUAFFFFABRRRQAUUUUAFFFFABRRRQAUUUUAFFFFABRRRQAUUUUAFFFFABRRRQAUUUUAFFFFABRRRQAUUUUAFFFFABRRRQAUUUUAFFFFABRRRQAUUUUAFFFFABRRRQAUUUUAFFFFABRRRQAUUUUAFFFFABRRRQAUUUUAFFFFABRRRQAUUUUAFFFFABRRRQAUUUUAFFFFABRRRQAUUUUAFFFFABRRRQAUUUUAFFFFABRRRQAUUUUAFFFFAHL/ESXyvA+oD+/sX83FeFDjp1r2j4pybPBpX+/cxr/M/0rxbv7UAO5rn5/wDj+l/3q39w9qwpv+P+T60ATLUg9ajXpUg6UAO7VFdnbZzN6IT+lS9/X2qC+/485R/eXH58UASx/LCgHYAUjH3/ACp/T/8AVTD7GgBjCo2zinnnOajbGKAIn4H+NUZvrV1yMVRlIJ74oApycdqqyVZkI9KqyGgCA0qUjUqdaALC07NMU8U7PNADh160uaZmjNADs+tJnnNJnNWrOwlu3GAQvrigCGGF53CIuSa6XTdJjtl8yQAvU9pZRWUfQbu5qG+1JYgQDk9gKALN1eJEvXHsKyDO077m6dhVNpnnfc1WIuBigC5GeKsK1VUPpU6mgCcHNPzUKmng0ASA1JGfmFQg04GgCncymG/izx82PzrK175niTuWFbGpwGWETJyyda53X5juiYdcg0AQ3r/vguB8qgVArdABVYXO9iWPJ9anUg4NAFgE7cDpUwYqwA4z3qqC3p+tSq/ByR60AW0kHTpiut+G9ut54/08OQRCC+D6gZ/rXGqxLD8verWka1c6JrcOp2xxLA+QD0I6EH2xQB67pyvrXxwuJnH7uxyeR02rgfqa6p7fQbu01rWNegie3e7MayOuSqrhBgj3zXH/APC3tISymurTS2j1WZNrMQMZx3bqRXYaW9idG0DS7vyp1uwzupwRI+0sc/iaAOD8X+A/sGqWC6CJLiDUATFHnJBHPX0xXO614Y1TQlVdUsGjR+Fc4ZT+Ir0tvGS/8LCSOSxki07Tla2eXbkRs2PmOOg4Apvj3Vb2w0K8sNQh+3Wd626zvEI/dnIIU/TnBoA8Zk06NseU20+h5FRYvLPkA7R/d5FeueFfhxa6l4Ql1LUfNS5mVpLfY2NqgcZHvXm6AuwRFLMTgAdzQBVg1Vf+WijjupzitCG4RiHhlIcdCp2sPpUV7pbQTtFeWrwTDqHUq1Z0mnSo26KTOB0JwRQB6PovxH8Q6TtR7hb6Af8ALO55OPZutehaN8VND1DbHfiTTpj3l+aM/wDAh/WvnYX91aMBKD9GH9avRalDKTu+QnselAH1hb3MF3CJreaOaNujxsGB/EVLXzDperX+lyibTL2a2Of+WT/KfqOhrvdH+Lt/Btj1iyS5T/ntbna34r0NAHsNFYOjeM9B10BbO/jExH+pl+Rx+B6/hW9QAUUUUAFFFFABRRRQAUUUUAFFFFABRRRQAUUUUAFFFFABRRRQAUUUUAFFFFABRRRQAUUUUAFFFFABRRRQAUUUUAFFFFABRRRQAUUUUAFFFFABRRRQAUUUUAFFFFABRRRQAUUUUAFFFFABRRRQAUUUUAFFFFABRRRQAUUUUAFFFFABRRRQAUUUUAFFFFABRRRQAUUUUAFFFFABRRRQAUUUUAFFFFABRRRQAUUUUAFFFFABRRRQAUUUUAFFFFABRRRQAUUUUAFFFFABRRRQAUUUUAFFFFABRRRQAUUUUAFFFFABRRRQAUUUUAFFFFABRRRQAUUUUAFFFFABRRRQAUUUUAFFFFABRRRQAUUUUAFFFFABRRRQAUUUUAFFFFABRRRQB5/8W5dvh2yizjfdg/krf414/njGPxr1T4wviz0hPWWRvyA/xryoEE+lADuD9ax7kf6e+K2Dz6Vm3ERe6ZxQAxakHWmDjg09TQA6q17/AMe4H96RB/48KsD6fSoLoZEI9ZV/Tn+lAExx3ppNO4xTCe/b1oAYehwfyqInFSkDvUTdD60ARucKe9UJjV5/unNUJRnPNAFSQ1UfqelWpKqydaAIDyacp+bimk80qmgCdT70ueetMBp2SeBz7UALmnIrSNtQE/SrVrp8sxy3yr71uW1nDajOATQBSsNHyQ8/5Vsb4rWPCgACqdzqMcIxn8BWJcX0twT1C0AaN7qxbKRnn1rL3M7EsSSe9RqDxUyLx0oAmTirK8VXQ+2anSgCyhqZT2quv6VMp4oAnFPFRA+9PBoAkB9KcDUY604GgCZCCSpHB4rmtY0+aSYiONnVOeBnAro05YUufK1CN+zHafxoA89e3OTxzTAJIj8pP0r0y70qzvP9bCu4/wAS8GsC88KyJlrWQSL/AHW4NAHMR3IHDqR7rVuNkkHysD/u9fyplzp81u5SaJkPuKqNCQcjg+tAGmuRjbzj06immIO2RlWzzxVJLmWPhhvHv1q3HeRyEbjg+jf40AOCSxg5XcPVf8K0dK1u702+t7u0uGWW2bdGCchSRzxVUEEcNj6094QxBkTPo3/16AO+8MfEX7L4hvrnWIFlttRUJcCNehAxkCuvudV0bxnJpPhjRCRZRSCWZ3yNqL/CM9Sc14b5LjlG3D+63+NSxXT20gcF4nHKspx+RFAH09Ya/DfeIdS0a0x9nsLQJx03nOR+AwK8W8I6cdV8YWdl0XzSzEdQFyf6VneFvGN74Yv57uBUuPtC7ZRJn5vxroPhrrGmWHiia+1K4S2Bibyi2SNxPSgD0rxl4Rn8Wz6RLAURkzHcyH+FfX3OQfzrF1z4YWa6nZ2WkXUiXE0bs3nfMuFA59RkkVB4a+Id3fX0eiW8ZM1zfuwnJyFhJ3HA9cZru0ukPifVLyRgIrC0WPPoTl2/QLQB4fqXhjU9PSaSe0aS1ikaJpkG5Mg4Nc9LpsTj92TG3oOR+VfRWl6b9p8Kz6fOcnULdpjnnDvkt+pBrib/AMKWll8OLWV7PdrE0oSNlzuLM3T34oA8hMN5aHchJHqn9RU8GrlVxKm7sSODXocvwv8AEcen/aikLvt3GBX+cf0zXETWkbuyzxYcHDZGCDQBJFcwTnKsNw6DOCPpXUaL468Q6JtWC+Nxbr/yxufnH4HqK4aXTGViYJP+At/jUmnSTGaWGViPLAG0nOKAPd9G+Lml3RWLVrd7GU8GRfnj/Mciu8stQs9SgE9ldRXER/ijcMK+X84GDk1LZ3l1p1wJ7C5mtpgfvxOVz/jQB9SUV4ro/wAWtXstsep28d/EODInySD+hr0PRfH/AIe1srHFerBcH/ljcfI34Z4NAHT0UAgjIOQaKACiiigAooooAKKKKACiiigAooooAKKKKACiiigAooooAKKKKACiiigAooooAKKKKACiiigAooooAKKKKACiiigAooooAKKKKACiiigAooooAKKKKACiiigAooooAKKKKACiiigAooooAKKKKACiiigAooooAKKKKACiiigAooooAKKKKACiiigAooooAKKKKACiiigAooooAKKKKACiiigAooooAKKKKACiiigAooooAKKKKACiiigAooooAKKKKACiiigAooooAKKKKACiiigAooooAKKKKACiiigAooooAKKKKACiiigAooooAKKKKACiiigAooooAKKKKACiiigAooooAKKKKACiiigAooooAKKKRmCKWYgKBkk9hQB5L8XbtDqun27EkRRMxx2LH/AV52DCem78q2fGusnVfEVxMD8gbCj2HArnDMBQBZJB4UY+tOSFSOlU/P7E1ZiuBxQAklmCM4qs8DJnitVHDjGac8SsPYUAYnTrVe45ltx335/Q1tS2gOcCsu5gYXcCgE43N+n/ANegBT09aY3fmnsCDzwajb6igCNu/FRnpx1qU5PAqJ/agCGThTVKXrmrsnCdKourNkKCaAKch61VkI/GtB7WQjpiqksIU8tzQBTY0q5J6VIIgTircEAB6UAJBZyTYOMCta3sY4QCRTFnSGPkgVVm1InhB+NAGtJdRwL1AwKy7jU2kJEf51Qd3kOWYmgCgBSzO2WJJpyjigDFOA60AKBiplGOmKYAKkAyPagCReKnU45qFfXrUq0ATLxipl96hWpFNAEwOKkGaiBFPBNAEoPNKDTATUkal2oAmgUk7j+FV9Sl8kRtnneDV9VCISeAK57U7k3E/H3V4FAHWA7lDDkEZpc1V06XzdPhfPO3BqzmgBssUcy7ZUV1PZhmsa78NWs2WgYxN6dRW3QaAOGu9Bu7UEtHvUfxJzWXJbe2K9NqldaZaXXMkQDf3l4NAHna+dCfkYgenarMWoMhAdSPp0/KuhuvDci5MDiRfQ8GsK5sJIWKyIVPoRQBbiuYpuhwfVf8Kn2M/wAy7XHcf/WrBaBlOV4PtUiXc8X3vmA9etAGoYE/hLRn2PH5UDz06rvHqnP6VFDqcUpCycn0b/GriOjco232J/rQBNpGsXGl30V7YTeXcxHKtjp7V2+n/Ey4/s3UrO+t98uoPukuI2wRkAHj6CuDlhU/fT6OvX86h8p1IMbhh/df/GgD3ZPiBp134z0GDT5t1o0LQyfLjazYCj8No/Ouq1O+tz4w0TTZAPuy3AB9QMD+bV8wfaWicM26Jh0P+BrZtvE2qR6pZ6k95JLPa4EbStuwB2+lAHrdv4o12T4ttpvmyGzEpjMB+6EC53f1zWzZaHpX/CWeJb27t4ZbRVQsHUEKdu5q5iP4waYLdrp9HYaoU27htwf+BdcVsaFqayeCHv8AUJUaTVbwecAegdwu3/vkUAYXjDwto39gR+I/DzkWrMA8eSVwTjIzyOe1eZWDGRrmbGTJIQPoOK9Q+KfiG30rTf8AhGrK08iJFEzsoAXbyQAPrXl9j8llEp5O3J9z1oAvA5Oenal3fMD27+9QiTAOOvYGl3EAZyB1JoAmUnOAfqaQBHzuUHmo+h3daeoZ3wvXHQ0AbujeMdf0EhbLUHaEH/UT/vE/Xp+Fel6P8V7OcImq2j27EcyRDcufp1H615HFCEwW5apaAPpGw1Sx1SETWN3FcJ6o2SPqOoq3XzTa3VxYzie1nkhlU5DRsVNd1onxSvrQrFq8IuohwZoxtcD6dDQB65RVDSNa0/XLQXOn3KzJ/EBwyn0I7VfoAKKKKACiiigAooooAKKKKACiiigAooooAKKKKACiiigAooooAKKKKACiiigAooooAKKKKACiiigAooooAKKKKACiiigAooooAKKKKACiiigAooooAKKKKACiiigAooooAKKKKACiiigAooooAKKKKACiiigAooooAKKKKACiiigAooooAKKKKACiiigAooooAKKKKACiiigAooooAKKKKACiiigAooooAKKKKACiiigAooooAKKKKACiiigAooooAKKKKACiiigAooooAKKKKACiiigAooooAKKKKACiiigAooooAKKKKACiiigAooooAKKKKACiiigAooooAKKKKACiiigAooooAK5nx1rA0nw3MVbbJP8Au1+nf/PvXTV4v8WtY87VFsUb5IVCnB7nk/59qAPOppjLIzk8sc1WdiOaC1Rk5JoAYZDnrT0uSD1qFxkn1qFiRQBtQ3nTBq9FeDIHGK5UTFec1ZjvSO9AHVrKrjINVAqy6lIeoiQLkep5P6AfnWWuoqiF2bAAyTU1jdbYi7cPI29s+/8A9bigC/LahlOKpy2/U1cFwrDB/nQzhu9AGRJEw6j6VA4Kjoc1sOoPpmq0kKkkcUAQWlpDP/rXA9B61YuLIRR5ihBFQFPLGakjuZIzwcj0NAHPXzzhjlCorLOc5bJruj9lu12yoFJHWsu90A8vCcjsKAObWRR0XmnGeQj5cCpZrR4mIdCCD3FQ7CKAGncx+YkmgCnYpQPSgBAKd0pQKUDigAx0pwH50KOKeOaAADvUi00DBBp46UASLUg6VGD6CpF7cUASipB1qJfrUgNAEoP0pwNRg1PFGZMelAD0Uu2BV+GIKvsKbDCFHtVe+vhEnlxnnv7UAR6ne4BhjPXrWI9Ssd2WJyTUbcigDoNAkLWDKR9xyK1c1jeHf+Pabv8AP/StmgA70UlGRQAUUe9BoAPxpkkUcylZEVh6EU+koAx7rw9bygtCxjb0PIrCu9FubcEtFuX+8vIrte9FAHm0ltjPFRqZYfuMR7V6Dc6XaXWd8QVj/EvBrEu/DkqZMLCRfToaAMSHU3Q4kUj3HQ/hV+O7guByQM91/wAKoS2hUkEEEHBBqq8BQ5GQfWgDodm4fIRIO/8A+qq7W6HhWMRHp/hWVHeTwkZ+Ye/Wr8Oqo42yAZP97r+dAEv79Oq71HPydfyqxb6jNGAsU7gK4YpuIAI6HFNjeNwSjlSfXp+dEse47pYgw7N/9cUAaPinxLe+JntmvQnngLFvUY3DOef1pqPtAHQCsyO3jWZW3sQhyob/ABq2snQZBPWgC2JSQO+KcJORn8xVUPwDk571btLdrg8cIOrUASW0bSsQp4HU1pxxLEuF6+ppY0WNQqAAU6gAo70ooJxQAhOBUMklJI+KiAyc0AXtG1q+0DVI7+xlKsp+dM/LIvcEV9FaLqsGt6Pbajb/AOrnTdg9VPcH6GvmaWRY0r1v4L6k11oOoWTH/j2uNy/Rh/iDQB6bRRRQAUUUUAFFFFABRRRQAUUUUAFFFFABRRRQAUUUUAFFFFABRRRQAUUUUAFFFFABRRRQAUUUUAFFFFABRRRQAUUUUAFFFFABRRRQAUUUUAFFFFABRRRQAUUUUAFFFFABRRRQAUUUUAFFFFABRRRQAUUUUAFFFFABRRRQAUUUUAFFFFABRRRQAUUUUAFFFFABRRRQAUUUUAFFFFABRRRQAUUUUAFFFFABRRRQAUUUUAFFFFABRRRQAUUUUAFFFFABRRRQAUUUUAFFFFABRRRQAUUUUAFFFFABRRRQAUUUUAFFFFABRRRQAUUUUAFFFFABRRRQAUUUUAFFFFABRRRQAUUUUAFFFFADJpVggklf7qKWP0AzXzF4mv31DWJ7iQ5aRy3519Jazn+w9Qx1+zSf+gmvmC8QzxrOnORQBRJOaZupCc8enamk/nQAFiKianNyaYTQAxl+lR4IOalI71BO5GETmRunt70ARyTGSQRDlF5fnr6Cra3ZGBn9arrEI0ABOe59TTWWgDTjv8YGeatJfZ71z/INKJWFAHSrdgg89ad9oBHXpXNrdMP6+9Si8OTg8elAG40q7+Twaa6eWc8FT0NYz3hIxnNXrHUUcGGU5B6ZoAnz+ZqaKd4jhTkehpssRTDLyp75qLIIoAuutreDbIgV6xr3Q3hJaI7l68Vd3c/1qeK5eMYJ3L70Acq8ZRyGBBpu3FdbNa2t6nICtWLd6TNbnKjetAGZjn0p2M5p2AGwRg+9GMUAIP0p46YxSAZp4H50AIBUmO1NUCngd6AHD1p64NNGPwp6jkDFADwcU9RnoDmnRwMfvcCrkUarjH50AMht8nLflV5FVFycACq73EUAyWBNZ897JM2Adq+lAF271DgpF9M1lsc5J5ozRg0ANNMfgE0+q00mTtHQUAdF4c5tJT6yf0FbHesfw5/x4yH/AKaH+QrYJ56UAH40GiigA9qTtR2oNABRRRQAcUlFLQAVBdXCWtu8rnAAqYsFBJ4Ark9Z1A3cxjQ/ukP5mgBhY3haZhgsxqCS3zU2mDfDIO4arLRYPIoAx5LfFVntvUVuPF+NQSQAjpQBjq00B/duQPSrUGqyR4D5A/2en5VK9v3xVaS374oA1IryCcZyA3qv+FTqmeUIYY/EVzbQspyvB9q39A025uyJrgkW69M9W+lAGjp9k9yd7ArEO/r9K3lUIoVRgChVVVCqMAdAKdQADr0paQUvSgAJwKgkftTpH4xUWMnJoAQDJ5psjiNadI4RT61mXM5JOTQAy5nLE16Z8Cp2OraxDn5TCj/juI/rXksj5zzXqnwFUnWtYfsLdB/48aAPdaKKKACiiigAooooAKKKKACiiigAooooAKKKKACiiigAooooAKKKKACiiigAooooAKKKKACiiigAooooAKKKKACiiigAooooAKKKKACiiigAooooAKKKKACiiigAooooAKKKKACiiigAooooAKKKKACiiigAooooAKKKKACiiigAooooAKKKKACiiigAooooAKKKKACiiigAooooAKKKKACiiigAooooAKKKKACiiigAooooAKKKKACiiigAooooAKKKKACiiigAooooAKKKKACiiigAooooAKKKKACiiigAooooAKKKKACiiigAooooAKKKKACiiigAooooAKKKKACiiigAooqveX1vp8BmuZQiDpnqfYDvQAzVMHSL0E4HkPnP+6a+U9O1AwjypOY69t8R+KJdUhltY8w2jgqVz8zD3P8ASvC76zewvZIGyQp+U+ooA0rrT0mXzrduvPFZUitExVxg1NaXsls3ynK9wa1lNpqaYOFk96AOfpDVy50ua3JKfMtUHcIpL/LtHOaAGTSeWucZYnCj1NMijK5ZuZG+8aI0LP50gwx+6v8AdH+NSUAM684ppFPPpTcUAMI4qMr+FTGmkUAQFaYRg5qxjmmFfzoAg56VHudSCCRirBXimFaANfTdY24inGV9a1zbxzL5kDAn+7XHEY5xVy01Ka1I2scelAG4wZDhgQaTdzT7bVre8XbMAGxUslkdpeFgyigCAH0PPrVmO6IwJAGXpVT5gSrDB70uecDmgCe4023vVLRkBvb1rEurCe0JypZRWsrlGypIIqyLsOu2ZQw9aAOXUgnH86fg+la19p0EmXhbbWRLDPCTg5FAD8VIkbN0BqmbuZDyv6U9L9z1OM9KAL6QYHzsB7VMpRB8o/Gs03mO9MN0zdOKANc3CJyTUEl+SdqDHuazdxY8mpF/KgCbeznJOTSj+dMHBpw57ZoAeDR7CkFQyz4yFP40AE0uPlU/Wq5o9zQAWYADJPFAHU+HQRpzH1c4/KtbvVWwt/stlFF3A5+tWaAD3o96KKAA0UGkzQAtJRmjNAB3ooooARlDqVYZBGDXOX2gSJue2O9eu09RXSdaSgC8vwp1jw/4Rudb1WaGC4R1BshhyqlgoJcEjOTnAzx3zxXMvFXWv4i1eTRn0mS+lksX25ikw2AMYAJGQBtHAOKxJLfdkigDHaL2qFojWnJCyk5HFQMnFAGY8XFVpIs+9arx5qS00/7S+58iJTz7+1AFLTNG+1uJZgRAp/769q6hVVFCKAqgYAHakUBVCqNqgYAHanUALS0gpw6UAFRyPQ74qL7xoATk0rsEWlZgo96ozzYoAZcS8dazJpOTUk0uSeapu2aAGu3Nez/AOHI1q4940z/30a8VJr3j4CwlfD+qzdnuVA/Bf/r0Aet0UUUAFFFFABRRRQAUUUUAFFFFABRRRQAUUUUAFFFFABRRRQAUUUUAFFFFABRRRQAUUUUAFFFFABRRRQAUUUUAFFFFABRRRQAUUUUAFFFFABRRRQAUUUUAFFFFABRRRQAUUUUAFFFFABRRRQAUUUUAFFFFABRRRQAUUUUAFFFFABRRRQAUUUUAFFFFABRRRQAUUUUAFFFFABRRRQAUUUUAFFFFABRRRQAUUUUAFFFFABRRRQAUUUUAFFFFABRRRQAUUUUAFFFFABRRRQAUUUUAFFFFABRRRQAUUUUAFFFFABRRRQAUUUUAFFFFABRRRQAUUUUAFFFFABRRRQAUUUUAFFMmmjt4mlmdUjUZLMcAVw+u+MWlDQaeTHF0Mp4Zvp6CgDe1rxNbaUGijxNc/wBwHhfqf6V51qms3F/OZbiUu3Ydl9gKzri8LZ55Pes6afOcmgCaa5LE1i6taJfwFScSLyj+hqzJN61WeTng0AcixeCYw3C7JB+R+lSqxQ5U4NbV5bRXse2Zc+h7isa40u+sI/NCmW37HHIH0oA0bbVWXCTDcvrRcW9pqVzFGm0DBc89SOlZEVxHMODz6GgFlvVIJB2HkfWgC7caPPFzEdy1nOrx5DqQfpWrBqk8Qwx3L71YW8tLkYlQA/SgDABBpDya2ZdKt5gTE4BqlLpVxGflbcKAKJpDT3SaP70ZqPeMcgj60ABHFMIp5YEdaKAIyO1MKjmpdtIV/wD10AQFKYU71YYd6aVNAEAJBzWhZ6rNbEfMWXvVQpTClAHVQX9pfRgSfK/r3zSy2joNyfOtcoGZTkEj6Vp2WsywHbIdy0AaAJ/Gl6DJ/lViOa0vlyrAPUctvJESeo9aAKk5I5BP1zWdJI44zWhP9046YrOl70AUp2Y55qrnJqzL3qqfvZoAnU5HWpF6VEhxUq+9AEq/pUq/hUKdalXpigCUcml3ADnpULSqo65PpUDyM556elAE8k5bheBUXWm9KdQAtbeh6d5ji7lX5V+4D3PrVTStNa8cSSAiAHr/AHvaurTCoFXAUDAAoAfR1pOD1o/CgBRSUGigAooozQAUUUUAJ2ooNFABRR2o49aAFpKO9FAARUTwRv1Xn2qWjigCr9hjz944qyAFUKOFA4FL70UAFHegU4DnpQAAUjNgUFgKZgsaAEIJPNDEIKc3yiqc02KAGTTYzzWfPLnvSzzdaoyPk0AI75qEnJpS3pTTQAhFfRnwRhEfgIyY5lu5D+AAFfOftX1B8KLYW3w40vj/AFoeQ/i5/wAKAO0ooooAKKKKACiiigAooooAKKKKACiiigAooooAKKKKACiiigAooooAKKKKACiiigAooooAKKKKACiiigAooooAKKKKACiiigAooooAKKKKACiiigAooooAKKKKACiiigAooooAKKKKACiiigAooooAKKKKACiiigAooooAKKKKACiiigAooooAKKKKACiiigAooooAKKKKACiiigAooooAKKKKACiiigAooooAKKKKACiiigAooooAKKKKACiiigAooooAKKKKACiiigAooooAKKKKACiiigAooooAKKKgur22sovMuZkiX/aPX6DvQBPUNzd29nEZbmZIkHdjiuU1Hxp1j06L/trKP5D/ABrlLq8nu5jLczPK57sen09KAOzvPGtuhK2du8x/vudq/l1/lWLceMdUkY+W8UI9ETP881zzSEg4PNed6hrHiDR7+RrmMyIWJBjyVxQB6fceJdXaTYt9OzkZwr7QPriqx1jW+sl7LIPQTMD/ADrzVPF1pfyrJNJJbzjguhx+frW5a63dYBjnhu09CdrUAdRca9qCwPsu7hJsfL5kjBc/UGozruvw6R5wvpDcqMkLO+2s2LXrViEuUe3Y8YkHH51bWK3mXfA4Ge8bUAB8aa4dNivLa+mZQ2JjJKwC+uM9atS/EPWbRLa4jvC9pL96Vwpx+BFU/LnjQoNksZ6g/KaqW1rbWsM0UhmXzW3EynOD7HoKAOjPxJ1i1vUjuGgEDgbJZFA3E9sCrcXxSvhfNaT2Nurj7mSQZPoMmuIttPuJoJ7SfPlKcwzCTc5/HtVZWe7WSyb91fW4/dlHy7KPU44oA9MtPitFKsgn0p45UyTH5o3EeoGK0bD4maRexlvs10hHVcKSPrzXj17eWtmkF7fzLa3Sf6yONgS4HQE1zU/jC4urmSDQbDY8p5ZV5JoA+lIvH/h+RyrXUkRBwQ8R4/LNWZfGOjLbNLb3P2gjoiKQT+Yrw/wzot/aW8k+r3AeSYhzGB938a3JrlUTYgwo7CgDZ1rxFc6nJmZ8IPuxr0H+Nc7PdFiearyzk9TVWSX3oAkkm61Vkl96jeUmoGfNADnkJpqI8zbUXPr7VNFaFsPKSidQO5qzkKu1F2r6UAMit44eTiR/UjgU6SQAFnb6k1Wub2K2Xkgt2ArFub2W4b5jhewFAEerWtndSFrdfLl7uvAP4VhyfarOUPIm9FG3cOlbI+lLwfpQBmx3kUoHOD6Gpeo45p02mQTElQUb/Z/wqk9jeW/MZ8xfb/CgC2sskZyGI/Gpk1KdRyciskXrIcSoQe9Si5ifo350Aao1NHH7yOgy2cvUDJPesssDznP0prf1oA0mtLWXlWH51E2mjrHJVEEjkZpwnkXo5oAmewuFGQc1C0Uy9Uz9KkW+mXvmpBqR/iSgCmxI4ZSPwpNy+taAvIWxuTHek22chxkZoAocHpSFeautZQHlH61G1hIM7HFAFRl/PNNK1O9rcJ2zUZWRfvRmgBiSPEwKEgjpWxZ62yYSYZHc1jlx3U00uncGgDo53t7hN0RAPoKybhSpOR+NZ/nFDlGYVIL2QjDc0ARzDFVT1qy7q3PSq7DmgCRTUo6+1V1cCl8w0AWfMCimmYn7owKh5NOFADh604HmmjrUkUbzSrHGpd26KKADPFaWnacbkiSX5YvTu3/1qvWvh0iMSTuDL1CdhVh0mt/vodvqOlAF+MqiBUGFA4A7U8NWfHcjuanWUHvQBbD5p4bNV1anbuaAJ80VGCeKduyKAHGg0UGgA70UnaloAKMUGigAoPakpaACiikoAOTRRRQAUopBTgKAD+tIzYoZvSmgFqAADJzT/uijharzS4HWgBs82O9ZlxP706efNZ8khJ60ANkkyagLcmlY570wmgAzSUUlABX1t4ItfsXgfRYCMFbRD+Yz/WvkuJDJKkY6uwA/GvsrTofs2l2kHTyoUT8lAoAs0UUUAFFFFABRRRQAUUUUAFFFFABRRRQAUUUUAFFFFABRRRQAUUUUAFFFFABRRRQAUUUUAFFFFABRRRQAUUUUAFFFFABRRRQAUUUUAFFFFABRRRQAUUUUAFFFFABRRRQAUUUUAFFFFABRRRQAUUUUAFFFFABRRRQAUUUUAFFFFABRRRQAUUUUAFFFFABRRRQAUUUUAFFFFABRRRQAUUUUAFFFFABRRRQAUUUUAFFFFABRRRQAUUUUAFFFFABRRRQAUUUUAFFFFABRRRQAUUUUAFFFFABRRVO/1Wz02PdczBT2QcsfoKALlU77VLPTk3XM6oey9WP4VyGpeMLq4zHZr9nj6burn/CublnZ3LuzM55LMck0AdTqPjOeXcljGIU/56Pyx/DoP1rmLi6kuJTLNK8jnqzHJquXJrNuNXt4dVi093CyvGZBn64FAGjJOqLudgqjuTgVS1C/S0SMu5RHON+MgVjtJJqbXOm3u2SUfPHtQhQO2TSQXVxcaPPbo6NcwcMzRELj2HegDXhW0uV8yKbzCf4w5zRNZlhjKyD0kH9awVgspdM+3gTwunDNGpUk+oHpVi3n1WO3SaJ1uYmGdso2uBQBBqHhrTrvJntdjf3lH9RXO3Pgy5tyZtMvGA9Cf6iuyj1+DIS7je2fp8w4P41dCW1yPMjZTn+KM/4UAeaf2hruk5S7tjNEOuRkVas/EdhI2VeSzlPUoeM/Su6ls2YH7kq+jjB/OsW98L6ffk77cRSE4B6E/QigCS11u7VAQ8N3H2Kna1WJfE0CfJ9iunlP8Aj/AK9K5G68Iajpzl7C6bH91j1qqdd1/S0McsDlhwG25FAHcW2oyWkct1qRitoiPkhU/dHv71yOs+OHuLlodHg+d/l8wDk1kR2Wt+JrgNcsyRZ5zx+ldxoPhS1sVG2MFv4nagDldL8H3+sTrcalK53HO3PNeh6bo9hocAWGJd+OSBVp5YrSPZF16E1ny3BfqaALU94WzzVGSbPWomf3qBnoAe8lV3kzSO2aIIWuJMA4Ufeb0FADER5X2oCTVyKGODk4eT17D6U/5UTy4xhP1P1phIUFjwBQAO4ALu31JrHvNX6xwfi1Je3LTsVHCDtWc0VADC5ZiWbJozSGMqab0oAlB6U7PpUQPHWjdjrQBNu6Uq5Y4Gc0sVu8nJ4X9avRwqnAFAFX7BHMv75FfPbHSqw8MW89ygE7QxscMcZ2+9bSrW/4d8J6n4jl/wBFi2W4OHuJOEX/ABPsKAOEu/A2tW98ILZPtCN9yVeFYVh3EN/Z3L288TCWM7SvXB/CvrCz8CWFro4sftVyZe9wGwwPsOQBWAPg1oy+bJ9vvWmfJDkr19+DQB80i4lyRs+vFK91swJEK59a7rX/AAD4g8Nb5LyyaS3BybmH50+pPb8cVwmsxM8kZVScDtQA4XSHrmnefGf4qppkLgilIoAuh1Y9R+dIeelUcc8Um5geCaANAMw6MRTxPKAMPWZ57juacLtu9AGqL2QdcH1pwv8Aj5kzWSLsYwRU8RkuW2xQySH0QZoAuNdxE8p+lQPcQ8/LUkWk6pdTLFBpd7LI3RI4GYn8hVn/AIRHxO5wvhvV/wDwCk/woAy2nTstQvP6Cumtvhr40vWAh8N3wz/z1URj82IrVtvgp43uHxJp8NsO5lnU4/75zQB5+0jE8U3cT1Ndb4k+GXirwyrTXlgZbVetxb/Og+uOR+NcgVdDhloAeKfTFIIp6/McKCx9AKAHjpS7gKlitJX+8dg/WrsVlGg6ZPqaAKccMknYqv61dt4fKIKZDf3u9WkgyB09asJb+3FAFqz1GZcLN8w6Z7itdJFlTcpBBrIit+nWrsCNG2QaAHTWMMmSBsb1WqE0U1r94bl/vCtjOfrQQGXDDIPBoAyY7jPeraSA1Uu7T7O2+P7hPT0pkUjA80Aai896kAz0qnHNxVlZcigCTFFAfNGeaAF5xzSZ5o70UAFFFFABS0nWigAoNFFABRgUdBTh60AGMUjGkLelIBk0AIBuNSEbR1oOAM1BLIADQASy7azbi496Wefis6WQk0AJJJkmq7HNKxzTCaAEpM0E80h60AJRmg0lAGn4etTe+JdMth1kuo1x/wACFfYdfK/wxtDefEXR1HIjlMp/4CCf6V9UUAFFFFABRRRQAUUUUAFFFFABRRRQAUUUUAFFFFABRRRQAUUUUAFFFFABRRRQAUUUUAFFFFABRRRQAUUUUAFFFFABRRRQAUUUUAFFFFABRRRQAUUUUAFFFFABRRRQAUUUUAFFFFABRRRQAUUUUAFFFFABRRRQAUUUUAFFFFABRRRQAUUUUAFFFFABRRRQAUUUUAFFFFABRRRQAUUUUAFFFFABRRRQAUUUUAFFFFABRRRQAUUUUAFFFFABRRRQAUUUUAFFFFABRRRQAUUUUAFFFIzBFLMQFAySTwKAFqC7vbaxhMtzMsaf7R6/Qd653VvF8UG6HTwJZOhlb7o+nrXG3d7NdzGa4laWQ92PT/CgDpdU8YzTbo9PTyo+nmt94/Qdq5aWd5JGkkdnc8lmOSahaTPSmZzQA8uSfam5pM80HmgBc81zfijw+2qCO7tpPLu4RhT2Yehro6a2CKAPNotZ1jRpMXMLkDgt1FaGn+I7CfUReTl1kK7cBsL+XSutmtY5R8yA59RWDf8AhSxudzCPy3P8ScUAS2jo2qubZle2uFPmM8hyPYCmwKtpcz6VLiOKfJjYyEuxP8q5+bw7qunktZXHmKOdrcH/AAqOHxBeWFwhvrdg6cB2XP60AdNYN5cE2nTRwmaMExRF9xYepJqtYW0d1HK6TC1uoj+8WFyQvpmqD+JLWa7huxJ5JU/vNgGXHpzUU3i3T7a/8+JpPJIO+FUA3E+poA2Y77V5I2+xS2t0qtsLtng++KieZNKf+0dYvg86g7Y14VfoK5i58fsqNBpdisIY8Hqc/QVQtNE1TxDci4v5HVCc4PWgDSufGOo6xqkUGmRbYw4PI6/Wu6e1jmjG9ATjnis7SNAtdNjAijAPc4rbRTI/lpx3J9BQBHa2afwgKq9TipLi7WNfLi4UUl1cLGgijOAKzGct3oAe8hY5NRM1ITUbGgBGYetQs3JpzZ70zGcCgBmCa0inkW8cI6kbnPqaoSEQxFz0HFX7ht0pI9KAI+1VL1ysIUd6tVTvh8intmgDOK1GVHpU5FMIoArlPQVGyZFWivambMkAd6AKghZ2woq7BZhMFvmarEcITAxU6r7UAMSMAVZtrWe7nSC3ieWVzhURckn6V0fhrwPqXiHbPj7LYk8zyD73+6O/8q9f0Hw1pugQbLGAByMPO/Lv+P8AQUAcZ4Z+GKxlLrXSHYcraIeB/vHv9B+dekwwx28KRQxrHGgwqIMAD6U8ACloAKKa7pFG0kjKiKMszHAA9Sa4rXPHiRs9tpIWRxwbhvuj6Dv9T+RoA6TW9XsNKsZDeyD51IES4LPn0H9eleBy6RaLumjt0EhHXFbNzePNM0s8rTSt1dzkmoWwFC0hnK3OmxuDvhVj7isyXR7Zs/uQPpXYywqc8VQltRjgUAcXPpMCMdqsPxquNLhY9W/OujvLciQ8VDb225+n4UxGDJpMSD+L86ItMgZhlCfxro7uzKr0NVre2JlAx+lAGhp2h2QjRvssecZyVzXQ29kkQAVVUdsDFNtYgkSA+lXEIHOaQzqfA0YXxLbnKqQj8E4z8vb3r1avAvtaqDyQytxg10Ok+PNR07bEzm9T/nnIeQPZuo/Ue1CBnrlFc9pHjLTNUCo7/ZZz/wAs5Twfo3T88V0NMQ0oCCPWuH8UfCrwx4mV3lshZ3R6XFoAhz7r0Nd1RQB84ap8D77Ri00AbVIBzmPhgPdOv5ZrlZtIhQsgi8l14IAwR9RX1wVB9j61zfiTwdpniKFxcRLFd4+S6jX5gff1FAHy+bJ4mO4ZHYip44OnFdHrug3WhanLYXiDenRh0cdiKzEhGcDpQBWS3HpVpLfFWY4D6VaSDnkHigCtHb57Vbjgzjip44eelWkioAzriHYob1NQZya0tRAS3X1JrMoAR0DoyHoRisoRHJ9jg1rVmwyK97cQ8ZzuFAAi4qdentUgizUggJ7UARKTUoPFPEGPWl2YoAaDS5oIxR9KADNHegcUdKAClpKOtABnNKBQBS/jQAtNZuKC3HFIq55NAAqknmn8AUZ21DJLgUALLLtzWbcT9cUXFx6Gs6WTJPNABLKT3quxzQzEmmE0ABNMJzSmkoASkpaSgA6UncUtFAHpXwQszP45e4xxb2rt+JIX+tfRdeIfAK0JudZvccBI4h+JJ/pXt9ABRRRQAUUUUAFFFFABRRRQAUUUUAFFFFABRRRQAUUUUAFFFFABRRRQAUUUUAFFFFABRRRQAUUUUAFFFFABRRRQAUUUUAFFFFABRRRQAUUUUAFFFFABRRRQAUUUUAFFFFABRRRQAUUUUAFFFFABRRRQAUUUUAFFFFABRRRQAUUUUAFFFFABRRRQAUUUUAFFFFABRRRQAUUUUAFFFFABRRRQAUUUUAFFFFABRRRQAUUUUAFFFFABRRRQAUUUUAFFFFABRRRQAUUUUAFFFYWveI4dKUww7Zbsj7vZPc/4UAX9S1W10qDzLh/mP3UH3m+grgtY8QXeqsVdvKtwflhU/wAz3rOu7ya6nae4lMkrdSf5VTaXPegCRpMcVEWzTd1GfegB2aM03NGfyoAdSU3OKM+tADiaQmm5oJoAQ00gEetKTSGgCNkDDFVLmwguFxJGpB7EVebHNNIBoA5O88IWEpJRDHn+6cVR/wCEGtN2WLkehNduyimlQcUAc5ZeFrG0IKwrn1Irdit0iXCjA9Km24pJHEaZP4D1NADWJBCJy56D+tSSMttBsU/MfvH1ohTykMsn+sbr7VSupck0AV5JNzEk1Fu96azc03fzQBJnNIRmkDU4HNAEZXmgKAeakxSEYoAytclMdtEgONzHP4f/AK6sWN+txboWPzKNrVV15C9ojj/lm2T9DWXZSMjAjkHqPWgDq8/rTJUEkRSqMVw0SgjLxd8dVq5FPHOuY2DD+VAGW+Uco3BFNJBrSuLZZ164bsayZlkt22yLgdj2NADzjFPhAL1AJAe9SwOBKBnrQBcC4r0H4f8AhCHU1Or6lHvto32wwt0kYdz7CuBAxXvHhExnwXpRi+4IyDj+9k5/XNAHQxoNoOAFAwqjoBUtNQgopHpTbi4htYHnnkWOJBlmY4AoAkrH1vxJYaJHiZ/MuCPlgQ/Mfr6D/PNctrvjt5hJbaSCkfKm5bhiP9kdvr1+hrhp7klmdnLOTksxySaANTxB4hvtblDTSmGFTlIEPyj3Pqfc1zU17LGT5i5H95f8KdJOT1NU5JNxwKAHtd71JByPWnRXbNImST2rmtV8Qw2Un2eH55s4Y9lrWifBB/GgDbLg1E2CeaqJOamWYHrSGVrq28zBH5UtpZbTkgYq2AH5HNWYlC8+1AFO6tA0Z4FUILPbJkj3rbYhkIqsyANQAeZswoqJrgDgGq8s3zkDpUJY+tAh8kjM5AJGasW8wh4HH9awdbuXtdLlmjYq6kEEfWoNC14aiPJmwJgMgj+KmB2sV2rY3dfXNb+k+JdR0pv9FuN8WcmKTlT+Hb8MVxSyMgqdL5Y8ZcUAey6X49sbtljvY2tZDxuzuQn+Y/zzXVRSxzRrJFIsiNyGU5B/GvnmPVFOFCl/oK2NO1nUbNw9iWgbP9/g/UdD+NAHuNNcZWuf8La3qWr2zPfWSxqvS4Q4Vz6AH8eRxW+xBBJICjkk0Aeb/FyyifS7C9IAmWQxZ7lSMj+R/OvIhkMK7v4k+KIda1GOxspA9paZy69Hc9cew6fnXDAbmA65OKANOOLgcVZCD05pseFQA9qDMq9+aALCKBUmQvUiqBu+u3t1PpVWe8Lgop47mgB1/c+fPhT8i8D3qrTc1HPOkMe6RsD09aAHTTLDA8jHAArmrS5ZtYSTP32wfxp+oX73JxgiMdBVfS033vmn7sXJPv2oA7KFN5ycVdWLjpVCzlVsc9a1VxgmgCF4woziq74B6VPLKOlU3bPOaAEOM03mkzmjNAC0ZppNJQA6lpBQWwtADsgA00nJwKbyTTwPSgAVad0xSEgCq804AoAfLKADWbPcccGmzXBOaoSS7iaAFllz3qAsTSFs0zNACk02lNNNABmkoooAKTNFFABSUtFAH0F8CbPyfCd7dH/lvdEf98qP8a9TrifhLZ/ZPhzpx7zl5j+LH/Cu2oAKKKKACiiigAooooAKKKKACiiigAooooAKKKKACiiigAooooAKKKKACiiigAooooAKKKKACiiigAooooAKKKKACiiigAooooAKKKKACiiigAooooAKKKKACiiigAooooAKKKKACiiigAooooAKKKKACiiigAooooAKKKKACiiigAooooAKKKKACiiigAooooAKKKKACiiigAooooAKKKKACiiigAooooAKKKKACiiigAooooAKKKKACiiigAooooAKKKKACiisXxHri6PZfuyDdS8Rqe3+0aAKviTxGNOU2lqwN0w+Zv8AnmP8a8/kmJZmZizMclieSabNOzu0kjF3Y5ZieSaqNISaAJGkyetN3ZOai3UZoAmozUW40b6AJc4pN1RmT1FJ5maAJt1Jmoi/0oL8UASZoLfWo9/OD1pd3vQA4tRnP0pmaTNADqSm54pM0AOPTrSUmaM0AIxCgljgDrTLdDNJ5z/dH3Qf51GwNxMIh9xeWPqfSrMriNNo7UAR3U3GO1ZM8mSf5VLcS8ms95M0AKz0gbB61EX9Kbvwe1AFkNipA9VA/U04OetAFwNSnmqwk96lV84oAqX33GDDcpGCPasFIvKkwDlSeGrpLpBIhwa5m6EttKWQZU9VPegDUgYrgg4qRkSRt/Mb/wB9OKyrTUYZG2htj/3WOPyrRWTn09qALC3FxB/rF85B1ZOo+oqxHPBdIQCGHdTVNZCrAqcH2odY5m3Mu1/768GgBZ9MRgWgbYfTtVCWOe2b94px2YdK0BJcwDtcR+o4YVLHcwzAgEZ7q3WgCG0u1lUKxw/869D8BeMYtG3aXqJxYytuWT/nkx9fY/pXnsljE3K/I3tSI00PD/Mo70AfTkMgESywus0DjKshyCPWuI8VaJr2o3DXVvdR3kIzsg27TGPQDOD9eprzjQvFmp6JJ/xL7tlQnLQv8yH8D/MV6Lo3xK0zUSItVhNjOePOTmMn37j9frSGee3Mt9C7RywhWU4K8gj8DWfJdTDrCfwNe7Xul6frlqskscN9CR8s0Z+bHswrhNX+Hs6bpNKuBOv/ADxlwrj8eh/SgDzw3Z3AFGGTjpRclxbSmP74Q7frirV9aT2MjxXMLxSr1R1wRUKnK5GDTEeSSTubjcxJO7JzXptvKHhRgcggGue17wr9ole6sSFduWjPQn29Kq6brU2nYtL9GQrwCaAOzDY709ZDyM8VnW99DcKCjgj2NWg2R1oA07eUEYPWp3mCKRWUj7SKe8xPegC7Fcc8nj3omlUAkdazxIc5zQ0hIxmgBGbLE+ppucU1nC81k6lrcFkhBYF+yjrQBF4puFXRpUyNzkAD8a5/wpDLLqyOgOyP5mP4VKLe81+4V5yYrfPA7ke1dhpthDZ24it4wq9z6+5oAulQ6bT0p0dui4+UU12CAKDkmur8N+D7/XQs5H2ayzzPIPvf7o7/AMqAMixtZ7y5jgtYWllc4VEGSa9P8PeB47PbcaqVmn6rbqcqv+8e59un1rf0XQ7HRrbyrCEIMfvJ35d/qf6DiuX8UfEqy0jfZ6OEu7vo02cxof8A2Y/pSGdbq+tad4fsvtGoTpEoGEiX7zeyivHvFXxB1DxAHtoAbTTzx5Sn5pB/tH+nT61zGo6neatePd31w8879WY9B6D0HtVUAscLyTTEOzU0O2LDv17CowMdMFh+Qp4jJOTzQA9rp2+6KQ9N0rfQdzUbSpGcLhm9ewqEuWbcTk+tAEzyl/lAwo6AU3tTCQFLE4UdzWbd6pxsgOB3cigC3d30dqNo+aTsB2rCubqSd98jZPb2qGSbJJJP1zTEj81PMkYRwjq57/T1oARUkuZdkY56knoB71MZ0hK29ucqDln/ALx/wqrLd+Yvk26FIc9O7fWtLS9NZ3DuOO2aAN7SFZkDOa15JgFxVGLESAKKC5NAD5HyajzSZpCaAFzRmm55pRz9KAFpQcdqQ4FMyTQA8segpACetAXvT+goAAOKRnCjrTGkC55qhPc+9AFie5xnBrNmuSe/5VBNOWqq0hPpQBI0mfWoic9DTC1GaAHUlJnNHSgAzQfWkoz3oAKT8KO1FABRRRQAHpRRU1pD9ovIIcf6yRU/M4oA+tfCFoLHwfo9sP4LSP8AMqD/AFraqK2hFvawwjpGioPwGKloAKKKKACiiigAooooAKKKKACiiigAooooAKKKKACiiigAooooAKKKKACiiigAooooAKKKKACiiigAooooAKKKKACiiigAooooAKKKKACiiigAooooAKKKKACiiigAooooAKKKKACiiigAooooAKKKKACiiigAooooAKKKKACiiigAooooAKKKKACiiigAooooAKKKKACiiigAooooAKKKKACiiigAooooAKKKKACiiigAooooAKKKKACiiigAooooAKKKKAI5547a3knlbbHGpZj7CvJNW1STVNRlupM4Y4Rf7q9hXWeO9YEVuumRN+8kw8uOy9h+P9K89eTigB0knvUJbmo2fJpm6gCYHml31CHFQ3F0sTQxk4aV9i/1/SgC4ZMCopbhYkLHJ9AOpNN3VGCJJsHqvOD/ADoAiIu7g5eXyYz/AAR9fxNH9nQHlvMY+rOTVoUv1oAgjgMJBikcY/hY5Bqwku7cO6nBqjeajDaYTO+dvuRr940+yWRIS0p/eudzY7e1AC6tdNZ6dLdL96Eb8evqKs2tyl3axTxn5ZFDL+Ncd401xFtf7Nt23zS/KQK6PRomtdItYD1jjCn8qANTNGajDUue+aAH5ozUC3ELttWVGb0BqTdQA7rUU8hVQi/fbgUrSBELMeBTLVDIxnkHXoPQUATxILeHHfuao3Nx15qa6nwCM1jzy5zzQA2aTk81WZ+abJJURb3oAk3cUm73qHdmjdQBPu78U4OagDe9KGoAshvenq+Kq7uwpwfFAFrzCetVLqBZVIIp4alLZoA5q90w5JAqnFe3dicffT+63+NdZIgYHNZ1xYJIDwKAIbXWYJ8AsUf+65/ka01kB7/SuaudMIJIFQRXV5Y/KGLJ/dbkUAdgHweuDSusc3+tTcf7w4YfjWJaa3BLhZD5T9MN0/OtVZQVHPPUe9AEoFxFzE3nJ/dbhhSx3cch2n5H/utwaarU5tk67ZkD+h7igBXjRueh7Ypm+SPr84phhlj/AOPaTzB/zzfr+Bpn2ld2yQGJ/RuKANrR/EWo6Ncebp148LfxJn5W+o6GvRNH+KNnd7YdetfIc8faYBkfiOo/WvIm2tTfMZR13D0NAH0XNZaf4g08MhttTtCOCCCy/Q9Qa4bU/h2Fdn0i52/9O1x1H0b/AB/OvOtN1q80u6Fxp93LbTDurYz7HsR7V6Ho/wAVkl22/iKyEg6fabcYYe5Xv+H5UhnHajpl1p8xt7+3kglxxuHX3B6Gub1PSGmRj5ayr9ORX0VCNN8Q6ex066ttStuphfBK/UHkH8q5DVvA1s7sbCRrObvBNkofoeo/HNAHz89hPaSFrSVkI6o3SrVt4imtmEd7GV/2h0Nd9rPh2ezYLqVkybvuyqPlb6MODXMXmgNtJh2yof4W60xFi21S3uFBSRT+NW/PQ/xVxk+jvBITGZIHHbHFMH9qRcLMrD60Adr5yjvUM2oQwqWdwPqa5AyaqwwXUfjTV02e4YG4nZv9laAL1/r8ty5gsVJJ43VDZ6XulElwTLKTwOoBrV0/RJAuI4vLT+81b9vaQWSZGC46uaAK1lpxVQ83AH8IrUginu7mOzs4HmnkOEijGSf/AK3vWponhXUtfdZ8/Y9Ozg3Mi8v/ALg7/XpXqnh/w/aaXatFpsHkxkfvbmU5d/q39BxQBzvhn4ewWcqXmtbbu642WqHMcf8Avf3j7dPrXa6rq+neHrP7TqtwkSgYjgT7zY7Kv+RXHeJviZp+iB7LQgl7eY2tck5jQ+394/p9a8m1DU7zVrx7u+uHnnfq7H9B6D2pDOr8U/EPUfEO+2gzZ6eePJQ/M4/2j3+nSuQ3e9RqcnAzntipVAU/N8zenpTEORSwyThfWpgM8KCB+ppgyxye36UyS7SMER4Y+vYUAWcpGgLED096ry3Jk+VflX0FVTIzNlmJJpyqWBOcDuaAHj0pJriO3XMhyeyjqaqXGorECkHLf3qyZZWLEsSSfWgCzdXr3B+Y7VHRe1UHkyQByTwKVFediIwMDqx6D60x7uO3ylt88nQykdPoKAJGEdr89z80nVYR/WqjyTXsoLduAoHAHtRDbyXEmTk5PJNdBZacsIBI5oAr6fpWMPIOa3olWNcDimqABjpTqAH7qM00HtRQAuaOtGKU+tABjvQWGKaT2FAXNAByacFxSgY4pGYKKAHdBUEk4X6VFNcAVmzXJOeaAJ7i6PIrPlmzmo5JT1qAtmgB5eoy1ITmkzQAtLmm5ozQA/NLTc0uaAFJpKOlJQAtFJ2ooAXtRRRQAlbvgyzF/wCNNHtjyHu0z9Ac/wBKwq7/AODll9s+Idq7LlbeKSUn0OMD9TQB9L0UUUAFFFFABRRRQAUUUUAFFFFABRRRQAUUUUAFFFFABRRRQAUUUUAFFFFABRRRQAUUUUAFFFFABRRRQAUUUUAFFFFABRRRQAUUUUAFFFFABRRRQAUUUUAFFFFABRRRQAUUUUAFFFFABRRRQAUUUUAFFFFABRRRQAUUUUAFFFFABRRRQAUUUUAFFFFABRRRQAUUUUAFFFFABRRRQAUUUUAFFFFABRRRQAUUUUAFFFFABRRRQAUUUUAFFFFABRRRQAUUUUAFUNX1SPSrLzThppHEUMZ/jdjgD/H2q8zKilmIVQMkk4AFeVHxCfE3ja6uoTnT9HtJpYAejOFxu/En9KAMXUrp7nUbiaSTzHZzlvWqLv700vxULOKAHM/Wk3d6iLc0bs+1AE24HvXPeJ7hrR9Nuh92O45/EGtvcap6pp8Oq2T2s+Qp5DDqpHQ0AWrW9iu4g8TZzSzReYQyOUkHRhXGqmpaE5V1MkXaRBkH6jqKtx+KsL6ke4NAG8zaooxHJA3uymojb6ncHE19sT0hXB/M1gzeMGUfKg/75/8Ar1lXXi3UrjKwkr/uDmgDtFi07R0aaWRVY8s8jZY/j1rmdb8cbg1vpqk548z/AArnxp+p6pLmUvz1LHNdHpHhaK3IklG9/U0AU/DeiTXN2L+9yzZyob+dehRnCACq1vAsahVGMVZAPTNAEceoW8t5Lao4MkQBYfWmXN3Es6xTMyKec9mrmNY0u9sdTm1Ox/eLLguncEfzqCDxSjjyb+Ihh13DP/1xQB2oWGWMABWXtikMcif6uTj+6/IrBtpYJRvsboxn+7nK1oQ3l2G8qWIFiOHU8GgCwiSXN5l2YIoAKZ4zV+aURpgUyFBBCBnnvVG6m60AQXNxWdLJuNOmkyaqswoAVnGajLU0tn/69NJoAfuoziowaUNQBJuo3UwN70Z4oAl3GnB6hzzS7sCgCYNT91Vw1ODYoAm3Uh5pm7FLkdM0AMeMN2qlcWKOOlaGaaQOtAHM3OmEcgVWiuLywOI3JTurciuqeMMMYFUbiyRwQBzQBDaa9DKQsw8lvfoa1o5lZQQcg9CDmuYudOIyQKqxS3Vi37pyBnlTyD+FAHbBxxinsVlXbKgdfRhXOWniBGwlwvlN6jkf/WrajnWRAysGU9CDkUAD2TLzbS4/6Zuc/rUDSPExEyNG3v0P41dD8U7IZCrKHTuDzQBms2R600TOnAOR6GrMmnIctbuYz/cbkGqM6TW5xPGVz3HIoAt2uqXFlcrcWs8ttOhyrxsQR+Ir0HR/jDcIEtvENkl/BwPOjAWQe+Oh/SvK2kwuRzTDJzzx7igD6V0270bxJbM2h6lDcqwy9nPjcPqp/wA+9YGr+DLOWVvLV9OuP7uC0bfh1H4ZrwdJZoJVmgkdJFOVeNiCDXoOgfGbV7GNbXXLZNWtBwWk+WUD69/x/OkMl1bQr7S13XduHgJwJl+ZD+Pb8axWs7J+tun4CvWNL8WeD9eXOna0thM4wba8+Xn054P5mrVx4Itb9PNSytJ1PIktpdufyIoA8b+wWQOfIX8alVLeEZSNEx3xXpr/AA2tieLK9X2WcY/lVi3+Gtkrbm0ppP8ArvcFh+WaBHmFotxqdyttY28txM3RY1/UnsPeu90PwTb2ciT6oFvbwkbLZOYkPv8A3j+ldLKmieHbUx32q6dpkAA3QxMAx/Acn9a4vX/jLpmmRva+FbM3ExBBvbhcKD/sr1P44H1oGd3q2o6X4ZsxfeILtE+X91apy7+wX/I968f8WfEvVPFG60t1+w6Z0EEZ5cf7Z7/TpXDajq1/rN+99qNzJcXEhyzuc/gPQe1MjbFMRoI+RUysAMlgB6ms/wA/b90bj+lSIzM252yfftQBoLLk4TIHr3qQyJEuWI9h3rO+1beEGT61HvydzEk980AXpLlpOPur6CmKckADPtUcMTyDdnag7miW9jhXbAMt3c0AWHaO2G6Y89kFULm+kn4+6n90VVkkLkszEt3JqNQ8rbUB46nsPrQANKPxpCixoJbliinog+83+FMe5iteIsSzf3z91fp61UxLcy7nJZieSaAJZ7uS4AjjXy4R0Rf6+tT2mntKQWHFWLPTwMM1bMUYjHQUANtbVYVGBzVscDFMHFL36UASZxil6mmCnqOlACinAcZoHHek34oAUnHNNJJPFHJp2MCgBAtPAxSZx1qGWYLQA+SQAVSmuMdDUU1z15xWfLMSetAEk1wTnmqbuSaR3JqMmgALZNJnmkyBSdO9AC0Un8qO/WgBaKTNH4UAOpQaZmnCgB1HekzS0AHaiiigAo+lFFABXsvwDsCbzV9QI4WNIQfcnJ/kK8ar6S+DGkNp3gZbmRNsl9K0w91HC/yNAHolFFFABRRRQAUUUUAFFFFABRRRQAUUUUAFFFFABRRRQAUUUUAFFFFABRRRQAUUUUAFFFFABRRRQAUUUUAFFFFABRRRQAUUUUAFFFFABRRRQAUUUUAFFFFABRRRQAUUUUAFFFFABRRRQAUUUUAFFFFABRRRQAUUUUAFFFFABRRRQAUUUUAFFFFABRRRQAUUUUAFFFFABRRRQAUUUUAFFFFABRRRQAUUUUAFFFFABRRRQAUUUUAFFFFABRRRQAUUUUAFFFZniDWrfw/otxqNwRiNfkX++x6CgDi/il4s/s6x/sSzkxc3C5mYHlI/T6n+Vcr4CiCeGvFF1j5hAsQP1zmuJ1LUbjVdSnvrp980zF2P9K7/AOH67/BHikDrsVvyVjQBgM/FRM9IzcVGW5oAUtS7qjzSg4xQBJupQ1RiloAV1DAg85rNn0i1mOZIUJPfFaVGM0AYf/CP2ec+Qv5VYi0i3jxiMD8K1MUoFAFeO2RAAFAqR3ETxIB80jbR/M/pUoFVCfM1hEz/AKqIsfqTgfyNAFuR3J2RgA/3j0FIIpe9w+fwp6dWPqafQBEWkAxIgkHqOv5Vm3mjWOoAgqpb0IwRWv8AhTXiSQfMoPofSgDibrwxd2L+ZZTsvsx/rXW6JaSR2yPcNukxyfelZHaUQhyynlge341oMyxRbV4oAZczBRise4lJPWpbqfk9KzJJCT60AJI+e9QMcc0jsc81HnmgBx6ZpvWkzRnHSgBx4pM/rSZ4oz2oAUHAxS7uabxjNH1oAeG5pc1H2oBPagCWlzio88UuRQBJupQ1R59KM8UAS7qUtmos0E4oAkJzTGANJnijOKAIpIwwqjPZrJ2rRPPsKYehoA5u5sCp4FVopLmyfdC7L6jsa6WSMMATVKa0V88UAJa+IlJCXSbD/fXp+VbcNzHMgeNwy+qnNclNZEduKrI09pJuhdkPt3oA70OCc5/Knh8LtIBU9j0rlbTxFghLuPH+2n9RW9BeRTqGikWQeoNAC3Gl282WhPkyenVTWTd2Nxa58xMr/eHIrdEgPtUiykKRkYPUdqAOR3EcrxSGZW/1i/iK6O40y1usnHlOe69PyrFvNHurYFtoeP8AvLQBUMMb52vj2NSQS6jZtutLueE+sUpU/oaqMMUgkdeQx/OgDdXxZ4tiXaPEGrAen2yT/Gq1zr/iC9BW61fUZ1PUS3LsP1NZouZR3z9RTheS+1ABslZvmDEnuakET56Uz7XJjtR9pkPcD8KALCxkDFScD7zfnVPzHJGWNKDzQBdEqr05oMjMME/hVdTkgDkntV+CzAXzLhhGvp3NADYleVtqKSfarm2G15lYSSD+AdqhkvQi+XbL5aevc1TZ+eeaALE93JPw3yqOijpVVpABQA0udnAHVj0FQSXkVvxBiSX/AJ6EcD6CgCZlVED3DlF6hR95vwqpPevMvlRjyov7o7/U96rkyTSFnYsx6k1dt7TcRuoAhgtmkatm2s1QA45p0MKxjAHarajFAD0G3pUgNMHWpAKAHDmnqMmhV/nUgGKAAL6044FITSdaADOe9LilAozj0oAXAxSM+B2pjyAfSqctzjOKAJpp9oPNZ81wT3qKacnIJqo8hNADpJc5FQMxJ5ppYGmE5oAUmkzSfWigAzRRSZoAXNH0pKKAFzRmkpaAClzSUUAPzS5ptKKAHUUlLQAdqKSl60AbXhPw9P4o8SWmmQg4kbMrf3EH3j+VfW1rbRWVpDawIEhhQIijsAMCvPvhF4NPh/QTqV5Htv79Q2COY4+w/Hr+Vej0AFFFFABRRRQAUUUUAFFFFABRRRQAUUUUAFFFFABRRRQAUUUUAFFFFABRRRQAUUUUAFFFFABRRRQAUUUUAFFFFABRRRQAUUUUAFFFFABRRRQAUUUUAFFFFABRRRQAUUUUAFFFFABRRRQAUUUUAFFFFABRRRQAUUUUAFFFFABRRRQAUUUUAFFFFABRRRQAUUUUAFFFFABRRRQAUUUUAFFFFABRRRQAUUUUAFFFFABRRRQAUUUUAFFFFABRRRQAUUUUAFeD/E/xT/bOtf2fbSZs7MleDw79z+HSvT/iB4h/4R7wtPLG+25uP3MPqCep/AV85M5ZiSck9SaAHqa9L+GBabRfE9mv3pLXKj32sP615mtej/B64Efia8tm6TWp49SGH9M0Ac4xqInmrF5A1rdz27j5oZGQ/UHFVTQAuaVTTKcDQA4GnhqYOlPAFADgaWkApQKAFxQB6UAHvSg0AGKz9ObzdU1J/wC46RfkM/1rRrH0B91xqwPUXZ/9BFAGjJHOrEwSAZ52sMio/tF4h+eFXH+yau44qvexxy2rrLL5aEctuxj8aAIxqKA4kjkT6rxUn223ZSUkVj2FZ8N2beMxyCNI+FgYnO+prGGWZ1+0LH5ik7igwKANK0jKoZH+83NRXUuAeasSsETArIuZckjNAFaeQknmqkjZ5p8r5NQE5JoAYT6000pOabxQAmaUdKQe9FAC0oJH403tR1oAf2oPFMz2pc8c0ALR70mQfpSigBc5BozSUlADwaUHjio85pc8/jQA8Gim5/OjPagB27vmkzSdaQ0ALSZzSZpD0oAQ8/So2ANSdqjPIoAgkjBycZqlNag54rRYetQsoP0oAw5rXFQL5tu4eJ2Rh3U1tyR5yMdaqSwUATWniKRCFukyP76cH8q3rW+huRmKQP7Dt+FcfJBUIEkL742KsOhBwaAPQA49qeJCASK5G08QTRELcr5q/wB4cN/9ety21GC6UeXKpPp0P5UASXVrbXAJkiAc/wAS8Vjz6SFb93MP+BCtiSTrVWRvm6fnQBivY3CE/KGHsahaOVesbflWs/WoHJFAGdyOqt+VAYj+E/jVlyT3NV3J9aAF3YHYD3NPWRAfmyfpVY0A4oA0o7sp/qkCj171IJi5yxz7ms5G6Yq0g2rukYRr/tdT9BQBOW52jJJ6CmytHbjM5y3/ADyXr+PpVaW/wClspUHq5+8f8KphSxyTknuaAJ57uW4AX7kY6IvSmRxFqkjiJ7VdhixjigAt7fAzitCNccdqjjXgcVOoPWgCVR0qVRmmIParKR8880AIiHOanRMU5VA607NAB0pM54oxmnYxQAgWncUZqNnAFADy2O9QyTAA81DLOKozT89aAJprj3qjLMWPXmo5Js/Sq7OTQBI759zULMT3ppPFJnNACknNJSZpCaAFzmikzQKAClpKKAF70UUUAFAozQKAFFFFRSS7B8oyaAJaPNQHBYfnWXO08vVzj0FVgrqelAG+rA9DTu9Y8UskXrir8N0HGD1oAs16L8J/BJ8Sa2NRvI86bZMGII4lfsv07mua8GeFLnxlrqafbOI41HmTSn+BP8a+p9E0Wy8P6RBpthGEghXA9WPcn1JoA0AABgDAFFFFABRRRQAUUUUAFFFFABRRRQAUUUUAFFFFABRRRQAUUUUAFFFFABRRRQAUUUUAFFFFABRRRQAUUUUAFFFFABRRRQAUUUUAFFFFABRRRQAUUUUAFFFFABRRRQAUUUUAFFFFABRRRQAUUUUAFFFFABRRRQAUUUUAFFFFABRRRQAUUUUAFFFFABRRRQAUUUUAFFFFABRRRQAUUUUAFFFFABRRRQAUUUUAFFFFABRRRQAUUUUAFFFFABRRRQAUUUUAFFFFAHhXxh1c3niaLTlbMVnEMgHje3J/TFeeZzWn4svDfeLtWuCfvXTgfQHA/lWSpoAmXrXW/Dm7Fp4605iflkZoj/wJSB+uK5Fa09DujZa/p9yDjyriN/yYUAdX4xtzbeLdTT+9MZP++vm/rWAetdn8S4PK8WGQD/XQI/8ANf8A2WuMPWgBDSikH0paAHjmnA0i08CgBQacKQDtTgKAFpelNpwFAABxWBobeXrmsW5PJlEg/ECugFcxdP8A2b4yimPEV3EFP1HH9RQB1FRTwR3EJjlXcp7Gpeo4oPTrQBjNHJFMUlw+SPICrwgFa9tF5MIJ+8eTVCytT9qkdpXkG4kFjn8qvXEoVMZoAgu5+vNZE0m4kVNcSZJqjIxxQAx2qInilY8HkVGT1NACmk9aSjIoAXjPWj2pOSaMUAFFGB1ozQAUZzR6UmOaAHZozjvScd6SgB+aKb1HNLmgA7UuR2pM0UAHtS5xSDrR60ALkAUZpuRQaABjxRzikJ4o4zQAlNIyaceKaaAGmoz1qQjOKa3B6GgCEjrULL9KslcZ5qNgT1AoApvHnoKrPDkHI5rQK5/ConXvQBlvFUXllTkZBHcVotH19KhaKgBI9TvIgAZN4H97k/nU66urcSRsPdTmqjR1GY6ANP7fA4+/j6imm5iPSRfzrMKUmygC+0qH+IfnUDOPUfnVfbRtoAkJB/iFAKDrk/pTAtOC0APEzD7gC+/U035mOWJJ96cqVMiUARrHmrCR56UqR1YUdKACNMVajX2pir+VWI0zg0AORTxVlEOelOihJ7VbSIIBQA2OICpwAPr6Un0pcZ60AHWlAFHSkzQA7igt7VGZB61Xkm255FAEzygVUln96glnyaqyS55oAklmJ78VVeQ4prPnPNQs1ADmbNMJ600n86aTQAuaCcU2jNADqTNNozQA7NGeabRQA6lpuaAaAHZopM0A54HJoAWpYoXmPyjj1PSpILcN80n5CtAFQMAAD0FAFYWaovPLetVJYcHpWnnmq8q55oAzPJB7Un2cZ6Vd2c0rLx0oArQwAthug5P0qQqrMTsUenFSEbExjluT9KaKAPVvgMwXxTqCjjdZ/wDs619AV8+fAlHbxdeuPurZnd+LLX0HQAUUUUAFFFFABRRRQAUUUUAFFFFABRRRQAUUUUAFFFFABRRRQAUUUUAFFFFABRRRQAUUUUAFFFFABRRRQAUUUUAFFFFABRRRQAUUUUAFFFFABRRRQAUUUUAFFFFABRRRQAUUUUAFFFFABRRRQAUUUUAFFFFABRRRQAUUUUAFFFFABRRRQAUUUUAFFFFABRRRQAUUUUAFFFFABRRRQAUUUUAFFFFABRRRQAUUUUAFFFFABRRRQAUUUUAFFFFABRRRQAUUUUAfJ2uKY/EWpIeoupB/48aqDitrx3amy8d6xERgG4Z1+jc/1rDQ0AWFNSodrAjqDUKVKKAPVfiGPtEWhann/j5sh+mG/wDZ64Y12+u5vvhn4Zvm5MX7j9CP/adcSRQA3FOApAO1OA70AOFOFAFPFAAPenfhSDrTse1ACjpS4pAOaXpQAm2sPxVZPcaYLiIEzWzeYoHcdx+VbuT0pGAKkEZB60AZmhaiuoaejbsuowau3UhWMIv3n4FckVk8O+IAiAm1nOYwP1X8K6i2BuJzOwwOig9qALMSC3gAHWqNzL1Gat3EuB7VkTyZPWgCCV8mqrnnrUjtUBNADTmm9uacaafagAODyKT6Ud/eg0AGeMUZwetJ2o6/SgBc/wD6qXPtTaM8cGgB38qQmkJzRQAdfSl5pP1o7UAKODRmkx+VBGM0ALmlzxmmijPagB3UUdabmlzzQAvFJ9KXPFIaAD3pKX69aSgBKP6UGk7UAJ15pCOCKWkzzQAwjjFNIyakNNxQBAVyeaYyc9e1TkU1lyKAKjJmo2SrjL81RMmOtAFNo+KiKVdZc1GVoAqGOmlMVaKU3ZQBW2c9KNlWNlJtNAEOynbalCGnBc8YoAYE55qRVIpQvrUqoTxigAVeM1MiZxinxW7N26VehtQpBagCGGBm+taEVuFHIp6hV+6Kfn3oAeAB0peppgYUu6gB4pd2OtRF/wAaY0uO+KAJi/vzUTy4NQPNxzVaSbJ4waAJ5J+vNVJJt2eaiklwetQNJQBI8lQM5zTSxqNmoAUtz70wmkJpCaAFzmkzxTSaCfagBaQmkozQAtGcU2jdQA7NGaZnvRmgB+aNwpgbJwBk1IkRYgmgBFy544HrVmGLB46mnxQevFWVQKOmaAERDx2qXpQAacEJoAjJppbPFTMmahYEGgBhFBGRT+opMdqAIJDlz+VN70r9TWjoGjXPiDXLXTLRSZJ3Ck/3V7k/QUAe0/ArRGttFvtYlTBunEUR9VXr+p/SvW6p6Tplvo2k2unWq7YLeMRr747/AInmrlABRRRQAUUUUAFFFFABRRRQAUUUUAFFFFABRRRQAUUUUAFFFFABRRRQAUUUUAFFFFABRRRQAUUUUAFFFFABRRRQAUUUUAFFFFABRRRQAUUUUAFFFFABRRRQAUUUUAFFFFABRRRQAUUUUAFFFFABRRRQAUUUUAFFFFABRRRQAUUUUAFFFFABRRRQAUUUUAFFFFABRRRQAUUUUAFFFFABRRRQAUUUUAFFFFABRRRQAUUUUAFFFFABRRRQAUUUUAFFFFABRRRQB4J8a9NNt4qtb8A7LuAAntuU4/livOozXvnxk0j7f4NF4ikyWMokz6K3Df0rwGI0AWk61MOnvUMfWp8UAeopm6+DFiR/y63Zz/303/xdcWR7V2uhL5vwZ1Ef3LrI/wC+o/8AGuMxQA0U8DFNA5p4oAUCnjrSCngCgAFOFGKXFAB3oNGOaDmgAIpDRTZHCIWY8AUAUdQijneKNkDMG3A4+7VxQIYQB2qtaKZJGnfqTx7U65lwOtAFa5m561myNmpppM1Sd+poAaxzTCenahiMU05NAB3pMUHikzzQAcZpMUoPtmk7UAGeeaTnHSj60pOSKACj+dHajHQUAA+vNIT60oo/WgAxRzijjPFGeQaADtQKM/rR2oAOgpKKPTNAByRR60dTRQAoIozxTc80ueaAF+tFJmjpQAYpD2zS8f4UdR70ANIpDTuRSH2oAb2oxx2+tKRxSZ496AGnFNIJ6U8gimkd6AIyuetMI4NTEDFMINAEJXB5phXNTkU0jFAEBX2puz2qxigqM8igCv5ftR5We1WQuRzxTgvTFAFUQ08QGrHApC4FADUg6ZqwiRpnNVvNJ6GlDEjrQBdWXH3RTxJnvVRWP51IG4B/pQBbWSpBJVRW96USGgC3vpN/vVbzMc54pjS4GKALLS+mKgeb86gaUVC0n/1qAJnl96geT3qNpP8A69RswI4oAczHFRluaaWppORigBWPNMJpM0hPNAC5pCaTNNJ+lAC5ozSZpM0ALQTik7UE+9AC5FJSZqSOB5fujA9TQBHn9akWJmIzwPSrUdqFxgc+tW0gwMtQBUjtycYGKtJGsY9TUmQOAPypoGTQAo+lSKue1MH3sAZPoKkABEm3EkiD/Vqf0NAD0XPTmpglQHd5UdzvMSxjLxleKsea7PEY4vMicfMynkelAAY8ioJI+KvFPUdKidaAM4jDUVPLHUPOaAKr/eNfQfwb8Gf2Po51y9ixe3q/ugw5ji/oT/KvMfh14RPinxZGsyk2Ntiac+oHRfxNfTyqqIERQqqMAAYAFAC0UUUAFFFFABRRRQAUUUUAFFFFABRRRQAUUUUAFFFFABRRRQAUUUUAFFFFABRRRQAUUUUAFFFFABRRRQAUUUUAFFFFABRRRQAUUUUAFFFFABRRRQAUUUUAFFFFABRRRQAUUUUAFFFFABRRRQAUUUUAFFFFABRRRQAUUUUAFFFFABRRRQAUUUUAFFFFABRRRQAUUUUAFFFFABRRRQAUUUUAFFFFABRRRQAUUUUAFFFFABRRRQAUUUUAFFFFABRRRQAUUUUAFFFFAFLWNPTVtGvNPkAK3ELR8+pHH618mPE9tcyQSDDxuUYe4OK+wK+afiVpn9l+PdQVRiOcidcDj5hk/rmgDnI+gNWQKrxVaWgD1XwoM/B/Vwf+ez/ySuHPFd34RGfhFq/H/LWT/wBBSuGoAbingUmKcKAFFPHHWkA704DAoAUUo6UCl6GgA6ikNFJ9aAENUbtzJKtuv1arU8qxRM7fhVWzQ8zP95uaALBxFEFHGKzJ5Mk81auZetZkz5oAhkbPFV2PP0p7NnIqFu/tQAjH3pmePenEZ70nTigBOfSj6UHr9aTP5UAKKQE0fzozQApPSko6jFHSgA7daXpSZpe9ABSd6XHOKrXl5HZxb3PPYetAFg0dq5uTXp2f5FUD3q7Y64srCK5QKDxvTt9RQBr9qBihgQSMg+9IKAF/z0oo70lAC5opM5oxQAtJmlo/GgBOlGOeaXtmkoAM0e5pADij60ALnI60mD6UGigBOaTFLmkHNACEmkzQTSGgBDTT15pT0pOTQAhGKQgUpNIcYoATA+tH86N3rTN2KAHlgMUhYD1qJnz0phbNAEjP1pm5s8mmZzTh9aAHAcdKkXH4VGDz61IDgZ/OgB6mnhuc1ED6fkaXdxz1oAl3DBPagyYwag8zn6+lIXNAExcf/WpjSd6h3mml+aAHlwT1pjSHqKYWphbNADy5Pc0zcBTS1MJHagB2aaTSE00mgBxNJmm5ozQAtITzSZoNABRmikoAM09I3lbaikn2q1bafJNhn+RP1NasUEcKbY1A96AKEFgFG6XlvTtVtYc4AFWRF1LfhzTXbCkDigCPaqfWombPNK78nnPpmoixLbVGT/KgB2doyxAFPRHkI6qv6mpILQsPMkOAP4iP5CrRZNmxFwvcnqaAKzQSbF8hwhDZOR9760+SJ0lSaGFWYkb8cHHtTxG8fKHI/uk/1qeN1f5eQ2Oh60AQMI7WUzvI+2ZgCp5Gf6U/a5eSEoqW8gwjocfWpILQQwtGHLqSSA/OKYlu0saR3bL50Z3KUOD9cUAOtnQFrbzGaSLj5hgkVK65FQi4e4h3WyhZEbDrIMHH1qypDxq/GCOxzQBUdc5FVXQqfatCReaqyLkUAet/AzUrdf7U0xgFuHKzqf7yjgj8M17LXyd4Z1ubw54itNThJ/dP86/3kPDD8q+qrO7hv7KG7t3DwzIHRh3BFAE9FFFABRRRQAUUUUAFFFFABRRRQAUUUUAFFFFABRRRQAUUUUAFFFFABRRRQAUUUUAFFFFABRRRQAUUUUAFFFFABRRRQAUUUUAFFFFABRRRQAUUUUAFFFFABRRRQAUUUUAFFFFABRRRQAUUUUAFFFFABRRRQAUUUUAFFFFABRRRQAUUUUAFFFFABRRRQAUUUUAFFFFABRRRQAUUUUAFFFFABRRRQAUUUUAFFFFABRRRQAUUUUAFFFFABRRRQAUUUUAFFFFABRRRQAV4v8cbDZfaTqAA+dHhb8CCP5mvaK84+NFmJvB8Fzj5re6XH0YEH+lAHh0I4q2tVIQODV1R+VAHrXhZPL+EGosf42lP/oI/pXB/hXo+ixhfguSP4opWP/fw/wCFec0AN704CkApwAoAcKcOlIKdigBfSlxzSUUABHammlNVrufyICw5Y8L9aAKtwxuLoRL91Ov1qy5CR46VBZxlE3t1PWo7mXnrQBXuJMsaoyPUkr5JNVmbJzmgBhbP/wBamn8aM+tNJ5oACe3Wk96OtIetACdjSd+nNKeCaSgAoPvSdqXjNAADijkHrRSZ44oAcc96TPNJ3odlRC5OAOtADZ7hLeIyOQAK5G/vXvJy5Py9hU+qX5upSqnEa9BWaTQAZqSINJKsaDLMcAVFXT6Npn2VBcTD98w+UH+Af40AaqrsRVJyVAB/KopbqGFwrtz6DmkubhYI/Vzwoqumn3z2Mmo/Zpmtg+x5wh2BvTNAF+MrMheFxIo67eo+oo/GscZWQSIzI46Mpwatx6g2cXSZH/PSMc/iP8KALvsaKFZJE8yJ1kT1U9Pr6Ud6ADvS02jORQAvWjPFHWk7etABSHmlpOpwKADtR3oOOlIetAB3pCSKPem55oAUnjpTKCaaTQApNNz+VBPNMJoAdkYphbvTWao2ftmgB5bP1pm88/SmFj60zt7UAOLHPvQOvXntTQeeeadyB60AOzgH/OaUdQDwKbu9KAT360ASryaXPHHWogwwfpxS5yaAJCevYkU3dn61Hu60hb3P40AP8ymlvpTCfam5NAEm7nGaYW/Cm7u1NJJoAfu6803OaaSeKQtmgBc0maTJpCaADJpM0c0lAC96SjNJQApNFJmr9ppkk2Hkykfv1NAFWKGSd9kalj/Kte102ODDy4d+vsKuRQx28YSNcCpAuRknigBvXgDFLhVFKzheKqySE89u9AD5Jars+TzTHkySFGWoKsF3Hp3NAFaa8iS4WBnwSMsfT0FWGDLDug2s3UehrNvtMMzmaI4c9R2NVIbu70+QK4IHoelAHRxaitzIFlPlyD+BuPyq4o71jQ3lnqChZgFf3/xq0q3doMoftEPXB+8P8aANRQaeUWQAEc9iO1VbW9huDhWw46q3BFXRQAimSLr86eo6ig28E8yzj74GAVOOPQ1KBmkMQJLIdjeo7/WgCG4R4pzO06rb7cOjDimRtFaSpbxxP5TjKtyVB9ParLEOhinUYPr0NJJag2phhYxdwR2oARlwSKrSLU8UqyKY/MDyxnDEDHNNdc9aAKMi+nWvaPgx4p8+1l8O3Un7yEGS2yeq/wASj6da8dkTtT9N1G40XVrfULRys0Dh1/w+lAH11RWZ4f1u28RaJbanasNky/Mv9xu6n6GtOgAooooAKKKKACiiigAooooAKKKKACiiigAooooAKKKKACiiigAooooAKKKKACiiigAooooAKKKKACiiigAooooAKKKKACiiigAooooAKKKKACiiigAooooAKKKKACiiigAooooAKKKKACiiigAooooAKKKKACiiigAooooAKKKKACiiigAooooAKKKKACiiigAooooAKKKKACiiigAooooAKKKKACiiigAooooAKKKKACiiigAooooAKKKKACiiigAooooAK5H4mwCf4f6nkf6tUcfgwrrq53x4nmeBdZX/AKdify5oA+aoBkCrqiqsGNoq2tAHtCRtZfBiJG4LQKw+jyZ/k1ea8V6d4gkWD4VafEw+aS3tkH1Cqf8A2U15j7UAJinD1pKUc0APAp1NHSnDAoAUUh60ZxSE0AIay3b7Xd4H+rTge9Wb+fyotin534HtUdtH5UWT3oAfK2xMCsyeTJNWLmXPGazpXz3oAiduf51ExpW5+lMJoARm496aeOvFKeBmmZ6UALnJpDQfakzmgA/lR3o479aO/XmgBPal7daKOtAB1oHHejmjn1oATOB1rA1jUd7GCJvlHUjvVnVtR8lDBE3zHqfSucYknJ60AITTTSmtDSNN+2zeZID5CH5v9o+lAFvQ9M3kXc6/KD+7U9z61uzzLBEzuff605mWNCeFVR+QrFmnN7Pu/wCWSn5R6+9AGnoWnHX9dhgmuYraOQ5aWVgAiDkn647V9A3Nhodl4ds7W5TGk2Ki4azUfNKx+4HHdj129yfavnWKzuXtpLmK3laCIgPIqEqpPTJ7Vv6R441rR7ZoIZUlGS0bTLvMbkAbwT3wMDOcUAdFr3gwPpes+JdRMOlOCr2+mwqCU3H5Q/oSO1cLe6XeafFaS3MJRLuETQnIO5M4z+lehXev2Hivwnp1lq3iAwm2Jmv3aLM078hVUD72B3PqKf478SjQp7XRtKs4E8vToojczxh5ghUnbzwOvb1oA8tRmhuI5YjhiwUgfxAnGDWw3XFU7S25WZx05Qf1q3+FACZpSeKDSE5FABS568U2jtQAvNHekBoz3oAU00nmkppNACk01j3pCcUwtQA7NNY9OaaxphbjmgBzH0qNmx600tgHFRMc/QUAOLc9aYWpu49zmk/DrQA4n0ox26UhPeg9z3oAdyBz2pAcCmn3604EcUAOGBnmkJ9+9ITx1yaac0AODZPpS7qjB6/zoBOOcUAPLep4ppakJ688mmZ+lADyaTOKZnmkJzQA8nApM03NJn3oAXPek60Zo60AHWg9KSigAzRRSdKACnxQyTPtjUk/yq5Z6bLcEM+Uj9e5rbhgjt02xrtH86AKdppccGHlw8nX2FX8E9BTguevFBYKOORQAmAo561FJJ2FI8mTxVZn4oAc75z1zVcsXBbO1B1Y1T1O7aCIBThnOMjsO9WosshDhWidQEwcY/xoAV3EEKyqhdOGIHcd6sLdrdgGNhsHRB2qGFfLkaLyyqAfKeuf8KiNtHLO4j3Qyr0YDrQBZa25JjO327VFJAki7LiPGfXp+dC3U1sQt0mV/wCei9KvxtFOmVIdT+tAHO3WiOn7y1b/AICajtdVurCTy5lOB/C1dIbcrzEwH+yelQT2sNyPLnjw3bP9DQBHHNZaooZW8uYdCDg5qys15Y4Ey+fCP4l6j61hXWiXFsxktWLKP4e9Psdemtm8q5UsBwQ3UUAdVbXUNwm6Jw39KsjpWLGlrfkTWkvlT/7PX8R3qdL6e1YJfR/L0Eqjj8aANXAIwQCD2NM2NH9w7l/un+lEc0cqb0dSp75pjXGTtiUu3f2oAESFpTIqASdCcc02bCEE4AJx+NPhik3mSRhuIxgdqyPEV8kVo0UbAy5B4PTmgC66VWkX1q2hLwIzD5ioJqJ1zQB3Hwp8YjQdYOl3sm2wvGABJ4jk7H6Hoa+g6+PGUqcjqOmK99+Fnjca7po0i+kH9o2qYVmPMsY7/Ud6APRqKKKACiiigAooooAKKKKACiiigAooooAKKKKACiiigAooooAKKKKACiiigAooooAKKKKACiiigAooooAKKKKACiiigAooooAKKKKACiiigAooooAKKKKACiiigAooooAKKKKACiiigAooooAKKKKACiiigAooooAKKKKACiiigAooooAKKKKACiiigAooooAKKKKACiiigAooooAKKKKACiiigAooooAKKKKACiiigAooooAKKKKACiiigAooooAKKKKACue8dtt8Dayf+nZq6GuZ+ITbfAWrn1hA/NgKAPnOAcCrtvG0sqRqMszBQPc1VhX5RW74bthdeI9MhJID3UYJH+8KAPVfiS8dv4f06xAwTMCoHQKiEH/0IV5ifeu++KNzv1DT7XbzHE0mfXcQP/ZP1rgieaAEpwpBSigBwp9MFOoAOlMdwqkk8DmnE1najPnECHluv0oAgQm6uWlP3RwPpViaQKmKWJRFEB7VSuJck0AQTPmqjtg8VJI+arnk0ANJwKaTmlbimHPr2oATI9KQGlyPxpp980AIfTPNJk0tHUdaAAZz70Z59DRwTzSdqAFz+fvSg89aaOlKTke1ACj2zVDUr9bSEgEGQ9B6VPeXKWsDOx57D1rkrm4e4laRzyaAGSSNI5ZjkmoyaCafBDJczLFEu52OBQBLYWUl/ciNeFHLt6Cuwiijt4ViiXbGowBUNlZJY2wiTqeXb+8aq6nelB5ERzI3U56UAQ392bmX7PEcIPvkd/atLw7oF54g1e30uwj3SynBPZF7sfYVl2VpJLLHBEjSSyMFVQMlmNexzNB8JvCH2eJkfxTqceXYf8u6H/D9T9KALmo+N9L+G7W/hfR9Pg1CGFf+Jg7nHmOeozzz9fpXkuq3Q1jV7q9trFLaKWQssEQ+VB6VURZLqcszFmYlndjnPua0AFACqMKOgoAz/s86/wDLJ/yq3J9rvrjz7+WSVwAMyNliBwB9KloPSgBSSRRnikzRmgA/nR+FHakoAKQ+tGKQnjFABmkJ9aDTSaAAmkJ4pCc0wtxQArHimFvfmkJ65qNm+mKAFYnNRsw/+vSM/Q9KiY57UAOJBH8qYT70nNJj3oAU56+hoz68UgPH+NLntigB3PY8UbsDpmmj1PTtSE89aAHZyfejIpmeKXv04oAcT3puaTJpuaAHGk3YNNzzSE0AOJNJTSc9qD2oAXOOnFJmjOKTOT9aAFNIelJRnFAC9utHGc0g560UAL0o70lX7PTZbjDPlE9T1NAFWKJ53CRqWY1s2elpBh5fnfrjsKuQW8VsoESD69zUygtQAnoBTtoAyetBwv4VE8nGM0AOeQYxUDPz6UjPmom5IoARmzg9qafWl/HilHNAGbqlq1xbZTllOR71Rsr0KBBcAlVOR2K10IXPGOtUbvSorj51+V/UUAW/kukRklPyHdnOT+NKXa5hDwyKpDZIP9awCt3pz5Odo/iHStSy1eOQbJVAJ7igC+zSSxRvCEZSct7j0FRmx5820fynPYHINSxHEgEMQMLLksp70sKpBM1uquFbkHORn+lADIr5oSEu49h7OPumtACOZOzK1U40hgP2WWQvkZAcdvSmG3NvOVs59rgbjE3QigC55Dx/6s7h/dY/yNVLrT7W+ysibZcfQip4dRXcI7lTDJ79D9DV10jkXLgEDnPpQBx1xpN7prmSAl0HPHUVe0/xGGAhvF3DoSetb8C7w6sSVB+Un0qjqGg212SceXL13LQBYtrOwnYSwE9eisR+lWLrULPTk2sQXA4jSuWXRNUhlCxPkA8ENitey8OZbzL6Te3XYvT8T3oAqy6pqGqOYrWMqh4wn9TViz8PNvWW9cMQciMdM+5rfihjhjCRqqKOgAxRuz90FvftQBAy8VAy8Vc27umD9DUDqQaAKbrTrG/utJ1CG+spTFPCwZGFSMueKgZKAPpzwb4rtfFuiJdxYS4TC3EOeUb/AAPauir5X8K+Jrzwnrcd9bEtGflmizxIncf4V9N6TqtpremQahYyiSCZcg9we4PuKALtFFFABRRRQAUUUUAFFFFABRRRQAUUUUAFFFFABRRRQAUUUUAFFFFABRRRQAUUUUAFFFFABRRRQAUUUUAFFFFABRRRQAUUUUAFFFFABRRRQAUUUUAFFFFABRRRQAUUUUAFFFFABRRRQAUUUUAFFFFABRRRQAUUUUAFFFFABRRRQAUUUUAFFFFABRRRQAUUUUAFFFFABRRRQAUUUUAFFFFABRRRQAUUUUAFFFFABRRRQAUUUUAFFFFABRRRQAUUUUAFcX8U5/J8CXSg/wCtkjT/AMez/Su0rzf4x3fl6BYWg6z3O4/RV/8AshQB47EvArt/hlp/2zxhDIQpS1jeZg302j8csD+FcZEvAr1r4R2QWDUr0ryzJEpx6ZJ/mtAGZ8RLjz/Fjx5z5EKR/Tjd/wCzVydafiC8+3+IdQuQ4dHmbYw7qDhf0ArNNACD604DnrSClHvQA8CjpSUpNAEc8ohiaQ9AKy7ZDNI08nUmn30puJ1gTlV+99akJEUQUelADLiXbkVmyvkmpZpMkmqbt70ANY546VExpWP5Uwkk0AITzg8UhpCee3FIT6YoAO1NzzR1ozxkmgAODx0o9qXjqaQnjpzQAe9IenSjk8Up70AJ2pksiwxl2OFApxO0Ek4ArndW1A3D+Uh/dr+tAFW/vWu5ixPyjoKpk0E00mgBQCxAAyTwAK6vStNFjDvcAzuPmP8AdHpVPRNN8tReTL8x/wBWD2961bq5S2hMjH6CgCLULxbSHA5kPQVkQRsWMr8u3JpgL3c5nk/4CK9J+HHg+31J5vEGtsIdD0755GfgSsOdv0//AFUAbfgzR7TwR4cbxrr0Ia5ZcabavwWYjhv89BXnWrape+IdYnv7xzJc3DZPoPQD2Fa3jjxdP4v1wzgGOyh/d2sA6Inrj1NZdvAIY+f9Yep9PagB0cYiTYvPqfU06loxQAgzQTQBijpzmgBKKQkUZ7dqAFzSZPWk6dqTvQApNJ6UmaaWoAUmmE0E+9MZvfmgALUwtSF8D1qMtwecUAKzDpTC2TxTS350wn1oAM5NITj8e1ITke9J060AKT9QaDz7cZpCSeaQ+lABnjpRkfXNJ0pM8daAHZHOKT6UmaTNADuBmm5/OkJxRmgBScHpSUhPNJmgBc4HWkzSdqCaAFzzRn0ptFACk0maSjtQAuaKTNFACjipIopJ32RqSf5VZtNMknIeTKJ+prct4ooECRqAKAKlnpSQ4kmIdx27CtEc8AUBSfvcUpYKOKAHKAOp/Cms4xUMtwFH3ue3rUPmO3bA96AJWkyc5qItnmmFm6ZBo6/4UAKTSdO9H+TTgOaAEA707ApQOcmnAe1ACAGnAY/Cneuaco56cUARmJWUggHNZV3oauS8B2N6djW3jjFOC0AcpHc3mmS4kDAevY1sRarHdwFDJ5T8fMK0JbZJ4yrqCCOhFYl3oLKTJaNjvsNAG1JFK9spRo2mGMNjtSuu6PzliR7hBjAPQ1zlvqV1p7+XKrL7HvV231q3hkaRojluoVuPyoA1p2SSxMk1uzdipHIpLbTo2COk0xjPITcQKy4Net7cvgSurHO044pJvENxdfuLOEqzccctQBsX+q2+mR7Bh5scIOi/WqWkLf3l/wDb7hmWLaVCnjd+HpRp2ghWE96fMl6hOoH19a3hgdOlADgMHNKXC4HUnoB1NRby52pyO7dhTxsiBJP1JoAbNIIYWmmztXqqioHuZGaKaF4vspGG3HGKfb2+J5JVnLxyfwnkZpggcmSG6MbQOfk7H6YoAZGqWd0YY0lKSDKt1UH09qkhEqjyrmSMyc7SOpH0psbE+ZZRpJFtGEk68euaiKiaI52z3dueMZWgCZ1I+tROM8VaXM0IkMbI3dW61EydaAKTpXZfDnxu/hXVPst25bS7lgJAf+Wbf3x/WuUZc1XdOe9AH19HIk0SSRsGRwGVgcgg9DTq8Y+E3jvynTw7qkvyE4tJGPQ/3D7elez0AFFFFABRRRQAUUUUAFFFFABRRRQAUUUUAFFFFABRRRQAUUUUAFFFFABRRRQAUUUUAFFFFABRRRQAUUUUAFFFFABRRRQAUUUUAFFFFABRRRQAUUUUAFFFFABRRRQAUUUUAFFFFABRRRQAUUUUAFFFFABRRRQAUUUUAFFFFABRRRQAUUUUAFFFFABRRRQAUUUUAFFFFABRRRQAUUUUAFFFFABRRRQAUUUUAFFFFABRRRQAUUUUAFFFFABRRRQAV4x8Xrzz/ElnZqci3g3MPQsf8AK9nr508V3/APa3i3UbxW3IZSkZ/wBleB/KgDKjWvb/AAxbnw98OTc8LM0D3fzHI3EfL+gXivINJsjf6naWi9Z5Vjz9TivZPH10lj4UNrGAPPdIVAOMKPmP4fLj8aAPIsYFIacaaetAAMClHIoFKKAFFV7y48iEt/EeFFWCQB1rHkc3l3kfcTgUAOtY9qGRuWPNMuJRzipppAi4HFZ0r570ARSPk1ATmnMcnr1qInk4oARm/CmE89aVjTM0ABPem8mjv3pD1oAX+lJxjPekJ5oHpQAvtRR+NHGaACjikPXNUNSvxaw7V5kbj6UAVtX1HaPs8Tcn7xrAJpXcuxYnJPJphoADWno+m/a5fOlH7lDwD/EfSqun2L39yEGQg5dvQV1yRpBCqIoVFHA9qAFd1iQsxwAK524na/uev7pTwKl1G9a5l+zxH5R1NWtG0i51TULfTrKIyXEzhEUevqfagDb8E+ELrxbrcdlBlLdMPcTdo07/AI+ldN8RfFlrKkXhXQNsei2HysU/5bOOp9wP1NavijUbT4eeGB4Q0aQNqlym7UbpOoyPug/5wPrXl9tb+Yd7D5AfzNAEtrDtHmt97+EH+dWv1oPPPekoAXNGRmkJxSE8daAFJNN9qCRRx7UABpMjHSj3pCfpQAuT60w+tLmmsQKAFz6jrTCetBPHtUZYY4oAUtxTC3PrTWPp1pjNigAY9s/lTC2TnPNIx68U0+vBJoASjPpSZ7Umcc9aADPBxik3HFBPXim5oAcc+lIxJYmm5xmg0AB6+tGeOlIT70negBc96M0mfWkzQAuaSkJ9aM0ALn2pM0lJQAuR+FJSUZoAXJpM0maM0ALnmko68DrVqC03EGTgelAEMULzNhF+p7Cta1sooSGb5n9SOlOiUKAsYwParSJj73WgCVQT06VKMLzUW8LxjAxUD3DOSEGR/ePSgC086oOvHrVOe7ZVL8hQPx/KoZJG2syAyOpwfamMyxOZAzYkIBDD/OKAJxJGqeYWGD3zk/SpOQcHj61VCjf5UhRw7fJg/wAqnhLbCJFKuDgfSgCQUyc+WiuBwp+b3BqUClZA6lWGQw2mgBoHNOAyKitiTHtb76HY34VOBigBQPzpyqKB24xTwM5GOKAEC4p6jPAoAFOAyKAADmnqM0lPAoATH5UuOMYpRxT8ZoAry2kM4IdFb6iqMnh+zc5CbfXacVr4pcAUAY8fhuyU5ZWb6tWnbWdvariGJU+gqbjvTS5J2qMt39BQBJWPqOsra6hHaFcLgM7E9R6Ctj7q/Mw/Gs7UtMg1JFLYDDo6npQBZW9jmtXa1Ks6r8qVJZ30N0oCna4+8h6iuNltNQ0iTcmZIgc5FXLXVbe7I8/Mco6SLwf/AK9AHVtACxeMmN/UdD9RUFxGk+1LpShByrqePz7VWhvp7dR5376H/nqnUfUVpRTRXMeY2DqaAIrm3eRY2inMflnOeoP1qJpFZBc2caSyZwxAwSKsGF4/9SeP+ebdPw9KbAluvmIsQjd/vLjBP+NAFaVltplu3kkCS4DKOQD/AEq06gqHX7p5qCM22nSLaszkScrv5A9hUkDzJK8NzJGT1TB5I+lAEbrUDpV6SMqfbtUDpxQBQO6ORXQlWU5BB5Br6G+GnjYeJtK+x3kg/tO1UB8/8tV7N9fWvAJY+Kl0jVrvQdXt9RspCk0LZHow7g+xoA+taKyfDmv2viXRINStTxIMOndHHVTWtQAUUUUAFFFFABRRRQAUUUUAFFFFABRRRQAUUUUAFFFFABRRRQAUUUUAFFFFABRRRQAUUUUAFFFFABRRRQAUUUUAFFFFABRRRQAUUUUAFFFFABRRRQAUUUUAFFFFABRRRQAUUUUAFFFFABRRRQAUUUUAFFFFABRRRQAUUUUAFFFFABRRRQAUUUUAFFFFABRRRQAUUUUAFFFFABRRRQAUUUUAFFFFABRRRQAUUUUAFFFFABRRRQAUUUUAY/inU/7I8M394Dh0iKpz/EeB+pr54iXJyck9zXqnxb1XbaWWkI3zSt58g9hwv65/KvMYkoA7r4Y6X9q1971h8lpGSP8AfbgfpuP4Cr3xLvTNrNtZggpbxbiO4Zjz+gWuh+HGnGy8Mi4YAPdyGT32jgZ/In8a8517Uf7V129vQcpJIdhxj5Bwv6AUAZppuaGNJmgB1KKaOOlEjrFGztwAM0AVNRuCkfkofnfj6CoIUEMPOM1HFuuLhp3/AApZ5e1AEE0mTVORqfKwJ5qux3dTQAhNRsacTx9KjJ7cUAIxyRzTSc0E80rxyIoZ0ZVPQkdaAGE0mR6UH6UnTNACgfWj3xRnnBpP4aAF4zR6UmeOabLIsUZdyAAKAIry5W1h8xuvYVytxO08rSOeTU1/etdzlsnYOgqkTQAE0+CCS5nWGIZZjUeCSABkngCuq0rThZQ7nAMzj5j/AHR6UAWLO0SythCnPdm/vGqWq3+xfs8X3j1qxqF6trCQD856ViwRs7mV/vGgCW1tzkDBZ2PbqTXtGl21v8KfCJ1a8VH8S6imLaFusKnuf6/gKzfh94cstG0qTxv4iTFnbc2cDDmZ+xA789PzrjfEWv33izXptRuz+8kO1EB4jTso9hQBSZ59Tvpbi5laSWRi8sjHJJNWhgKFUYA4ApEjWKPYOnUn1NOPoDQAZoJozxTTjpQAZozig80mcUALSUhPFJnjFABk9KTPajJ6imE+/WgBe1NY0hamFvWgBzMM1ETnpSM3vUZPGaAFLe44qMt0oJNNP/1qAF6nFJnA96DTT1oACeKQ8DpRn8/emlselABmkzQfek4z60AHHX0oPrSUcjtQAUmaM0hPNACmkzRnHTrTT1oAUmkzSUmaAFzRmkooAM8UdKTNGc8CgAzzTlRnPA49aciDgtzVhVLnjkUAOjjVBgDmrccZbGeKSKILyetWAQo45oAlQBBikknC4GNxPQVE8mBnP1rOtLlrkzMD8/RR7UAaOx3VpH6DoM8H/Go5JJG2hQQ2eh70R3fm7VkG1lAGKlIDAjHFAELYSUMsbKHPzYOcUDbG/l7/AJXJOXHSnsjBSASVI/EUKCYBGsmSOFJGMUANRCy+UwV5FBYetSxKWdJNzJKg5ApmGkXcqqZEwCRTywiYzKrBjgMuf50AWulPxzSLhhwcg04Dp9aAK3+r1OROglQSD69DVkAYBqrdkLqFi395XQ/zq4BxQAoFOA4oA4pwHHFAAMdacBQBTsd6AAA9qcBQB0/SnUAHenAUmPzpw4oABS9OaBWTr929rp+IyQZGCZ9u9AGmred904X+8O/0qT5UQ7QCQM4FUYrvy7S1MUReNlAJUZxTmEdlMZWkcLKeVPQH1oAntLuO6jBGA/RlPUGpGtgWLRHy39R0P1FU7u3tyySrJ5Urfdde9Il7PakJeJlO0qdPxoAsMQPluECn+9/Cf8KyNR8Owz5kg/dydeOhroEeOeLKFXQj65qMwNGMwn5f7jdPw9KAOKS5v9Im2zqxXpnqDWtZ3sFwfMt5fs8/fH3W+orZlhhulaKRBkjlGH+c1zt94dkhcy2LEEc7M/yoA6GDUirCO7Xy27MPut+NaDJHOvIBHUGuFtdYltz9mvY8qOquK27S5ZQHsZd6HrC5/kaANra8TZYecg9vmX/Go50gnX7SsfmSRjgA4P0otdRhuG2HKSjqjcGrEkCsxdSUf+8P880ANt5vtcG8oyHuGGMGmMnX171JHI6uI5VGT0Zeh/wpLpxDH5rfdBw30oAqunWqcseK03ToarSpxQB03w18Xt4Z14W9y/8AxLrwhJQeiN2avowEMoZSCDyCO9fIDpzXv3wn8VNrehHTbqTdeWACgk8vH2P4dPyoA9CooooAKKKKACiiigAooooAKKKKACiiigAooooAKKKKACiiigAooooAKKKKACiiigAooooAKKKKACiiigAooooAKKKKACiiigAooooAKKKKACiiigAooooAKKKKACiiigAooooAKKKKACiiigAooooAKKKKACiiigAooooAKKKKACiiigAooooAKKKKACiiigAooooAKKKKACiiigAooooAKKKKACiiigAooooAKKKKACiiigAoorG8V6p/Y/hm+uw2JBGUj/3m4H88/hQB4z4v1P8AtjxZe3KnMSP5Uf8Aurx+vNUrC0e8vILWP/WTSLGv1JxVSNemeTXb/DnSje+IhdOuYrRDIcrkbjwo9u5/4DQB6NrsiaL4QuhDlVhtvJj55GQEX+YrxBjxivUPiZfmLS7WxUkGeQu2D/Co6Ee5I/KvLWPNADT70uRjim5560ooAcOazr+Yyyi3Q8A/Mat3U4t4C38R4X61QgTYpduWPNAEjERRhRVCaTJ61NPJk1SduaAGMc9aiJHfpTycd6jJBNADT1pnfP8AKlOM8GlUYG44PpQAgG3k9ew9Kuw6iyr5cyiSMjoRVLJOSTUM8whTOMseg9aAL13Da7fMtnO49YupqgGyM4I9qht55LaUy43S9WAPK/h3rUS5s9RjzKAknTzF9fcUAZ5PfFLn3qW6sJ7Ybx+8i671qpv/AFoAl3dScCsDVb/znMUZ+QdT61Y1S/8ALTyYz8xHPtWCTmgAJpKK0NK0/wC2Tb5B+5Q8/wC0fSgC7omnhQLuYc/8s1P861rm4S3hZ2OOOB608sI1JOAqiuevLlr642rxGtADCz3twZX+7ngV33w88FjxLqLXV6wh0ex/eXUrcAgc7c/54rB8LeGrzxLrEGmWSfM5+d8cRr3Y13nj3xDZ6Npcfgnw8Qtnbj/TJlPM0ncf4/8A1qAMb4geMf8AhJtTS0sR5Wj2X7u1hXgHHG4j37e1c/BB5MfI+c9fb2qG1g2jzXHP8P8AjVrnGf1oAXnr6UnfpS00nPtQAE5pCaMn8qQmgAySKTrRnmkJ9aADPGTSZpD0zSZ45oACfSkJyM5xTSe9NZ+O1AATjk81GTj8aCecio2PHNAAxOenFMNKTkUzJxQAucDGabQcYpp7c0AKTTCc0uR/+qkzxQAdvrSE47Uh5oJHrQAh4FFBPvRzigBPag0lJnk0ALn1ppoJpDQAZopDSZoAUmkpKCcDmgBaQmm7s9KUCgBRzUijHAFIkbP0FXIoQvXr3oAbFCWOWq4ihOBTM7Qe1BZthYggenc0AS+YoPXP0pPMBOMEH0p0fl7QY+R64pdoYfN60AMY5GPX1rGKyWFwWAymeDW3sK9OR6elNaJZV6AjuDQBWhniugAfvfrVgGSH/bQ9T3rPn00qd8BwR/DSQahJA3lzg/Xv/wDXoA2Y5FkHUZ9PSnmMN14I71UQxXADxsA3qKmSZ4ziUEj1oAkWPy33FAf9oUisIZl27jHIcsRyAamRgwGDS+XzlTtJNAEoGaeBkVCsmDhxg+vY1MOufWgCnqXF3poHXex/Sr+OlZ98d+u2UQ58qMs341oj1oAAKeB1pB0pwFACgU4Ugpwx0oAAO9OoApetACjrRRjpzxThQAYrO1qyN7p7IvDr8y/WtL2pCMjkZoA5PSNUe2DWspK9Rg9jXQWoMlqymVJWH3cjp9aqajosV2TIvyS/3h3+tYu++0mQCTJQdGHT/wCtQB06RNPDsvI0LLyAG5P+FSW8vnQMssBTbwQRx+FZVnqFvc3KTSOwkxgkHGfqK05cpOLr7RiHHzDqD9KAKkMYkJl0+UowPzRt0q3BqQL+Tcr5Mvv0P40rvNHOjQqhgI+Y5xj3pLtledYHgLxsPvgZ5oAuvHHMvzDPcH0+lRMskXUeZH6/xD/GqQiu9POYSZoe6N1H0q7bX0FyMIcOOqngigCld6Za6jF8yqf9odQa5q50u+0pzJAWki68dfyrtnt1dt4JR/7y9/r61Ed27ZMoBPAYdD/hQBy9rq8F4ojuhtfoH6EfjW3BdXsKgRKt3H2O7DD61V1Pw5Dc7pIv3UvqB1+tYa3GoaLOqzBig6MDxj60AdpAs85WS4XywOQgOf1qDxFOsGi3GTguu1azoPFkBUCWJt2Oo71SX7T4l1Bd2VtkPzegHp9aAOnsdz6dbs2dxjXOfpTZY6uqqqgVcAAYFRSDIoAypE5PpWx4O1yTw54ps74EiLf5cw9UPBqhInNQOmKAPrVHWSNXRgyMAVI7g06uM+GWuHWPCkcUrbriybyHyedvVT+XH4V2dABRRRQAUUUUAFFFFABRRRQAUUUUAFFFFABRRRQAUUUUAFFFFABRRRQAUUUUAFFFFABRRRQAUUUUAFFFFABRRRQAUUUUAFFFFABRRRQAUUUUAFFFFABRRRQAUUUUAFFFFABRRRQAUUUUAFFFFABRRRQAUUUUAFFFFABRRRQAUUUUAFFFFABRRRQAUUUUAFFFFABRRRQAUUUUAFFFFABRRRQAUUUUAFFFFABRRRQAUUUUAFeZ/FnUvksdKRj8xM8gH5L/AFr0yvBvGGof2p4svp1O6NH8pCOmF4/nmgDGjWvYfhvYfZvDr3TIA91KSG9VXgfruryW3haWVIkXLuwUD1Jr6AtYINI0mKHcFhtYQC5GOFHJP5ZoA8t+Il2LjxQ8Qxi3iWP8fvf+zVx5PNXNSvGvtQuLtxhp5GkIHbJziqDHtQAoPpTug64po9aqX8+1BCh+duvsKAK8khu7nP8AAnSnSvhcChFEMeO9VZpCSaAI5H6mqzEk5p7npUR6H1oARutRknNL+FAGeSaAGle7fdH60hJ6ilZs/T0pjMEUseAOtACSSpFGWY8CqOS5M74BP3cjIH19KV3M8gkfiMcIpONxppJZz13eww4/oRQANnAz/wABDH/0Fv6UDPmZG4uO4GHH1HQik4CscrtPUgZX8V7UHooPTsCeP+AtQBdtdTmtxywaPuR0/EdqtyQWmooTCwt5iOCOVJrI3HfxkuPThx/RqFYqC6sB6so+X8R2oAxdU0m9sJC1xGWQniReQaza7qLVjFAUuVDxkcg/MrfQ1FceG9Nv5Fkt5mtiwyVxkf8A1qAOQtLV7u4EScDqW9BXVQRxwQrFGMIo4/xpF0aTSIypXeDyZR0NUL++8qPy0PznigCPU70yv9niPHc0afYy3E8VtbxmSaVgqKoyWJqrbxEfM3LGvW/C9jbeAvDreKdViV9SnXbYWzdRkfeP+elAF3ULi3+FvhP+ybKRX8R6gm64mXrAp7D09vzry+3iM0hkkJK5ySf4jUl5eXet6pNeXcpknmYvI57VYXCKFUfKKAFzS8560neg4HbpQAoPPJoOM8GmHpnpRnAoAUnmk6GkzSE9xQApP8qQE4NJnJppIzQApPvxTc0hbqaYSccdTQAFhk8596jLc9aGb8RUZbnpQAEnFNPTign8qbn5aAFJG2m559qU9gcc0w0ABNN/rS96TP1oAM+1NzzRnikzigAJ4o70fypp60ALkUmaGPvTc0ALmm5pCe1JQApNJmkpM0AKetGaYXA+tNJLUAOL+lJ160ijnipUiLfSgBqgkgDNWY4CeTUkcIXHrU4AHXjFACKoUdKfu4wMZ/lSIDI2AOgyaeEURDcCGU54oAEA8zBIyBkE9M+1PjyyEHkqeWH9aCWykhZT3YE/oadsCzchlBGehNADCrRkunQ/eAqZCHGRz602IY3JwQOTkd6CmGLIRu7j1oAl7e1IUU4PelRg4yPxHpT8UARHjO4cDuKins451+YBh2NXMdAabswcrxzQBhPZ3Fo2+Ell9O9WrXU0f5JgFPv0rS+U8MMH+dVLrTY5ucbW7MKAJ1T+KFsZ5x2NTR3HO2QFT71hf6XpxwctF146VpW+owXIw+AfRj/I0AaRkQ8ZBJ4xU9vHkxr/AJxWdE9nE2/cAT3NOm1i2gt5TG5eUqQuOgoAZaN9r1q8uQMqpCLWoP51n6RCYbBSw+Zzvb8a0R2oAVeaeKaB2pw96AHD19Kdim04CgBRTh70nal60AL2p2OuaTvSgetAC0v+eaTtS9RzQAYzmopYI5QVYAg+tTfWl4/woA5i+8PFGMlm20jnaen/ANaqcOoz2rm3ukIz1Df55rsmUHrVK706G7QrIgNAENtcWd7aCBSEHYA96mjljkR7KOV1lUYDMeT71zl1pN3p7mS3YyRjnHcf41b03XlUhZVG77pz/jQBtRvN9jeNZUkuE4OBTPsX2uNZJF8m4HdTyKRri3jcXMMRd24bHUD6U5xFbXC3bvIgk6r2z70ANW7urL5bmJ5kHR0GT+IqaOd77ASNo4wckuMH8qekdw12ZPMVoGGQD/SrLyRwxl5GCqBkk0AOONuCOKzmezvLiWzJV2UZI68Vkalr0t3L9lsFY7uMr1P+Aq/oejPYs1xO+bhxjA6KKAGr4ZsPN3GM49AxAratreO2iEcKBEXoAKkApc4NAC54prcigt6cUnNAEbR5qvLFgGr4GaguRtQL0LHAoA6f4Va9/ZfjU6fK2Ib+MR4PaQcr/UfjXv1fH/2uS11NLqFiskUgdCPUHIr6u0DVotd0Gy1KI/LcRBiPRu4/PNAGlRRRQAUUUUAFFFFABRRRQAUUUUAFFFFABRRRQAUUUUAFFFFABRRRQAUUUUAFFFFABRRRQAUUUUAFFFFABRRRQAUUUUAFFFFABRRRQAUUUUAFFFFABRRRQAUUUUAFFFFABRRRQAUUUUAFFFFABRRRQAUUUUAFFFFABRRRQAUUUUAFFFFABRRRQAUUUUAFFFFABRRRQAUUUUAFFFFABRRRQAUUUUAFFFFABRRRQAUUUUAZ2vX/APZeg3t7nBiiYr/vdB+pFfPygkljySck16x8UL/yNCt7FThrqXJ5/hXk/qRXlSCgDqPAmmm/8T25I/d2379ucfd6f+PFa9H8a3wsfCt2d2HnAhX33df/AB3NY/wzsBDpNzesDunl2DI/hUdvxJ/Ksv4mag0l/a6erfJEnmMAerNwM/QD/wAeoA8/c88VF3pznn2pBQAjusUZdugFZkeZpWmfuePapL6YyyrAp4XlqRmCIAPSgCOaTsDVJ2x+JqSRsk81Xc80ANJzk96YT1z9KVjTG6UAISW71LJaSLGOCM8kVLp0H2i5Bb7qcmt140cYYUAcqfl4YfjVGV/tT7Rnyl646t9K29YgC7YIyAz8k/3R3NYMnyERbRtH3Q3GfcGgBS2c4+6BjgZX/gS9qbj5RkDb/CGPyn/dbtQGy2QWLAfRx/iKXPyMRjGeSq5X/gS9qADB3dW3j8HH9GFJwAxBGO5A+X/gS9qDjaoOMdgT8p+jdqXq/wDFv/Jx/RhQAhHyqDjB6Ang/wC63ahm2EsSQVGSejgfyIoBGGORj+Igcf8AAl7VHHGbuTZ/yxU565Gfb2oAfbQG4l81wBGOgAxk+uK0x8o4/SkVQigAYApJHEaFz0oAsDUmtoj5mHTptNc3qsllc3SyW6bWx82Bxmm394ZHKqfr7Vf8KeHJvEOphM7LWL5p5T0Vf8aAN/wRoFs6ya/rHyaZZ/MA3/LVh29xWb4m8R3XijWGupcrEvyQRdkXsKteLvEMd68ek6biPS7T5UC9JCO9YVvHsXefvEfkKALcKrEgUck8k1JUIbHtTwRQBJnjNNPNGeetJQA7Iz1pPrxSE+/P0pM9hQAp/wA5pOlJ0J9aQkZNAATTW7UhJ9M0xmHvQAu4EgZ4zURbrmlZuc9qYTzQAFuenAFM7ZPWg/Wkz70AIT70mRjrRn0pCRzk80AHcU38aCe+aSgAppPalOQOlNoADyOtITRmkNAAelJnigmmk0ABPNITQTxSUAGaTNISByTUTSE9KAJGYCoy5P0pv1pyqTQAgFPVC1TRwE9aspEAKAIo4MdasBMDjtTwhFMmlFvEZG5boo9TQBIAc4AyTUqRc5bBP6UWwzCrdS3JPvVgLQBEyguDjjPJHWlVQJGVW4frmpQOvrSlAeoFAEKr8pBGT97OeaU8xB9xBHUEE/8A66mCAEkcE9fel25BoAiI+dXK8dSRihdqSldxAPPPQmpGiVhtAwM54qQDn5iWPrQBAygsWQ/MvXipI33jGMN3FL5YDZGaHTJyvDCgB+M5/OlwelMRiVORhh2p/bIoAMA9QKaf3fOSV7j0p25R1IqMyo7eUGBLdcelAD2hVxjH4Gs240dWYmJvLb07VsMcscCqV9cLBqtrEpB8xNsg9+1AGWdJuzwCmPrVyz0RVYPcvvwchB0rVA59qeOlADwBwBxinCoy4UZJxzSjcx/uj9aAJQevpTwR6iogo78/WpAAO1ADx7U4HHFMH0FOx0wcUAPHPendKYMgU4HOKAHdqUUlLQA7tQKByKXp9aAClxQKBQAetKAMUelLj2/CgBjIGGMdayNR0KC6y6jZJj7w4raoxntQBxD22pae2AGdRyClB1+7VdkuGA7SDNdq0QOcjNQPYwyHLRqc+ooA5T/hKb3GAIx9BSouq62wB3CPP3mGFH4d66pNPt4zlIkH0UVZRNoGBQBR03SYNPj+QbpD95z1NaQFA4zThxQAD2pCcUE5pOSaADGSacFoVeKbcXEdtHvc+wA6k+goAJZUt4zJIcAfmfYVRkkkcNNLlXYYRP7g/wATR88knnXH+sH3I+yf/XpkjFhz3oAyZh85r2n4IeIPMtbzQZn+aM+fAD6Hhh+eDXjU6EGtPwnrb+HfE9jqSkhY5AJAD1Q8MPyoA+saKZFIk0SSxsGR1DKw7g9DT6ACiiigAooooAKKKKACiiigAooooAKKKKACiiigAooooAKKKKACiiigAooooAKKKKACiiigAooooAKKKKACiiigAooooAKKKKACiiigAooooAKKKKACiiigAooooAKKKKACiiigAooooAKKKKACiiigAooooAKKKKACiiigAooooAKKKKACiiigAooooAKKKKACiiigAooooAKKKKACiiigAooooAKKKKACiikZgqlmIAAySe1AHj3xIvvtfin7OCClrEqcf3j8x/mPyrlohyBUupXp1HV7y9P/AC3mZx7DPH6Vc0G3W61ywgcfK86Kw9sjNAHtOhWA0zQrOz24aOIbxn+I8t+pNeOeI9Q/tTXr27DZR5CEPT5Rwv6AV7NrNwbXRL6dXKNHA7Kw6g7Tj9a8FlOBQBXPXmoriYW8LN1boPrUwHNZVzKbm6wPuJx9aAGwqQC7fePJNMmfrUrttXFU5GJoAjduevNRMe+aczcGozkg+1AAT3phPbFBPtVnT7c3FyMj5E5agDW0+3+z2oyMO3Jq0zBEZicAAk0vbj0rN1aY7FtUOGlPJ9F70AZF1OziW5JYeYcA7d21R3I9Kztny9EVG9fmiY/+ymp52ElyQqn5OAEG2RR7D+IVCDhXcMMHhnRflP8Avp2+tAELxkMEwQ3UI5/VWpBktg7i4444cf41PgBQpCqh6KxzG3+6f4TSNHuIQAlh/wAs3OHX/dbuKAIh0LZG3PLAZU/7y9qD90LxjPAJyp+jdqQq2/KlmYdSBh1+o71GXJbZHgu/dehHfI9aAFbfcTeWhPHDMfvD2z3rThiWGMIoqO1t0t4gq9f4qm5Jz0FACkgDJ9KxtRvudqH6f41LqF6FXYjf/XrEZmkkAALOxwAOpNAFrTdPuNW1GKztkLyytj6e59q7nxDqFt4a0geGdKYGVhm9nHUn+7VeB4vAmgmRira5er8o/wCeS/5/WuKWSS5mZ5HLMxLOxOSTQBbt4wx3kcDoPWrYJOcVWRug5wBipxwBQBKKeCeopg6e9OzxxQA/IIpCcGkHWlJzQAtJ360dDTSeaADNN3cZxSnrUbn3oAUt3qMn3oLHOc9aYxz3oACeOaZn0oPBpM+1ACE4HvSZpTTD+lACjv1pp6c80ueOuaZn2oAXIpCfypOpozxQAE9qaeaM+/FNJoACfSkJ4pCaTNABRmkJqJpQOByaAJCRUbS9l596iLFutAFAByx5NKFyakSJm7Vajt+lAFdISSM1ajhA4xU6RD0zUyx0ARLHipRH+FSKh7U8JigCMJ1qrqEDS2+UGSp3YrRCds80uz2xjjNAGXZXqJDtcHjoR/WryXkLfxD86bLp8ErbiuGPdeKgbSf7kzD6jNAGgssbDginhlJABFY7abcrypRvocU3y72MZ2Pj2OaANygAds1hefcpj5ZB9VNINQmXqx/EUAb+M0Y61g/2pN/eH50HVJv74xQB0GOKQLXPHUpz0c/hSfart+nmHPoDQBvuEP3mAPrmoJDbj705+gascQ3snSN/x4p66XdvgttXPqaALr3dgnUGQ+/NQnV0j4hhC0JoneSY/RRVuPSLZOShb6nNAGa+r3UhwpwfRRVrT7CeW5F1c5G3lQepPrWnFbxRY2Rqp9hU9AAOtKz7FLMcKBkmkA5qhq0u2GOIf8tXAP060AXYD5yiZuh+6PQVYztpkahUA6YApVObqFD0JyRQBIdyqOBz60zZIQSZTn0AAqVm3OSeuaTGBQA0B1PDn8RUqy87WGD296b1oKhgVNAFgHigkKM9u/tUULlogT16GplPWgBwOf6U4GqlvLiaa3Y8xkEZ/unpVoUAOAp1Np3tQAcU6koH60AKB3pfek/lSigA70o6daOnaigAox0opR3oABTh69KAKUUAAoJxQcAUnU0AFOVeaQCo57lIV65PQAdzQA6e4S3QluT0AHUn0qiN/mefNgy/wqOkY/xoywbzpcGT+FeyD/Go3fPQUAKzbjmk4pO/FFAEE65GaoMOa05FBXFUJAQTQB9FfCXxB/bXg6O2lbNxYN5LZ6leqn8uPwrva+cfhFrx0nxnFau2Le/XyWH+11U/nx+NfR1ABRRRQAUUUUAFFFFABRRRQAUUUUAFFFFABRRRQAUUUUAFFFFABRRRQAUUUUAFFFFABRRRQAUUUUAFFFFABRRRQAUUUUAFFFFABRRRQAUUUUAFFFFABRRRQAUUUUAFFFFABRRRQAUUUUAFFFFABRRRQAUUUUAFFFFABRRRQAUUUUAFFFFABRRRQAUUUUAFFFFABRRRQAUUUUAFFFFABRRRQAUUUUAFFFFABWJ4uvv7O8KajOCA/lFF+rfL/WtuvP8A4rX3laRZWK9Z5t7D2Uf4kUAeXRjaAB2ro/CAB8UacCRxKOtc4vWtjw9cra69YTvwqTIWPtnmgD2PxPG0vhjUVXr5DH8Byf5V4dJX0FdW6XdpNbOSEmjaNiOuCMV4HeW0lrdy28y7ZYnKOM5wQcGgDKvZvJtzj77cLWfEuyOpLp/tF4f7icCmOwAxQBDI5qtI3NPkbnioWoAafWmMaUnHFNJxmgBpPTFS2+oSWD70Xch+8KiJGOMUhwT60AdHaala3keQ4Vh1FYN5c+YZbosAJD5aFgSAo9SOmapyRDBKEo57iizuZbeEQXKB4xkZHJxQBERnahHbKo7f+gP/AEpeTIT85kXqwGJV+o/iqy1pHNGWs3UoeTE3K/8A1j9KqnO4IwIYfdRzhh7o3egBAQqs6lQCcF1GUP8AvL2+tIRgBWChCflRjlD/ALrdvpT+S5cM5YdXUYkX/eXvTeiFgUCMeWUZjb6j+E0ANkYEHzMkxjJDHEij2P8AEK1NL0syQNcSDLtyST19P0rOhhNxcxQBWCg7ymQwHptPoT2rs4YxFCqA5wOaAMCezeNsqMVk392sGYxnPc111/LHb2skzgYUcD1Neb3s5muGYnvzQBBNKXYu1dL4fs4NHsW8Ramo+Uf6LCerHsazvD+kJqM73t4Qmn23zOx6MR2qr4h1x9Zvcr8lrF8sMfYD1+tAFbUdSudW1CS7uG3SSHp2A7AVJCoVQPzqrBH/ABGr0a8UAWI+1WE6Y6VCgqdQQeaAHg8c9afz2pox1pwoAM9qUnHA70AfSk/GgA57UhNBbnFMJGKAAnOOajZuKGOBTC1AAe9MJpT1xTSaADrTTzn1ozjmmn8aAFzxSe5pD0pM0AHcc00nmgtSEigAzSE80E0wnmgBSaaaM8UxpFUcmgB2ajeRV+tRNKzdOBTAKAHNIzewpoFOVCasR25OMigCFUJ7VZjtjxmrMcGBVhY+gxQBAkOKsLHUioMYNSqgzxQBGI+9PVO2Kkxg9BTsY5oAYFGOKcF4FOA9acADigBoHPNLjtTsAn+tAXj2oATb2xQRindfalNADAAe3FOxmlwKTOD0oAQrz0pDGD2H5U/gCloAiESH+EflR5Kf3F49qkxgdKOfagBvlrnoPypdgp3TrRj0oATHTHWnAUYoA5oAT2o6fQUvPSl60AFFJilGc0AKOayNZJWS1bHAc1rc4qlqdubmzYKPnX5l+tAF6BxJCre3NEu4FXT7yHOKzdIvBLGIm4cVrAg8jpQBIrhxuXv2petV2h5LIxUn06Gm5ulHRH/HFAFsAZpsjBBxyxHAqtvvHyBGi+5b/wCtUkVsxIaZtx9BwP8A69AFqEYjAz+PrUoqNTSXF1HZwmaU9BwO5NAFIy/8VQ8a9Ps6hvrmtbNc/oYkubm51KXrIdq/QVvA5oAfSg0gpwoAUcUuKaOlOzQAooHWjmigB1ApM0v4UAHv604DNIP1p1ACj60hPNGRTTyaAFJzSgUAcGqdzdksI4hlj2oAluLoRgIvLE4AHU1U+ZG8yQhpe3oo9qYoEZJJ3SHq3p7CkZueKAFZyTTe/wDOkzml70AKOlO7UzNKetACnpiqk657GrWPaoZVyM0AVYJ3tLqK4iYiSJw6n3BzX1voepx6zoVlqURytxCr/Q45H55r5FcV758EtXN34WuNOdsvZzZXJ/hbn+eaAPTqKKKACiiigAooooAKKKKACiiigAooooAKKKKACiiigAooooAKKKKACiiigAooooAKKKKACiiigAooooAKKKKACiiigAooooAKKKKACiiigAooooAKKKKACiiigAooooAKKKKACiiigAooooAKKKKACiiigAooooAKKKKACiiigAooooAKKKKACiiigAooooAKKKKACiiigAooooAKKKKACiiigAooooAK8c+Jt79o8Vpbj7trAq/i3P8AhXsdfPXiG9/tHxJqV0DlXuGC/wC6DgfyoAoA81ZifBB/Gqg61PGaAPePDOqjWNCt7knMqjy5c/3h3/Hg/jXBfE/SXsZv7YhQeVPiN8fwyY4P4gfmD61X8C+IRpWo/Zp3xa3JCtn+Fuxq/wDF3VtlvYaPG4zKxuJQM52jhfwJ3f8AfIoA8pVdkfuaryv1zViVgF61SkYmgCJjnnpUbHvmnNg1GR+ZoAaT69aQ5HFKcAc00nOaAE4+opM+g/Kl6jv/AI0386AGMccjOKYe9PP6U1hyRQBGA8bb4mKsPSrK3cNwnlXiDn+LHFVyOff3ppGVII49qALE1o6ANGTMn8JDYdfo3f6Gq27lnDHK/ekVcMP99e9Oimltm/dHKnqp6GrDm21ApvxFKp5yM7h6fjQBoaBZbFad1CsxzjbwPp7Y/nW6cYz/ADpkEAghRFxgDtTbmZbe3kmfoi5oA5vxXqGwC2Q9OW+vauZ0zTJ9XvVtouAeXfsq9zS6lcvd3jMeST0962L+7Tw3oiadbkDUbld07jqgPb60AVPEmrQpEmi6dhbODh2H8bVzsUe45PQU1FLsBV2OPAAA6UAPjTNW0XApkcfSrCJxQA9Bg4qUDvSLxxT1A/CgAHAOKdgetGfUfjSgev60AJ0FIDyKCTj2ppPOaAAnOelRscd+KCaYx4oAQnmm0E/lTSQec/nQAp+tM70E4H1pMgc0AB+tNzR9aTJ7UAB9e1J3zRnimE9qAFNN5oJphYLyTQAuRTXcLyTULz8/L+dQkljkmgCR5yfu8e9R8k5NKBUiRFjwKAGBaljhLdqsxWvPNXIoMAcUAV4rYDqKtRxY7VMseB04qULj0oAiWMVKEFPC8A04DFADQO1KF+lL+FO464oATAoFOx3xR2oAPwFAx270Y9KM+lADu1HHXNJn3o78UAHsKUfSkPsaBwMk96AHAe9GP1pvcc0uelAC5/Ok+lGfek56UAONJ7mjPalzwcUAIP6U7OAO9IcAUnvQA6jk9aTvmloAQehp3rmkpOM0AO60lA96WgBQfmAFIRkYopaAMm709klM9uMP1ZfWn2+rnlZh846nv+IrTIyKqXNhFcfeGG7MOooAsRXsLgfMOfSp1ni5+dfzrnX027RjtKyKOhzg1Gbe+Xjy3/BqAOoM0ajmRfzpj39rEMvMvHvXMG1v2/5Zvz6mpI9Fu5CC5RAfU5oA07nxBEgIgUsfU9KpQQXWtTB5WKwZ5b+gq7aaDBEQ0xMrD16flWzGiooAAAHp2oAfDEkMSxoAEUYAFSUyng5NADgcU4UylHSgCQe9L1puciloAd0H0oHWkp3bNADgPelpBxRnH1oAd/OgnimFqBz9KAHdatafp93ql6lpZQPPO/RF7D1PoPetXwx4Q1HxPNm3XybMHEl04+UeoX+8a9dtLLRPBOkuLcJGAMy3Ehyzn3Pf6UAZXh/wJp2gWpudVEV3espJDjMcY74B/ma8d8Twada+ItQj0qRXszJlGVcA5AJA9gcj8K6Dxh4/n1Z3tbJmjtM4Jz8z/WuDZyW5OaAAsegpB+FJ79qAfWgBy/Tml5JzTCT79KM0APzQDjpzTc55oBoAfxTWU4OaM+9GevNAFOVcV33wY1U2PjU2bkCO9haPn+8PmH8jXCyr+tXPC96dN8WaXd9PKukJ+mcGgD62ooooAKKKKACiiigAooooAKKKKACiiigAooooAKKKKACiiigAooooAKKKKACiiigAooooAKKKKACiiigAooooAKKKKACiiigAooooAKKKKACiiigAooooAKKKKACiiigAooooAKKKKACiiigAooooAKKKKACiiigAooooAKKKKACiiigAooooAKKKKACiiigAooooAKKKKACiiigAooooAKKKKACiiigClq94NP0a9uyceTA7g+4Bx+tfOSElMt1PJr274kXn2TwVdr3nZIR+Jyf0BrxFeFHtQA8dKlDYGf0qEHFKWwKAJ/Nwc5wRVO/1K61TUt91M8hhQRJuOdqjoB+Zp5kxVGAbryb13UAJM3UetVG4q9cxFeoqg4596AImPFMP/wCunHtzTOpz7UAN78daP1pT1pCDQAh+lIc0uaMUAMIP/wCqmEVJ79aCOMdqAISBimEcYHWpiOuKYRn86AImHSmkc7sYx0qUjuOtMI47/hQBfsdbntsJL86UniLWYpLSOOE8sNzD+VUCDkEelVLizWcg5YY9KAIdBlsI9dtZNUkZbZX3MQM89s+2aj8UJZjxDcmwvXvIXO7zW9T298VFcaY4OYzn2NMhsmU7mxn2oAihh2jkc96uRx/nT0hqdY8GgBETjj8qmQEClVeg7+1SAUAIBzkml74z0pVzilIA60AGeaaTS4z3ppPFAAxI/wDrUxj370pY45qItk+9ACEmmE0pJzTDQAE4GKaelKTxTT60AByRSHpQW5yDTS2OgoAM004x70E80wkUAKWppbHWo5JlX3NVmdn6nj0oAmecDheTUDMznJNIBTwuaAGBakVCe1TRwFjV6K1AHIoAqRWxPWr0duF7VOkQXHapQuO9ADFjAHFSBcDgcindKcOM9sUAIF59qcBRweaPxoAUUvGSKZnijPTFADwaPrTc+9BP4UAOLUucdefWmZ5oz7igB+c570bqZuNGaAH5ozjp1FM3EmlyfagB+fWjIqMGlyccGgB+aAeM0wtkUZxQA/PoaM00HNGfWgB2TnmlJ4IFNz+PrRnigB4PHFJ+NNzznPFLn360AOzijpk03PQ5o69aAHijODTc+1KaAFHPGKXIxSZpAfagB44NA7UgI/Gj270AP7iim9KVelAC4GKcACcGkzS844oAcFHpTgMU0HFPBzQA4U8GoxinA9aAJM5HFKKYD3p2aAH54p4OajBpwPpQA8HvmnjtUXABz3pd4xQBNx60bhioTJTDIKALBbFJuyag8zjk8e9dR4Y8D6x4mKywx/ZrLPNzMCAf90dW/lQBgxRyTTJDEjySudqIgyWPoBXp3hb4XsQl94iOxOq2ank/75/oK7DRPDOh+DrNpYgpnC/vLucjcfx7D2FcZ4s+KixGS10Y7nxg3B7f7o/rQB13iLxZpfhewECqisq4jt48Dj6DoK8Q8ReK7/xBcs88hWIfdiXhVFY17fXN9M81xKzuxyWYk1Wzx1oAcxJ6jNJTT9aAcd6AHUhbHem55pMnsKAHZP8A+qgH1po6HGaUHPFADwfX86Pc800GlBx/9egBwOOgpc5pm4Dnmjd70ANkORVRnaORZF4KkEVafpVOY9aAPsLSpzdaRZXBOTLAjn8VBq3WP4UZm8I6OW6/Y4v/AEEVsUAFFFFABRRRQAUUUUAFFFFABRRRQAUUUUAFFFFABRRRQAUUUUAFFFFABRRRQAUUUUAFFFFABRRRQAUUUUAFFFFABRRRQAUUUUAFFFFABRRRQAUUUUAFFFFABRRRQAUUUUAFFFFABRRRQAUUUUAFFFFABRRRQAUUUUAFFFFABRRRQAUUUUAFFFFABRRRQAUUUUAFFFFABRRRQAUUUUAFFFFABRRRQB5n8XrzFtpdip5eRpWX2AAH8zXmJPGBXYfFK6M/jBYe1vbqv4nLf1FcWT+dADy1NZsUwtxUbPjvQArycGq0c6w3wZvuvwfrSSy8daz5nJ70AdRLCJI8gZ75FZNxAVOfSn6Tqy4EE547Gtee3WVdw5B9KAOYdMZB7VEfatS4tCMnFUJYiCOKAIOaBk5xmnFc5prYHFAARzzSHApTzgUgPoDigBMcZNBJ6fzp3JpPX+dADCOfrSEcU8j3pvTj2oAjwO9MxnPepiOP8KYR14oAiKgcmmEc1MRSEYPH50ARFc0wxCpttLjtzQBAIjjOKUrz3zU2OPwowBxk596AGbemetKB7U5uxGPwpM9ARzQAnJwfSkP14NBHHJo6Z5+lADc8GmH8aCeeDTGJPWgBGOaYxHpQTk0wtQAE0wnNLmmsc0AHXpTfxpc8imk0AITzkU0tSMwA54FVpbjPCfnQBM8ioOTVV5i5OOBTDljkmlC0ANxmnBakSMmrMVtnrQBXSIsauRWvTIqxHbhR0qyqjA4oAijhC9uKnCgAYoHAzTieKAFApeMcUzNGeMdKAH8ikzxTM+9BPOc0ASZOMUE+tR5o39aAHk+p/OjOKZntSbuxoAkDUb//ANdR5yeDmgGgCTdn/wCvRnnpUanPpSliO9ADy3r0oDUzI9aMg0ASA0Bv85qPPPWgH86AJM8e1GfzpmTRk8UASZ7ClBzTBx2oBoAfnIozTR070A4NADweaM8Uzd+VOz6UALntS55pvFGRQA7OKUHNMz3zxSg470AP+lGenem55o3Y9cUAPBpQQOajDUu6gCTdQpGcUwNzml3/AJUASBs+9LkcYH4VFuFLv/WgCUEU7PGPaotwwPWgN780ATA04HPeoN9Lv6YoAsBueaduqt5vJFG8YBJFAFrI796duAFU/Ox/9ajzsH+tAF0P+VAlGOtUPtH1ppuPSgC+ZQO9NM34VQabjr3rrPD3w88S+IgskNkbW1b/AJb3Q2KR7DqfyoAwPO//AF1ueH/CuteJpcadZs0QPzXEnyxr+Pf6DNeteHPhFomk7JtTZtUuhg4cYjU+y9/xrZ13xv4f8L2/kyXEW9Bhba2wSPbjgUAZXhn4W6Vo2y41IjUr0cgMuIkPsvf6mrnib4g6R4ejaFZEuLhRgQQnhfqa8r8S/FfV9bSS2s8WVm3BWP7zD3auDeR5HLOxYnuaAOq8SeONU8RykTS+XAPuxJworm92TUQJ+lO/CgB3ajtTQeeaM44OPrQApNJmmk568+mKOAKAFzx3xR34pvU0ZGetADxyOtH1zSdqTNAD6M4IpmQBRuyaAHZzQWxUZbrTGbHegCRn4xkVDDC99ewWkIJkmkWNQOeScVBNN15+leq/BfwVLfamvia/iK2tuf8ARVYf6x/730H86APdNPtRY6ba2gxiCFI+P9kAf0qzRRQAUUUUAFFFFABRRRQAUUUUAFFFFABRRRQAUUUUAFFFFABRRRQAUUUUAFFFFABRRRQAUUUUAFFFFABRRRQAUUUUAFFFFABRRRQAUUUUAFFFFABRRRQAUUUUAFFFFABRRRQAUUUUAFFFFABRRRQAUUUUAFFFFABRRRQAUUUUAFFFFABRRRQAUUUUAFFFFABRRRQAUUUUAFFFFABRRRQAUUUUAFFFMlkWGF5W+6ilj9BQB8++MLr7X4v1WbduAnKKR6Lx/SsJjUlxOZp5Zm5Mjlyfqc1AWoAGaoHk45pzN6Gq8je1AEUr1VfkZqSQnPPSojx9KAIyMEMDg9q1dO1l4MRy/MlZbDn0xQIZGjMmwlB1I7UAdmrQ3ce6NgQe1U7ixyCQK5q3vZ7Nw0bEgds10thrMF2FWTCvQBlzWzLniqzLg11MtqsgJrLubAjOKAMcjrxSdTxjkVPJCynkdKiKHd9aAGH0pMEc045xSD1FACe9Jjk4/lTj09s0g7jGaAGkYIHFIMCnnBP+NIOAaAI8DJP6UmMkjpUhGB6imkEGgBmM/Wkx9KeenTmm9OMY96AEz7cetIMdaceSetNJH0oAQgGg4HFGOPxppJB9sUAJxnNMdhnNBYn0ph6dqAGluaYx45pWOB0phIoAQnJphJzignnimk+lAATTS1BPb1qNnCDJNADiwxioJJwnHU+1RSTluF4FQ45oAV3aQ8nikAp4WpEiJNAEQTNWI4CSOKnit/zq0iBR0oAhjt8VZSMKKVRj606gB3GKM00+3/6qTORQA8GkzkU3P4Ume1AD93FDE44pmQeBRkenSgBxPGc0A560wYJ60ZxQA4/5NG7PWm9+tJjjNAD8kd+aUt2z1pg4pe+KAFLHqaMnik4PWg0ALnA680Z7+lJnoOaU96AH9qbnik4HFAP+cUAOz9fxo6nrikycUA0AOz29aUdabmk60APBFLkA0zJpTgUAOJozTQ1G7FAD8457Uufao9wo3UAP3Uvf6VHnmlBzzQBJnpRuycYNR7qMn/8AVQBJuPtQGFRbu1LnJ60ASBhRuqLd0oJ46UAS7hS7wOKg3e+aCwHT8qAJ/M/OjzDjI6VXJweKMmgCfzOvNHmVBnPJ78UbutAE5kz0NJ52KgyelWbXTdRvmVbWxubgngCKFm/kKAGmbjOcUglJwa6ew+F/jPUj+70SaAf3rlhF/wChHNdPYfATXZ8G+1Oyth3CBpD/AEH60AeX+dxmmmcnvX0FpXwJ8O2hD6jd3l+wI+XIiT8hz+tdvpnhDw3oabrHSLODbz5hjBYf8COTQB8z6L4K8T+ICDYaTcNEf+Wsq+XH+bdfwr0PRfgPcuyya3qqRL1MNouSfbcf8K9N1fx74Z0NW+16rAXA/wBXEd7fpXm+vfHyFd8Wh6eWPQTXB/oKAPRdG8D+GPDEXm2mnQh0GTc3B3t9dx6fhiszxH8VPDuhKyJci9uR0jgPy592/wAK+fNe8eeIfEjn7dfylCeIkO1R9AOK58EkEsSaAPR/Enxb13XUeC2YWNo3BSE4JHuetcM0zyOXkdmJPJJqshzjOCKlU9z1oAmUnPTGal61Ap4qRT6UASil5AGKbnHPSlyc80AO9sGkzgc/lTe2BR35xQA7PNJ3pKTNADs8c0H2NIcEc0hOD1oAdkj29qD9eKYTSFs0AO3HHc0hb86jLVG0oA5JzQA93AGKqyT46UsUdxe3MdtaxPNPK21I0GSxr3j4efB2LTDFq3iREnvOGjtDykXpu9T7dKAOU+HPwmudeeLVteR4NNB3RwEYef6+i/zr6Ft7eG0t47e3iWKGNQqIowFFSAAAAAADoBS0AFFFFABRRRQAUUUUAFFFFABRRRQAUUUUAFFFFABRRRQAUUUUAFFFFABRRRQAUUUUAFFFFABRRRQAUUUUAFFFFABRRRQAUUUUAFFFFABRRRQAUUUUAFFFFABRRRQAUUUUAFFFFABRRRQAUUUUAFFFFABRRRQAUUUUAFFFFABRRRQAUUUUAFFFFABRRRQAUUUUAFFFFABRRRQAUUUUAFFFFABRRRQAVn66/l+H9Sf+7ayn/wAdNaFU9Wt2vNHvbZBlpoHRR7lSBQB8xsSBTC3NWZIG8vPRhwR71UwQaAGs35iq7t/KppMgnNV2Oc/40ARHGc+/Sm/56VIR37dKguJltoWc9B096AKmoXPkRCJOZG4FU7a5v7GTzopi57oehFNjVppDPJ95unsKnxxQBpQXllqvA22113U/dY/0pk8EttLiQFGHT3rJlgSQ56MOjDqKt2usz2qCC+T7Tbep6r/hQBt2GuzWuEm+eP17iujt7mC8jBjYN6+orkTaxXcZuLGTzo8ZKfxL+Heq8U01q+6JipB6UAdlcWSsMism4s2XJ5qbT9fSTEdxhH9exrXKRzoCOR6igDlWiYVGRg1vXNjknA4rLmtipxigCnjNByWwBT2QgkYppXIyMj2oADzjNNYYOe9H60evQmgBOxHemk89evWndfWmnpQAhOD05xTTkmnZwCR600+360AJ0B6U0kdc0pyBmmk4JoAQ8nB6VGW6YFKxOaYx4oAQkdqjJJNBOaaT3oAaW7UwmlY1GzGgAJPamk8ZpruFGW4qpJOz8LwKAJZbgL05NVWZnPNAWnhelADAtPVMmpUiyasJFx0oAijhzVqOIDtT1UCn9OaABVxS8ijPGaO4IxQAq4HSjPI5pucUE8e9AC5z0xS5PsaaDxilxg8E0AAOKM8ZNGQenWk5oAXPFJ2GMUDp9aB6UAGcA/rmgc5pQc5IFHXucetACZGRS/TGKTIA/wAaX6GgAGeaU89hxSZxSHg59qAHAZHFJ35owfWjPfsKADv7UvHSk5A/pS4yOOtAB/F6UpPPPSkx+dJzxQAvIHFLntSdCPWjoKAF7UAijGKNpoADzS9R1pNp5pxUkg4/CgBoYjilPf8Azirlno+o6g4jsrC5uXPRYYWc/kBXRWPww8Zagu6LQ541/wCnhliP5MQaAORyemKOfavTrT4GeJ5lVp7nTrbPVWlZmH5Lj9a27X4Ay4/0rxAin0itS36lhQB4t0pQMcV9AWnwI0CNf9L1PUZ3/wCmZSNfy2k/rW3afCDwZbKA+nS3Lf3prh8/+OkD9KAPmULTgp6jr7V9ZWvgXwrZqFh0DT+O8kIkP5tmtJNO0qwTMdnZW6j+7EqD+VAHyBFZXU/ENtLJ6bUJrUt/B3iW4QNDoGpsp6MLV8H8cV9Uy67o9uMS6pYx47NcIP61nXHjrwtbf6zXLP8A4A+/+WaAPnu1+F3jK7XKaHKg/wCm0iR/+hMDWjB8GPGMxxJbWsOe8lwp/wDQc17DcfFXwfB01Qyn0jhf+oFZ0vxp8Kx52rfyf7sI/q1AHAR/AfxEwG/UNMT/AIG5/wDZauxfAHUCP32uWqn/AGIWb+oropvjpoq58nTLyT/eZV/xqhL8eoOkOguT23XI/wDiaAIoP2f4gAZ/ELk9xHagfqWrSt/gN4fTm51PUpT/ALBRP/ZTWHN8eL8/6nRrZf8AfkZv5YqjN8c/ELgiOy0+Mn/YY4/NqAO/tfgv4Ot2Bkt7q49pbggf+O4rYt/hv4OtSDHoFqSP+em5/wD0ImvFJ/jF4vlBC3kMQPHyQJ/UVk3HxH8Wzkltcu1z/wA832/yoA+mLbQdF0/5rbS7G3x/EkCr+uKfNrGlWYxPqNnCB2eZVx+tfJN3r+q3zFrnUbmVj3eQms2SeR+Wkc/U0AfVOo/E7wjpobfq0czj+CAFj+fT9a5LUfj1o1uWFlp1xcY6F3Cf418+MaYx7UAesan8e9euMrp9la2i9mI3t+vH6Vwmr+N/EWuOTfapPID/AABsL+QrANNoAV3dzuYkn1JpRk0zNLnJyKAHjP5U8cmowPepA2B7UASq2AKlBPHT8KhXoCePepV55oAmU8fWnqfrUK8cVKvPH6UASAnp604HmmBsUuT68UAOLA+lHbFJ9M5pOfxoAcSPWk455xRnHFNLY6UAOJ/Km7qQnimM2DQA7OBzTWeoy3FQyS0ASSSAdKuaB4f1XxTqiWGl27SyHln/AIYx6se1bngb4dar41uhIA1rpitiS6Zevso7mvpbw74a0vwtpiWGl24jjHLueWkPqx70AYPgT4b6Z4MthLhbrU3H7y6ZensnoP1rtaKKACiiigAooooAKKKKACiiigAooooAKKKKACiiigAooooAKKKKACiiigAooooAKKKKACiiigAooooAKKKKACiiigAooooAKKKKACiiigAooooAKKKKACiiigAooooAKKKKACiiigAooooAKKKKACiiigAooooAKKKKACiiigAooooAKKKKACiiigAooooAKKKKACiiigAooooAKKKKACiiigAooooAKKKKACiiigDxrx34bfRNXkv4oz/Z14+7IHEUh6g+gPUVx1xYhjuQAivpC6tYL61ktrqJZYJF2ujDIIryPxP4C1DQzJeaUHvNP5LRYzJEP/ZhQB5pcxMpOKpkc9K6M+TdglThu475rOubEpnigDLOApJ6CsO4lN7cnk+Sh496vatK6MtqowXGSfaqiIEUAdBQAuMCnwQtPcRQoMvIwUD3JxTa6r4caV/a3jzS4CuUil89/onP8wKAKXjHwpP4Q1hNPuLmOdnhWYMgIwDkYI9eK5wivo7xRoemf21qmr/ZJNa1tohHb2sa7kt+Nqlu2cnPP4DvXnOofC4aNoIm1XV4odZnIFrYRrvMjH+H1z79BQB5kiy203nWkhicc4B4NasOrW1+RFfoLe57TAcN9RRrOiX+g6i9hqUBguEAJUkHg9DxWZJGsgwwBFAGtdWksABf5kP3ZF6GprPVLmybhi8foax7S+u9O+RP39ufvRPzWnELTU18yxfZLjmBzz+BoA6my1WC9XG4K5/hNTzWiSqTiuIKyRSEEFJAela1hr0sACXA3J0z6UAXLiyKk8d6ovAynkfpXRxXNveJ+7cEnt3qvcWgK5FAHOlWyOOtR459605rUrziqckRXPFAFc8dKQj8M+9OIx24poOT75oAaeoPrSHAP86GwDSE56flQAmQOvT+VRtjPB9qUnP9ajYjNACMeajJxTjk1Exz1NAAW4qNiKGbtULuACSeBQA4vxVeSYJx1aopZyxITp61FtPU0AIzNIck0oWnhealSPJoAjVOOlTxxc9KkSPAqVUAWgBojAOAKkAwOlAHGcUvf3zQAoP4UUnel6D2oACeeOlBIOeKSgmgBRnNBPPWkGce1Hf3oAM8daXiijPvQAdOneg5o7dcUdQBQAdxQTxQBwaB196ADoMGlOB/Ok4xzmjr2oAD1JpcZ/xopQpweaAG9c80vcU/bml8ugCPH5UuPSphHx0p6QO7BVUsewAyaAK4Xn/69LsO6ur0z4e+KdWI+zaJdqpGd86+UpHqC+M/hXY6f8C9Zm2m/wBSsrZT1EYaVh+HA/WgDyTy6XYcc19A6d8DNDt8Nf6heXbA5xGFiUj0I5P5EV1+n+APCemf8e2hWhP96ZfOI+hfOKAPlSCzuLmRY4IJJXJwFjQsT+VdPp3wz8X6kMxaHcxKDybnEP6OQT+Ar6lhhit4xHDEkaDoqKAB+Aplxd21mm+5uIoE/vSuFH60AeD2XwI12UKbzUrC3B6hN0jD9AP1robH4CaZG2b/AFq7nXHSCJYv1O6u2v8A4h+E9OJWbW7Z2A+7ATLn/vkEVyt/8cdCgH+hWF5ctnnftjH58/yoA27D4S+DbBVzpZuZF533EzNn6gEL+ldJaeHtFsCDZ6RYW5HeK3RT+YFeOXnx21R9ws9JtIfQyuzn9MVzOofFfxdfqy/2n9nQnpbxqmPx6/rQB9NEqi5JCqO54ArLu/E+hWGRdaxYxEdmnXP5Zr5Tvdb1PUXL3uoXM7HqZJSx/U1Q3k8k0AfTN98WvB9kvy6g90392CFj+pwP1rnL3476ZG5FlpFzMOzSyLH+gzXg5akLZoA9buvjrrEmfsumWUI9XLOf5isS6+L/AIvuC2y+igU9ooE4/EgmuAzxRu//AF0AdFdeNfEl6Ctxrd86HqvnsB+QOKyJLy4lOZJ5HJ7sxNVAcGlzk0ASFyR1o3c4zUeTxRnmgB5akLU3P50etACk80c03NBNABmgnmkJpCaAAnnmmk/jQTmkNACE0w0pNNagBhphPNPPWmHrigBuelITzSmm0AJj0oB556UUHFAD1z17U9eDg9ajGT2qRccGgCRevWpVNQr16c1Kvp60ATDNPUj0qMc8HFPBx9aAJeeuOtKOOelMz15pR060APzkdqTPNNPT096M0AGaaTjjjFBamM35UAKW4qJpMU13wKLS1u9UvY7OxgknuJW2pHGMkmgCN5CTtAySeBXrHw8+D0+rmLVvEaPBZcPHanh5fTd6Cuu+HnwgtdBEWqa6qXOpfeSHrHD/AImvVqAIrW1gsraO2tokhgjXakaDAUVLRRQAUUUUAFFFFABRRRQAUUUUAFFFFABRRRQAUUUUAFFFFABRRRQAUUUUAFFFFABRRRQAUUUUAFFFFABRRRQAUUUUAFFFFABRRRQAUUUUAFFFFABRRRQAUUUUAFFFFABRRRQAUUUUAFFFFABRRRQAUUUUAFFFFABRRRQAUUUUAFFFFABRRRQAUUUUAFFFFABRRRQAUUUUAFFFFABRRRQAUUUUAFFFFABRRRQAUUUUAFFFFABRRRQByHiX4e6Vrxa5gAsr/qJol4Y/7S9/r1ryvWdE1Lw9MLfVrf8AdMcR3Kcxv+Pb6GvoOobm1gvbd7e5hSaFxhkdcg0AfMWo6LFex71J3Dow6iuYurK4sWIlXcnZwP5ivePEfwzmti934dbcnVrOQ/8AoB/oa89miWSSS3uYWhnQ7XjkXBB+lAHBcEZByK0tF1/UPD080+myiGeWIxGQDLKp649DVnUvDzIxktPl9U7GsNt0cnlyoUcfwmgD0nSfid/wjPg1NP0uNp9Wnd5rm6n5Csx7d2OAOta/he3m0fTJ/HviUyXep3J2adBKcs7ngEDtnt6CvIASrAjqOa9G0L4i29xrcGo+KY3nOnW22whhjAjEg7kep457UAd1ceFYrbwH4g1PXkhu9burV7mZnUHyTtOxV9MYrx//AIQTWD4Xg13y18q4lEUMHPmyZ6FR3r2HwBeHxd4W8RX+tShYru7Pnc4VIlVTt9hjisnQNb/4Tf4q25tl2aNo0TNbRjgcDaGx6nPHsKAPD5InikaOVGR1OGVhgg+4qu8ILb1JSQdGXrXqvjPwde3Da94s1SVbOB5j9kgb783O1eOwxz61wVx4f1e20qLVJ9OuI7GQ4SdkIU0AV7fWzgQatF5qdFnX7wq5JZ5g861kFxB/eXqPqKxyuRgjIpkLXFjKJrOQoe654NAGpDPLbSBo3IP1rdsteDDZOMn1rDg1Gz1JtlyPsl1/eH3WPvS3FnJbYMi/KfuupyD+NAHWAxXKbkIaqk9qOeK5yK6mtiCjkge9aUGuBhtlAzQA6W1Kn2qs0RxWgLqCXkMPxqNypBoAzGQ9zUbDHPNXZAvPpVZgM0AVyKjapmqF2UUARMcConfFSzK0RxKrR5GQGGCR9KpSSMeEG0ep60ANkmCH5vvegqq7vKeeB6VJ5RHJoEZNAEarnpT1QnGamSEntUyxgDpQBCsXFTJHgdKk2inYxQA3vTsetAx3oGBQAdaTPNLntRnn2NAB05HWkH1oBpTjFACd6OPrRxjmlxzxigBBzj+VLijnBoA6EigA5HHvQcnIox607aeDjBoAaBx+NKP1/lS45zS7c9RQA0DNAXvipAn608R547UAQhelOCZJya3tH8Ia9rzKNN0q5nQnHmbNsYPu5wo/OvQNK+BWqzqr6nqdtaAjOyFTKw9j0H5E0AeSBDzxU8Ns8zhIo3d2OAqDJNfRukfB7wrpm17iGfUJRg5uJMKD7KuBj2Oa7ay06x02Py7Gzt7VP7sESoP0FAHzTpPww8V6thk0qS2jzgvdnyse+0/MR9Aa7TT/AIDzMqnUtaiQg8pbQl8j/eYj+Ve11i6r4u8P6ID/AGhq1rEw4MYfe/8A3yuT+lAGBpfwj8JabhpLOW+kByGupSce21cKR9Qa6+y0yw01CljY21qp6iCJUH6CvM9U+OWk2526bptzdHB+aVhGM/hnI/KuN1T40+Jb35bMWtgnrFHvYj6tn9AKAPoZ3SNC8jKiLyWY4ArA1Hx34X0vIutbtNw42xN5h/Jc18wajr+qaq/mahqNzcsOAZZS2Pbms7zc0AfQGo/HHQ7fixsLu7IOCXKxL+B5P6VymofHLW5gy2NhZ2oPRmzIw/kP0ryjfTd9AHV6j8QvFOps32jWrpVYYKQv5akfRcCudkuZZmLSyu7dyzZqruo3GgCYvTS/8qi3c0ZoAeW4pN1NzRntQA7NA/Sm0dTQA/jikz+dJ29qM0ALnilBpuaM0AOpc/lTc/nR74oAfmjv7Umc0ZGRQAuRRnnPek60gJ70ALmjpSdTQaADpSGg9BQelACf0pvUU4mmnrQA0imnrTvWmnigBpqM1IaYenSgBhpp6H0NOPWmmgBKO1FHegB4HPNPFR8jpin98/lQBKpJ7mpEOOCKjHTJpy8dDmgCcZ4py/nUa/rTs8dqAJQaM9OaZ+PFLQA4n/8AXTSR+NNJx71G8mOlADmc85qF5eeopjy/rXeeAvhZqfi6SO8vA9npIPMrDDSj0Qf1oA5zwz4U1fxhqa2emQFgP9bM3CRj1J/pX0v4I+H2k+CrMfZ0E9+4/fXTj5j7L6Ct3RNC03w7psdhpdqkECDoo5Y+pPc1o0AFFFFABRRRQAUUUUAFFFFABRRRQAUUUUAFFFFABRRRQAUUUUAFFFFABRRRQAUUUUAFFFFABRRRQAUUUUAFFFFABRRRQAUUUUAFFFFABRRRQAUUUUAFFFFABRRRQAUUUUAFFFFABRRRQAUUUUAFFFFABRRRQAUUUUAFFFFABRRRQAUUUUAFFFFABRRRQAUUUUAFFFFABRRRQAUUUUAFFFFABRRRQAUUUUAFFFFABRRRQAUUUUAFFFFABRRRQAUUUUAFYXiLwlpXiWDF3DsuAPkuI+HX8e49jW7RQB4R4g8Kav4ZYtcR/arHPy3MQ6f7w7fyrmLzS7XUYs4DZHUdRX06yq6FHUMrDBBGQRXn3iT4ZQXLPeaC62lycs0B/wBU59v7p/SgD56vdKubBicGWL1A5FU1ZXGQc16JfW9xZXbWWqWsltcj+Fx19we4rn9S8ORyEzWx8t/UdD9aAMu21zU7PTLnTLe9ljsrrHnQqflaup8BeNLPwVYapc/Z2uNSuNscCdFAGSSx+vauHljltn8u4jKN2PY/jSGgD6A1bWfD2m6HYat4s26hrUiLcJaZzsJGQoXoqjPU/rWfpes3XiSxufFfihVt/Dtln7Lp6j5JnHTI/i9B2zXjVk9vPqtu2pyzG2Mi+e6/M+zvjPtXtlvd6X4quvtu9bfwb4dUFIzx58oGQSPQdh3oA4jxB8PpovCVx4ul8uxaWXzE09U4SNjhRn1rzoqRgkEA9MjrX0ncrcfEj4fQ+WvkR315/wB+4Vc/rhfzNc34j8MT+MFt9J0JLSy0DSMx/bZuPMkHDYPcD+eaAPC5IlkGGH0NTWmpXenDYf8ASLY9Ubmu08U/DPVvDOm/2kJ7e+sc4aa3JO3PTI9K4krQBrQpaakm6xkCyHrC5/kaqTQlHKuhDDsRzWa8GG8yNjHJ6jvWla61uKW2qRb1PyiUdR+NAEO2VD8r8e9J9ruI+CufoatyKplYLyoJAPqKhZAc0ARHU5B1RqhbUZGPEf51I8OfT8KhaH9aAL2hS6fdaxBHrlzcW+ns2JXtlBfHtngfka+mPB3g7wNbWsd/oVvbXx4IupX85wfx+6foBXyusWBWnpGsahot0tzp15NazL/FE5GfrQB9c614d0fxFbG31bT4LpMYBdfmX/dYcr+BryDxH8BHQST+Hb/zB1Frd8N9A44P4gfWk8O/HO7iCQ69YrcLkA3Fv8j49SvQ/hivVtC8YaD4jjU6dqMTyEcwudsgPptPX8MigD5S1bw3qeh3ZttUsZ7WXsJFwG9wehHuOKoC29a+07q0tr63aC7t4riFvvRyoHU/UHivO9f+DGg6k7TaZLJpkzdUUeZEf+Ak5H4HHtQB85eVgdKNnpXoevfCfxPo+6SO0GoW4/js/nP/AHx978gR71xMtu8bMrqysOCGGCKAKJBwRSHoKsmL060wxn8aAIMZPNGO1S7KbtNADMZ4HWkz8uKk2Umw0ANyeOKD1xTtuOaeEJJoAjI9uKAD6dKlEfPSpBFn1oAgC5pdh45q7b2c1xKsUELyyMcKiKWJPsBXaaP8KPFOqhXaxFjEf47xthH/AAHlv0oA4Hy+MUojPU5r3XS/gVZphtV1eabjmO2jCYP+82cj8BXcaZ8P/CukgfZtFtmcHO+cea2fq2cfhQB8wWOjahqcvl2Fjc3T4+7BEznH4Cu10n4NeKb8BriK3sIyM/6RLliPouefY4r6NREjQJGqqijAVRgCnUAeS6Z8CdNiIbVNWuLnodkCCIZ9ydxI/Ku70nwR4a0QD7Do1qjg5Eki+Y4PszZI/CtS/wBU0/S4vMv723tUxkGaQLn6Z61wus/GXw5p+5LFZ9QkA4KLsT825/SgD0WmSyxwRNLNIkcajLM5wB9Sa8B1j4269ebk06C3sEJ4YDzHx9W4/SuA1LXdS1aXzb++uLl+mZZC2B6DNAH0frHxQ8K6OWQ6h9rlH/LO0Hmf+Pfd/WuC1X47XbArpekww9t9w5kP1AGP61420vPWo2kyetAHUaz478Ra6WF9qs7RNjMSNsTj/ZXArnWmJJJJJ96rl6Yx5oAnMmQaYZMjrUe4ZNNOKAJN1G49Kjoz+VAD85ozzTQaPbPNADs0tNzkgUvTvQAo60ZyOKSgHFAC5ozQTSdaAHA0elNyKN1AD88Udqbu4ozk0AOB5ozTc0ButADj6Gl4zTM+9GfSgCTOcc0A0zNBIoAfRmmZFLu70APzSU3NGewoAcT09KTnmkzRmgAzxSYoyM0h6UAFNNO70w8c0ANPSmn0px6U3GaAGGmHJ9qeelMNACHrR1NBpOlADwOOaUHOaaOlPBwRQBIpGKkHvUKnGSKkBzxQBMp4xnil6AY71Er808vxkdcUAPDD2prNgVE0gHSoml4PNAEzSc4zxSW8Nxf3SW1pDJPPIdqoi5JNdF4P8Aa340uQLOEw2Sn95dyjCL9PU/Svo/wd8P8ARfBlsBZw+beEYku5Rl2+noPYUAcF8P8A4Kx2hi1TxQqyzjDR2QOVT0L+p9q9mREjRURQqKMKqjAA9BTqKACiiigAooooAKKKKACiiigAooooAKKKKACiiigAooooAKKKKACiiigAooooAKKKKACiiigAooooAKKKKACiiigAooooAKKKKACiiigAooooAKKKKACiiigAooooAKKKKACiiigAooooAKKKKACiiigAooooAKKKKACiiigAooooAKKKKACiiigAooooAKKKKACiiigAooooAKKKKACiiigAooooAKKKKACiiigAooooAKKKKACiiigAooooAKKKKACiiigAooooAKKKKAM7WND07XrQ22o2yTJ/C3RkPqD1FeTeIvAGq+H99xYb9Q08ckAfvIx7juPcV7VRQB8yTW1rqERUqrZ4KkciuZv9CnsyXt8yRjnYeo+lfR/if4eabrpa6tMWOodfMjX5XP8AtL/UV5Vq+k6joNz9l1e12ZPyTjlH+h/pQB5krhiRyGHUHgipEmlSN4lldY5Mb0DEBsdMjvXUaloUF6vmR/LJ2detcxdWtzYNidMp2kHT8fSgD0Gz+J7ab8N08O2VvLDfDdGbgMMbCSSR3Dc4roPiBp17deFfC8Olic6D5K+e1rGX2kgYYqOvGfxrxkYIyDxXVeHfiJ4j8MWn2Sxula25KxTLvC/T0oA7TXfD2o+Dfh3cNpmtLcaVeqBNBeQGOQFuPkB6fT2rx3Fb3iLxZrPimdJdVvGlCfcjUbUX6AVhmgBmKdDbCdwWHyIc/U05Y2lcIvU9/QVoiNY41VRwKAItpIGKa6mpmXJ55prKMetAFdhxzUTjjpVph16VAwzxQBAVOTSAYxmpiOcim4yelACpgYFWI5SjAqxBHccVW+lOB/OgDvdA+KHiTQgsf2v7ZbjgRXWXwPQHqPpnFelaH8aNGvmWLVLaWwc/8tFPmR++cDI/I189Bz1zT1fA60AfYWn6tp+qxebYXsFymM5ikDY+o7UzUtE0vWIzHqOn210MYBljBI+h6j8K+Sba+mtpVkt5nikU5DI2CDXcaN8W/E2lKsc1xHfxD+G6G5v++hg/mTQB6Fq/wU0C9Zn065udPcnhc+bGPwb5v/Hq47U/glr1sHewu7O9UfdXcYnP4Hj/AMerq9K+NukXJVNTsLi0Y4G+NhKvuT0IH4Gu303xb4f1cL9h1e0kZjgIX2Of+Atg/pQB82ah4H8S6Wzi70W9VU5Z0iMiD/gS5H61hSWzrwyFT7jmvsqmSwxTrtljSRfR1BFAHxt5OP6Unk85Ir66k8N6FKcyaLpzn1a1Q/0pq+GPD6HK6Fpin1FpGP6UAfJCwFzgKT9BXQ6P4E8R62C1hpFw8eM+ZIBGh+jOQD+FfUtvaW1ou22t4oV9I0Cj9KmoA8I0v4H6vPtbUtQtbRD1WMGVx/IfrXc6P8IfC+mBWuYZtQmGDuuHwoI64VcDHsc131VL7VNP0xA9/fW1qp5BmlVM/TJ5oAdZ6fZadD5NjaQW0f8AchjCD8hVmuB1X4v+GNPytrJPfyY48lNq59CWx+YBridW+OGqThk0vTre0BGN8rGVwfUdB+YNAHulYGreNfDmiK323VbcSLkeVG3mPkdsLnH44r5t1fxfruuM39oapcTKxz5e/CA+yjgflWE0x9aAPc9V+OdlFuTS9KlmOPlkuHCAH3UZyPxFcHrPxW8UasWAv/sUechLQeXj/gX3v1rhDIT0qPf3oAtz3ks7l5pXkcnJZmyagaX3qEknmmljg9vSgCUyUzd3NR5yOaCMnigBSxPekzgmk4xnvSGgAzxQaBjBo/GgBR7ikz6UgpSQOlABnilz79KbkDrSFuaAHg9+9L/nio9+Ovam76AJc8Uu4VB5nNJ5nFAFjd70hYGq/mGjfQBY30m6q+89qNx65oAn30F6r7qXdmgCYvxil3mq+6l3UAT7+KTfnvUG6jJNAE+/3pd9QbqM0AT76N9QbjRuoAseZS+Z71WDUoagCxvBPWl3fWq++gNzQBY38Uu6q4el30AT7sUZqDzKXf6UAS7qMnGTUW71o3UAPJNNJ603dSbuc0AB60w04nFMJoASk70hINJmgB4NKD61Hn0pdwoAlBx0qQNjGarF+aXzCOlAFjzMUhlA9afp+nahrF2trp1nNdTsQAkSFjXrnhT4CXt0Y7nxJdC2iOCbWE5cj0LdBQB5Rpumahrd8lnptpLczvwEjXP5+le3+C/gVDbNHfeKJFnkHIsoz8g/3j3+gr1bQvDmkeG7MWuk2MVtGByVHzN7k9TWrQBFbW0Fnbpb20KRQoMKiLgAfSpaKKACiiigAooooAKKKKACiiigAooooAKKKKACiiigAooooAKKKKACiiigAooooAKKKKACiiigAooooAKKKKACiiigAooooAKKKKACiiigAooooAKKKKACiiigAooooAKKKKACiiigAooooAKKKKACiiigAooooAKKKKACiiigAooooAKKKKACiiigAooooAKKKKACiiigAooooAKKKKACiiigAooooAKKKKACiiigAooooAKKKKACiiigAooooAKKKKACiiigAooooAKKKKACiiigAooooAKr3tja6javbXkEc8DjDI4yDViigDybxH8MrqwL3fh52nh5Js5D8w/3T3+hrgJEjnLQXERjmX5XjkXBB9wa+mK57xJ4N0rxLGWuYvKuwMJcxDDj6+o9jQB8zaj4deFjLZnA6mM9KxCxSQxyKUkHVWr1jX/C+reF3JvIhcWWfluoh8v0YdjXNXulWuoRbioYdQR1FAHG4pDwKt3elXdgfumaL1A+YfhTrO0cv50yFcfdU9frQBJa24hTceXbk+3tU3H41IRlvWmsD+FAETDGKY2MdelSN045qNzk9h+FAETj61C3PGKlc5OajbqaAI26Gm4z3p55FIW7DvQA1gOnFJwBxx70Hp2z/Okx9DQAZzQH4xSA+1IfrQBIGxzk04SYqDtjpTunPagCwJSKkWY+vNUt3XtTg+PegDf0/wAS6xpgP2HVLu3B6iOZlB+uDXU2Xxg8V2zL5l3BdKONs0C8/iuD+tech+xpRJ3oA9hg+Oeqr/x8aVYyf9c2dP5k1fT47gKPM8P5buVu8D/0CvEBJk+1KZSeaAPbJfju2CItAVW7FrvP8kFY958bfEE8bJbW1ja56OqFmH5nH6V5UZMd6N5GMH60AdZqfxA8T6rkXOs3IVhtKRN5ake4XANc5Jcu7FnZnY9SxzVQuPWk3YYc0ATGbJqMynPPaoiTnFGaAHNITTdxpp4NJ3xQA4k9zTd1GegOeKQnBFACnjFGc00kA+9IXGKAHZGORSHHrTN4FMMlAEu7FNZs1FvPNNyTQBNuANIZOMVFzUkNtPcNthhklPoilv5UAJvppet+x8B+KtSUNa6BfOp/iMRUfmcV01l8EPGV0FMtvbWynr5s4yPwGaAPOdxNJmvarL9nm/Yg3uuW6L3EMTMR+eK3rT9nzQ4mButWvpx6Kqp/jQB8780Zr6ms/gp4KtGDNYz3B/6bTsR+mK3Lb4eeELMgw+H7EEd2j3fzzQB8fBSxAAJPYCrEen3sv+rs7h/92Nj/AEr7Qh0PSbcDydLso8f3YFH9KuJFHEMRxqg9FGKAPjCDwvr9ycRaLqD/AEt3/wAK0Ivh34wmGU8Oahj1MRH86+wqKAPkqH4UeN5umhTJ/vuo/rVyP4L+N5P+YbEv+9cIP619U0UAfLq/A7xq3W1s1+tytTL8CfGJ6rYL/wBvH/1q+nKKAPmlPgL4sP3prBf+2pP9KlHwB8TnreaeP+Bt/hX0jRQB83/8KA8S/wDP9p//AH03+FJ/woHxN/z+6f8A99t/hX0jRQB82N8AvFA+7daef+2h/wAKgf4EeMF+6bBv+2+P6V9NUUAfL5+BvjQdILI/S5H+FQv8E/G6c/YLdv8AduU/xr6mooA+TZvhH43h/wCYK7/7kiH+tUpPht4zh+94cv8AH+zHu/lX1/RQB8XXHhfxBaHE+i6gn1t2/wAKoyafexH95aXCf70TD+lfb9MeKOUYkRXHowzQB8NsCpIIIPoaM19sy6LpU/8ArdMs5P8AegU/0rMufAvhW8/1+gWDf9sQP5UAfHGaXdX1pP8ACjwTOMHQoY/eN2X+tZU3wN8FyklYL2LP9y5P9QaAPl/d70bq+jLn9n3w7J/x76lqEP1Kt/Ss6X9nazx+58QXAP8At24/oaAPBN1Jvr22X9na6/5Y+IIfbfAf6Gqrfs7axn5ddsT9Y3oA8b30havY/wDhnbWv+g5Yf98P/hSj9nXWO+u2I+kT0AeMk4NJur3O2/ZzlyPtfiFMd/KgP9TW5Zfs9eHYWzeanf3I9F2x/wBDQB837jUtvbXF3II7a3lmf+7GhY/kK+rtO+DvgjTuf7I+0n1uZGf9OldhY6Rp2loEsLG2tlAx+6jC/wAqAPlfRPhB4y1oq39mmzhOD5l02zj1A6mvT/Dv7P2l2bJNrt/JfSDnyYRsj/Pqa9looAoaVommaJbC30yxgtYgMYiQDP1PU1foooAKKKKACiiigAooooAKKKKACiiigAooooAKKKKACiiigAooooAKKKKACiiigAooooAKKKKACiiigAooooAKKKKACiiigAooooAKKKKACiiigAooooAKKKKACiiigAooooAKKKKACiiigAooooAKKKKACiiigAooooAKKKKACiiigAooooAKKKKACiiigAooooAKKKKACiiigAooooAKKKKACiiigAooooAKKKKACiiigAooooAKKKKACiiigAooooAKKKKACiiigAooooAKKKKACiiigAooooAKKKKACiiigAooooAbJGksbRyIrowwysMgj3FedeJfhhFMz3vh91tpzy1sx/dv9D/Cf0r0eigD5tu4J7S6ey1O1ktbheCrjGfceoqlPY5G5eV7V9Ga1oGm+ILQ22o2yyr/AAv0dD6g9q8k8ReAtW8Ob7myL3+nDklR+8jHuO/1FAHns1sUzxiqrggGuhJhuoyVIB9Ky7m2ZDkCgDLPUfzqJyD0qxKhUdOlVn6UARsfSoz+tOY+lNPTB/SgBpOenam/pRjjtSZ680AJ68UhAx15pQaRj60ANJ7CjjPFBI5wM0negA6N0o5xyKM8/SgHmgAHTpS/TpSA+lBPoKAF/KjPp+FJzjNBJNADs8D+lIScdKb0zzQTx1oAcD6c0bgR1qMuvtTTIoNAEueeKMjHpUJlpplPpQBPuBz+lJuFJFb3dx/qbeaTP9xCf5Vr2fgnxTqI3WuhX8g9fJKj9aAMcsOeab5gxXdWfwZ8a3ahjYRW4P8Az2nUEfgM1v2n7PutyAG61ayg9VVWc/0oA8kMuaaZCa98tP2etOXabzXLlz3WKJVH5nNdDZfBHwbaMrSW91csOvnTnB/AYoA+YCxNSw2l1dHEFvNKf9hC38q+vrHwH4U04g2ug2KEd2i3H9c1uQWltajFvbxQj0jQL/KgD5CsfAPizUVDW2gXzIejNEUH64rpbH4HeMLoqZ4rW1U95JgSPwGa+nqKAPB7H9nicn/iYa9Go9LeEn+ZFdNYfAbwrbKPtc19dsPWQIPyA/rXqVFAHK2Pw28H6cVMGg2hdf45AXP65robbT7KzGLW0t4P+uUYX+QqzRQAUUUUAFFFFABRRRQAUUUUAFFFFABRRRQAUUUUAFFFFABRRRQAUUUUAFFFFABRRRQAUUUUAFFFFABRRRQAUUUUAFFFFABRRRQAUUUUAFFFFABRRRQAUUUUAFFFFABRRRQAUUUUAFFFFABRRRQAUUUUAFFFFABRRRQAUUUUAFFFFABRRRQAUUUUAFFFFABRRRQAUUUUAFFFFABRRRQAUUUUAFFFFABRRRQAUUUUAFFFFABRRRQAUUUUAFFFFABRRRQAUUUUAFFFFABRRRQAUUUUAFFFFABRRRQAUUUUAFFFFABRRRQAUUUUAFFFFABRRRQAUUUUAFFFFABRRRQAUUUUAFFFFABRRRQAUUUUAFFFFABRRRQAUUUUAFFFFABRRRQAUUUUAFFFFABRRRQAUUUUAFFFFABRRRQAUUUUAFFFFABRRRQBwviv4a2OtF7zTWWw1A8kqP3ch/2gOn1FeS6vpepaBObbWLR4m/hkHKP9Gr6UqC7s7a/tmt7u3jnhf7ySKGBoA+WJooZMlT1rNltiM17nr3wZ0q+Z5tIvJdOkPPln548/jyK4HU/hJ4ysWY26W19GvQxShSfwbFAHn7RlT0qMqc9K37jwf4xt/wDW+HL/AOqxbh+lUv8AhGfFUjYXQNQz/wBe7f4UAZRB7im4xzmtxPAXjSfG3w9qAz03Rbf51ft/hJ44u8f8SoxZ/wCesyL/AFoA5PKgfepu9fUV38HwN8YSt+9+xQj1M+f5CtSH9n7W3A87WLGP2Cu1AHlJkUdDTTIAa9rtv2ehx9p8QH38q3/xNadv+z9ocZzcatfSj0VVX+hoA8AMoo80elfSsPwO8GxY3x3sv+/cf4AVrW/wq8FWygDQoZD6yszfzNAHyn5vtTk82X/Vxs5/2VJr7BtfB3huzAFvodgmP+mCn+daUOnWNv8A6mzt4/8AciUfyFAHxxBo2s3RCwaXeyE/3YGP9K2Lf4d+M7rHl+H70A93TYP1r64ooA+YLb4K+NbgAva20IP/AD0uF4/AZrYtv2f9dkGbjVrGE9wAzH+VfQ9FAHiNr+z1Dgfa9fkz6RQD+pras/gL4XhUfarrULk/9dAg/QV6pRQBxNn8JPBVmoH9jLMR3mkZv61uWnhDw5YAC20SwjA6fuFP8xW1RQBFDbQW4xBBHEPREC/yqWiigAooooAKKKKACiiigAooooAKKKKACiiigAooooAKKKKACiiigAooooAKKKKACiiigAooooAKKKKACiiigAooooAKKKKACiiigAooooAKKKKACiiigAooooAKKKKACiiigAooooAKKKKACiiigAooooAKKKKACiiigAooooAKKKKACiiigAooooAKKKKACiiigAooooAKKKKACiiigAooooAKKKKACiiigAooooAKKKKACiiigAooooAKKKKACiiigAooooAKKKKACiiigAooooAKKKKACiiigAooooAKKKKACiiigAooooAKKKKACiiigAooooAKKKKACiiigAooooAKKKKACiiigAooooAKKKKACiiigAooooAKKKKACiiigAooooAKKKKACiiigAooooAKKKKACiiigAooooAKKKKACiiigAooooAKKKKACiiigAooooAKKKKACiiigAooooAKKKKACiiigAooooAKKKKACiiigAooooAKKKKACiiigAooooAKKKKACiiigAooooAKKKKACiiigAooooAKKKKACiiigAooooAKKKKACiiigAooooAKKKKACiiigAooooAKKKKACiiigAooooAKKKKACiiigAooooAKKKKACiiigAooooAKKKKACiiigAooooAKKKKACiiigAooooAKKKKACiiigAooooAKKKKACiiigAooooAKKKKACiiigAooooAKKKKACiiigAooooAKKKKACiiigAooooAKKKKACiiigAooooAKKKKACiiigAooooAKKKKACiiigAooooAKKKKACiiigAooooAKKKKACiiigAooooAKKKKACiiigAooooAKKKKACiiigAooooAKKKKACiiigAooooAKKKKACiiigAooooAKKKKACiiigAooooAKKKKACiiigAooooAKKKKACiiigAooooAKKKKACiiigAooooAKKKKACiiigAooooAKKKKACiiigAooooAKKKKACiiigAooooAKKKKACiiigAooooAKKKKACiiigAooooAKKKKACiiigAooooAKKKKACiiigAooooAKKKKACiiigAooooAKKKKACiiigAooooAKKKKACiiigAooooAKKKKACiiigAooooAKKKKACiiigAooooAKKKKACiiigAooooAKKKKACiiigAooooAKKKKACiiigAooooAKKKKACiiigAooooAKKKKACiiigAooooAKKKKACiiigAooooAKKKKACiiigAooooAKKKKACiiigAooooAKKKKACiiigAooooAKKKKACiiigAooooAKKKKACiiigAooooAKKKKACiiigAooooAKKKKACiiigAooooAKKKKACiiigAooooAKKKKACiiigAooooAKKKKACiiigAooooAKKKKACiiigAooooAKKKKACiiigAooooAKKKKACiiigAooooAKKKKACiiigAooooAKKKKACiiigAooooAKKKKACiiigAooooAKKKKACiiigAooooAKKKKACiiigAooooAKKKKACiiigAooooAKKKKACiiigAooooAKKKKACiiigAooooAKKKKACiiigAooooAKKKKACiiigAooooAKKKKACiiigAooooAKKKKACiiigAooooAKKKKACiiigAooooAKKKKACiiigAooooAKKKKACiiigAooooAKKKKACiiigAooooAKKKKACiiigAooooAKKKKACiiigAooooAKKKKACiiigAooooAKKKKACiiigAooooAKKKKACiiigAooooAKKKKACiiigAooooAKKKKACiiigAooooAKKKKACiiigAooooAKKKKACiiigAooooAKKKKACiiigAooooAKKKKACiiigAooooAKKKKACiiigAooooAKKKKACiiigAooooAKKKKACiiigAooooAKKKKACiiigAooooAKKKKACiiigAooooAKKKKACiiigAooooAKKKKACiiigAooooAKKKKACiiigAooooAKKKKACiiigAooooAKKKKACiiigAooooAKKKKACiiigAooooAKKKKACiiigAooooAKKKKACiiigAooooAKKKKACiiigAooooAKKKKACiiigAooooAKKKKACiiigAooooAKKKKACiiigAooooAKKKKACiiigAooooAKKKKACiiigAooooAKKKKACiiigAooooAKKKKACiiigAooooAKKKKACiiigAooooAKKKKACiiigAooooAKKKKACiiigAooooAKKKKACiiigAooooAKKKKACiiigAooooAKKKKACiiigAooooAKKKKACiiigAooooAKKKKACiiigAooooAKKKKACiiigAooooAKKKKACiiigAooooAKKKKACiiigAooooAKKKKACiiigAooooAKKKKACiiigAooooAKKKKACiiigAooooAKKKKACiiigAooooAKKKKACiiigAooooAKKKKACiiigAooooAKKKKACiiigAooooAKKKKACiiigAooooAKKKKACiiigAooooAKKKKACiiigAooooAKKKKACiiigAooooAKKKKACiiigAooooAKKKKACiiigAooooAKKKKACiiigAooooAKKKKACiiigAooooAKKKKACiiigAooooAKKKKACiiigAooooAKKKKACiiigAooooAKKKKACiiigAooooAKKKKACiiigAooooAKKKKACiiigAooooAKKKKACiiigAooooAKKKKACiiigAooooAKKKKACiiigAooooAKKKKACiiigAooooAKKKKACiiigAooooAKKKKACiiigAooooAKKKKACiiigAooooAKKKKACiiigAooooAKKKKACiiigAooooAKKKKACiiigAooooAKKKKACiiigAooooAKKKKACiiigAooooAKKKKACiiigAooooAKKKKACiiigAooooAKKKKACiiigAooooAKKKKACiiigAooooAKKKKACiiigAooooAKKKKACiiigAooooAKKKKACiiigAooooAKKKKACiiigAooooAKKKKACiiigAooooAKKKKACiiigAooooAKKKKACiiigAooooAKKKKACiiigAooooAKKKKACiiigAooooAKKKKACiiigAooooAKKKKACiiigAooooAKKKKACiiigAooooAKKKKACiiigAooooAKKKKACiiigAooooAKKKKACiiigAooooAKKKKACiiigAooooAKKKKACiiigAooooAKKKKACiiigAooooAKKKKACiiigAooooAKKKKACiiigAooooAKKKKACiiigAooooAKKKKACiiigAooooAKKKKACiiigAooooAKKKKACiiigAooooAKKKKACiiigAooooAKKKKACiiigAooooAKKKKACiiigAooooAKKKKACiiigAooooAKKKKACiiigAooooAKKKKACiiigAooooAKKKKACiiigAooooAKKKKACiiigD//2Q==;movable=0;resizable=0;rotatable=0;deletable=0;editable=0;locked=1;connectable=0;" parent="1" vertex="1">
          <mxGeometry x="1280" y="230" width="1890" height="1890" as="geometry" />
        </mxCell>
        <mxCell id="i0nZwowpKzq9zR_XvQ2A-2" value="&lt;font style=&quot;font-size: 120px;&quot;&gt;Wingwin Ursa Minor Fighter (Right)&lt;/font&gt;" style="text;strokeColor=none;fillColor=none;html=1;fontSize=24;fontStyle=1;verticalAlign=middle;align=left;fontFamily=Helvetica;" parent="1" vertex="1">
          <mxGeometry x="23" y="17" width="3790" height="153" as="geometry" />
        </mxCell>
        <mxCell id="H2nf7LDv6Upw4ht9AUnb-4" style="edgeStyle=orthogonalEdgeStyle;rounded=1;orthogonalLoop=1;jettySize=auto;html=1;exitX=1;exitY=0.5;exitDx=0;exitDy=0;fillColor=#e51400;strokeColor=#B20000;curved=0;strokeWidth=10;endArrow=none;endFill=0;" parent="1" source="H2nf7LDv6Upw4ht9AUnb-2" edge="1">
          <mxGeometry relative="1" as="geometry">
            <mxPoint x="2210" y="430" as="targetPoint" />
          </mxGeometry>
        </mxCell>
        <mxCell id="H2nf7LDv6Upw4ht9AUnb-2" value="" style="rounded=0;whiteSpace=wrap;html=1;strokeWidth=4;" parent="1" vertex="1">
          <mxGeometry x="860" y="390" width="400" height="80" as="geometry" />
        </mxCell>
        <mxCell id="H2nf7LDv6Upw4ht9AUnb-9" style="edgeStyle=orthogonalEdgeStyle;rounded=1;orthogonalLoop=1;jettySize=auto;html=1;exitX=1;exitY=0.5;exitDx=0;exitDy=0;fillColor=#e51400;strokeColor=#B20000;curved=0;strokeWidth=10;endArrow=none;endFill=0;" parent="1" source="H2nf7LDv6Upw4ht9AUnb-5" edge="1">
          <mxGeometry relative="1" as="geometry">
            <mxPoint x="2320" y="420" as="targetPoint" />
            <Array as="points">
              <mxPoint x="690" y="367" />
              <mxPoint x="690" y="330" />
              <mxPoint x="2321" y="330" />
            </Array>
          </mxGeometry>
        </mxCell>
        <mxCell id="H2nf7LDv6Upw4ht9AUnb-5" value="" style="rounded=0;whiteSpace=wrap;html=1;strokeWidth=4;" parent="1" vertex="1">
          <mxGeometry x="120" y="327" width="400" height="80" as="geometry" />
        </mxCell>
        <mxCell id="H2nf7LDv6Upw4ht9AUnb-6" value="" style="rounded=0;whiteSpace=wrap;html=1;strokeWidth=4;" parent="1" vertex="1">
          <mxGeometry x="120" y="407" width="400" height="80" as="geometry" />
        </mxCell>
        <mxCell id="H2nf7LDv6Upw4ht9AUnb-7" value="" style="rounded=0;whiteSpace=wrap;html=1;strokeWidth=4;" parent="1" vertex="1">
          <mxGeometry x="120" y="487" width="400" height="80" as="geometry" />
        </mxCell>
        <mxCell id="H2nf7LDv6Upw4ht9AUnb-8" value="" style="rounded=0;whiteSpace=wrap;html=1;strokeWidth=4;" parent="1" vertex="1">
          <mxGeometry x="120" y="567" width="400" height="80" as="geometry" />
        </mxCell>
        <mxCell id="H2nf7LDv6Upw4ht9AUnb-15" style="edgeStyle=orthogonalEdgeStyle;rounded=1;orthogonalLoop=1;jettySize=auto;html=1;exitX=1;exitY=0.5;exitDx=0;exitDy=0;fillColor=#e51400;strokeColor=#B20000;curved=0;strokeWidth=10;endArrow=none;endFill=0;" parent="1" source="H2nf7LDv6Upw4ht9AUnb-10" edge="1">
          <mxGeometry relative="1" as="geometry">
            <mxPoint x="2180" y="560" as="targetPoint" />
            <Array as="points">
              <mxPoint x="630" y="723" />
              <mxPoint x="630" y="560" />
              <mxPoint x="2181" y="560" />
            </Array>
          </mxGeometry>
        </mxCell>
        <mxCell id="H2nf7LDv6Upw4ht9AUnb-10" value="" style="rounded=0;whiteSpace=wrap;html=1;strokeWidth=4;" parent="1" vertex="1">
          <mxGeometry x="120" y="755" width="400" height="80" as="geometry" />
        </mxCell>
        <mxCell id="H2nf7LDv6Upw4ht9AUnb-11" value="" style="rounded=0;whiteSpace=wrap;html=1;strokeWidth=4;" parent="1" vertex="1">
          <mxGeometry x="120" y="835" width="400" height="80" as="geometry" />
        </mxCell>
        <mxCell id="H2nf7LDv6Upw4ht9AUnb-12" value="" style="rounded=0;whiteSpace=wrap;html=1;strokeWidth=4;" parent="1" vertex="1">
          <mxGeometry x="120" y="915" width="400" height="80" as="geometry" />
        </mxCell>
        <mxCell id="H2nf7LDv6Upw4ht9AUnb-13" value="" style="rounded=0;whiteSpace=wrap;html=1;strokeWidth=4;" parent="1" vertex="1">
          <mxGeometry x="120" y="995" width="400" height="80" as="geometry" />
        </mxCell>
        <mxCell id="H2nf7LDv6Upw4ht9AUnb-14" value="" style="rounded=0;whiteSpace=wrap;html=1;strokeWidth=4;" parent="1" vertex="1">
          <mxGeometry x="120" y="1075" width="400" height="80" as="geometry" />
        </mxCell>
        <mxCell id="H2nf7LDv6Upw4ht9AUnb-21" style="edgeStyle=orthogonalEdgeStyle;rounded=1;orthogonalLoop=1;jettySize=auto;html=1;exitX=1;exitY=0.5;exitDx=0;exitDy=0;fillColor=#e51400;strokeColor=#B20000;curved=0;strokeWidth=10;endArrow=none;endFill=0;" parent="1" source="H2nf7LDv6Upw4ht9AUnb-16" edge="1">
          <mxGeometry relative="1" as="geometry">
            <mxPoint x="2300" y="630" as="targetPoint" />
          </mxGeometry>
        </mxCell>
        <mxCell id="H2nf7LDv6Upw4ht9AUnb-16" value="" style="rounded=0;whiteSpace=wrap;html=1;strokeWidth=4;" parent="1" vertex="1">
          <mxGeometry x="860" y="680" width="400" height="80" as="geometry" />
        </mxCell>
        <mxCell id="H2nf7LDv6Upw4ht9AUnb-17" value="" style="rounded=0;whiteSpace=wrap;html=1;strokeWidth=4;" parent="1" vertex="1">
          <mxGeometry x="860" y="760" width="400" height="80" as="geometry" />
        </mxCell>
        <mxCell id="H2nf7LDv6Upw4ht9AUnb-18" value="" style="rounded=0;whiteSpace=wrap;html=1;strokeWidth=4;" parent="1" vertex="1">
          <mxGeometry x="860" y="840" width="400" height="80" as="geometry" />
        </mxCell>
        <mxCell id="H2nf7LDv6Upw4ht9AUnb-19" value="" style="rounded=0;whiteSpace=wrap;html=1;strokeWidth=4;" parent="1" vertex="1">
          <mxGeometry x="860" y="920" width="400" height="80" as="geometry" />
        </mxCell>
        <mxCell id="H2nf7LDv6Upw4ht9AUnb-20" value="" style="rounded=0;whiteSpace=wrap;html=1;strokeWidth=4;" parent="1" vertex="1">
          <mxGeometry x="860" y="1000" width="400" height="80" as="geometry" />
        </mxCell>
        <mxCell id="H2nf7LDv6Upw4ht9AUnb-27" style="edgeStyle=orthogonalEdgeStyle;rounded=1;orthogonalLoop=1;jettySize=auto;html=1;exitX=1;exitY=0.5;exitDx=0;exitDy=0;fillColor=#e51400;strokeColor=#B20000;curved=0;strokeWidth=10;endArrow=none;endFill=0;" parent="1" source="H2nf7LDv6Upw4ht9AUnb-22" edge="1">
          <mxGeometry relative="1" as="geometry">
            <mxPoint x="2130" y="870" as="targetPoint" />
            <Array as="points">
              <mxPoint x="580" y="1242" />
              <mxPoint x="580" y="1170" />
              <mxPoint x="1470" y="1170" />
              <mxPoint x="1470" y="870" />
            </Array>
          </mxGeometry>
        </mxCell>
        <mxCell id="H2nf7LDv6Upw4ht9AUnb-22" value="" style="rounded=0;whiteSpace=wrap;html=1;strokeWidth=4;" parent="1" vertex="1">
          <mxGeometry x="120" y="1202" width="400" height="80" as="geometry" />
        </mxCell>
        <mxCell id="H2nf7LDv6Upw4ht9AUnb-23" value="" style="rounded=0;whiteSpace=wrap;html=1;strokeWidth=4;" parent="1" vertex="1">
          <mxGeometry x="120" y="1282" width="400" height="80" as="geometry" />
        </mxCell>
        <mxCell id="H2nf7LDv6Upw4ht9AUnb-24" value="" style="rounded=0;whiteSpace=wrap;html=1;strokeWidth=4;" parent="1" vertex="1">
          <mxGeometry x="120" y="1362" width="400" height="80" as="geometry" />
        </mxCell>
        <mxCell id="H2nf7LDv6Upw4ht9AUnb-25" value="" style="rounded=0;whiteSpace=wrap;html=1;strokeWidth=4;" parent="1" vertex="1">
          <mxGeometry x="120" y="1442" width="400" height="80" as="geometry" />
        </mxCell>
        <mxCell id="H2nf7LDv6Upw4ht9AUnb-26" value="" style="rounded=0;whiteSpace=wrap;html=1;strokeWidth=4;" parent="1" vertex="1">
          <mxGeometry x="120" y="1522" width="400" height="80" as="geometry" />
        </mxCell>
        <mxCell id="H2nf7LDv6Upw4ht9AUnb-28" value="" style="rounded=0;whiteSpace=wrap;html=1;strokeWidth=4;" parent="1" vertex="1">
          <mxGeometry x="640" y="1205" width="400" height="80" as="geometry" />
        </mxCell>
        <mxCell id="H2nf7LDv6Upw4ht9AUnb-32" style="edgeStyle=orthogonalEdgeStyle;rounded=1;orthogonalLoop=1;jettySize=auto;html=1;exitX=1;exitY=0.5;exitDx=0;exitDy=0;fillColor=#e51400;strokeColor=#B20000;curved=0;strokeWidth=10;endArrow=none;endFill=0;" parent="1" source="H2nf7LDv6Upw4ht9AUnb-29" edge="1">
          <mxGeometry relative="1" as="geometry">
            <mxPoint x="1960" y="1340" as="targetPoint" />
          </mxGeometry>
        </mxCell>
        <mxCell id="H2nf7LDv6Upw4ht9AUnb-29" value="" style="rounded=0;whiteSpace=wrap;html=1;strokeWidth=4;" parent="1" vertex="1">
          <mxGeometry x="1040" y="1205" width="400" height="80" as="geometry" />
        </mxCell>
        <mxCell id="H2nf7LDv6Upw4ht9AUnb-30" value="" style="rounded=0;whiteSpace=wrap;html=1;strokeWidth=4;" parent="1" vertex="1">
          <mxGeometry x="640" y="1285" width="400" height="80" as="geometry" />
        </mxCell>
        <mxCell id="H2nf7LDv6Upw4ht9AUnb-31" value="" style="rounded=0;whiteSpace=wrap;html=1;strokeWidth=4;" parent="1" vertex="1">
          <mxGeometry x="1040" y="1285" width="400" height="80" as="geometry" />
        </mxCell>
        <mxCell id="H2nf7LDv6Upw4ht9AUnb-34" style="edgeStyle=orthogonalEdgeStyle;rounded=1;orthogonalLoop=1;jettySize=auto;html=1;exitX=1;exitY=0.5;exitDx=0;exitDy=0;fillColor=#e51400;strokeColor=#B20000;curved=0;strokeWidth=10;endArrow=none;endFill=0;" parent="1" source="H2nf7LDv6Upw4ht9AUnb-33" edge="1">
          <mxGeometry relative="1" as="geometry">
            <mxPoint x="1830" y="1440" as="targetPoint" />
            <Array as="points">
              <mxPoint x="1821" y="1439" />
              <mxPoint x="1720" y="1440" />
            </Array>
          </mxGeometry>
        </mxCell>
        <mxCell id="H2nf7LDv6Upw4ht9AUnb-33" value="" style="rounded=0;whiteSpace=wrap;html=1;strokeWidth=4;" parent="1" vertex="1">
          <mxGeometry x="640" y="1399" width="400" height="80" as="geometry" />
        </mxCell>
        <mxCell id="H2nf7LDv6Upw4ht9AUnb-37" style="edgeStyle=orthogonalEdgeStyle;rounded=1;orthogonalLoop=1;jettySize=auto;html=1;exitX=1;exitY=0.5;exitDx=0;exitDy=0;fillColor=#e51400;strokeColor=#B20000;curved=0;strokeWidth=10;endArrow=none;endFill=0;" parent="1" source="H2nf7LDv6Upw4ht9AUnb-35" edge="1">
          <mxGeometry relative="1" as="geometry">
            <mxPoint x="1890" y="1490" as="targetPoint" />
            <Array as="points">
              <mxPoint x="560" y="1712" />
              <mxPoint x="560" y="1640" />
              <mxPoint x="1690" y="1640" />
              <mxPoint x="1690" y="1560" />
              <mxPoint x="1891" y="1560" />
              <mxPoint x="1891" y="1490" />
            </Array>
          </mxGeometry>
        </mxCell>
        <mxCell id="H2nf7LDv6Upw4ht9AUnb-35" value="" style="rounded=0;whiteSpace=wrap;html=1;strokeWidth=4;" parent="1" vertex="1">
          <mxGeometry x="120" y="1672" width="400" height="80" as="geometry" />
        </mxCell>
        <mxCell id="H2nf7LDv6Upw4ht9AUnb-36" value="" style="rounded=0;whiteSpace=wrap;html=1;strokeWidth=4;" parent="1" vertex="1">
          <mxGeometry x="120" y="1749" width="400" height="80" as="geometry" />
        </mxCell>
        <mxCell id="H2nf7LDv6Upw4ht9AUnb-39" style="edgeStyle=orthogonalEdgeStyle;rounded=1;orthogonalLoop=1;jettySize=auto;html=1;exitX=1;exitY=0.5;exitDx=0;exitDy=0;fillColor=#e51400;strokeColor=#B20000;curved=0;strokeWidth=10;endArrow=none;endFill=0;" parent="1" source="H2nf7LDv6Upw4ht9AUnb-38" edge="1">
          <mxGeometry relative="1" as="geometry">
            <mxPoint x="1850" y="1770" as="targetPoint" />
          </mxGeometry>
        </mxCell>
        <mxCell id="H2nf7LDv6Upw4ht9AUnb-38" value="" style="rounded=0;whiteSpace=wrap;html=1;strokeWidth=4;" parent="1" vertex="1">
          <mxGeometry x="640" y="1732" width="400" height="80" as="geometry" />
        </mxCell>
        <mxCell id="H2nf7LDv6Upw4ht9AUnb-41" style="edgeStyle=orthogonalEdgeStyle;rounded=1;orthogonalLoop=1;jettySize=auto;html=1;exitX=0;exitY=0.5;exitDx=0;exitDy=0;fillColor=#e51400;strokeColor=#B20000;curved=0;strokeWidth=10;endArrow=none;endFill=0;" parent="1" source="H2nf7LDv6Upw4ht9AUnb-40" edge="1">
          <mxGeometry relative="1" as="geometry">
            <mxPoint x="2450" y="480" as="targetPoint" />
          </mxGeometry>
        </mxCell>
        <mxCell id="H2nf7LDv6Upw4ht9AUnb-40" value="" style="rounded=0;whiteSpace=wrap;html=1;strokeWidth=4;" parent="1" vertex="1">
          <mxGeometry x="2720" y="159" width="400" height="80" as="geometry" />
        </mxCell>
        <mxCell id="H2nf7LDv6Upw4ht9AUnb-43" style="edgeStyle=orthogonalEdgeStyle;rounded=1;orthogonalLoop=1;jettySize=auto;html=1;exitX=0;exitY=0.5;exitDx=0;exitDy=0;fillColor=#e51400;strokeColor=#B20000;curved=0;strokeWidth=10;endArrow=none;endFill=0;" parent="1" source="H2nf7LDv6Upw4ht9AUnb-42" edge="1">
          <mxGeometry relative="1" as="geometry">
            <mxPoint x="2430" y="620" as="targetPoint" />
            <Array as="points">
              <mxPoint x="2530" y="297" />
              <mxPoint x="2530" y="620" />
            </Array>
          </mxGeometry>
        </mxCell>
        <mxCell id="H2nf7LDv6Upw4ht9AUnb-42" value="" style="rounded=0;whiteSpace=wrap;html=1;strokeWidth=4;" parent="1" vertex="1">
          <mxGeometry x="2720" y="257" width="400" height="80" as="geometry" />
        </mxCell>
        <mxCell id="H2nf7LDv6Upw4ht9AUnb-45" value="" style="rounded=0;whiteSpace=wrap;html=1;strokeWidth=4;" parent="1" vertex="1">
          <mxGeometry x="3280" y="159" width="400" height="80" as="geometry" />
        </mxCell>
        <mxCell id="H2nf7LDv6Upw4ht9AUnb-46" value="" style="rounded=0;whiteSpace=wrap;html=1;strokeWidth=4;" parent="1" vertex="1">
          <mxGeometry x="3280" y="239" width="400" height="80" as="geometry" />
        </mxCell>
        <mxCell id="H2nf7LDv6Upw4ht9AUnb-47" value="" style="rounded=0;whiteSpace=wrap;html=1;strokeWidth=4;" parent="1" vertex="1">
          <mxGeometry x="3280" y="319" width="400" height="80" as="geometry" />
        </mxCell>
        <mxCell id="H2nf7LDv6Upw4ht9AUnb-51" style="edgeStyle=orthogonalEdgeStyle;rounded=1;orthogonalLoop=1;jettySize=auto;html=1;exitX=0;exitY=0.5;exitDx=0;exitDy=0;fillColor=#e51400;strokeColor=#B20000;curved=0;strokeWidth=10;endArrow=none;endFill=0;" parent="1" source="H2nf7LDv6Upw4ht9AUnb-48" edge="1">
          <mxGeometry relative="1" as="geometry">
            <mxPoint x="2680" y="530" as="targetPoint" />
          </mxGeometry>
        </mxCell>
        <mxCell id="H2nf7LDv6Upw4ht9AUnb-48" value="" style="rounded=0;whiteSpace=wrap;html=1;strokeWidth=4;" parent="1" vertex="1">
          <mxGeometry x="3280" y="399" width="400" height="80" as="geometry" />
        </mxCell>
        <mxCell id="H2nf7LDv6Upw4ht9AUnb-49" value="" style="rounded=0;whiteSpace=wrap;html=1;strokeWidth=4;" parent="1" vertex="1">
          <mxGeometry x="3280" y="479" width="400" height="80" as="geometry" />
        </mxCell>
        <mxCell id="H2nf7LDv6Upw4ht9AUnb-54" style="edgeStyle=orthogonalEdgeStyle;rounded=1;orthogonalLoop=1;jettySize=auto;html=1;exitX=0;exitY=0.5;exitDx=0;exitDy=0;fillColor=#e51400;strokeColor=#B20000;curved=0;strokeWidth=10;endArrow=none;endFill=0;" parent="1" source="H2nf7LDv6Upw4ht9AUnb-52" edge="1">
          <mxGeometry relative="1" as="geometry">
            <mxPoint x="2570" y="660" as="targetPoint" />
          </mxGeometry>
        </mxCell>
        <mxCell id="H2nf7LDv6Upw4ht9AUnb-52" value="" style="rounded=0;whiteSpace=wrap;html=1;strokeWidth=4;" parent="1" vertex="1">
          <mxGeometry x="3280" y="619" width="400" height="80" as="geometry" />
        </mxCell>
        <mxCell id="H2nf7LDv6Upw4ht9AUnb-53" value="" style="rounded=0;whiteSpace=wrap;html=1;strokeWidth=4;" parent="1" vertex="1">
          <mxGeometry x="3280" y="699" width="400" height="80" as="geometry" />
        </mxCell>
        <mxCell id="H2nf7LDv6Upw4ht9AUnb-57" style="edgeStyle=orthogonalEdgeStyle;rounded=1;orthogonalLoop=1;jettySize=auto;html=1;exitX=0;exitY=0.5;exitDx=0;exitDy=0;fillColor=#e51400;strokeColor=#B20000;curved=0;strokeWidth=10;endArrow=none;endFill=0;" parent="1" source="H2nf7LDv6Upw4ht9AUnb-55" edge="1">
          <mxGeometry relative="1" as="geometry">
            <mxPoint x="2470" y="762.1111111111109" as="targetPoint" />
          </mxGeometry>
        </mxCell>
        <mxCell id="H2nf7LDv6Upw4ht9AUnb-55" value="" style="rounded=0;whiteSpace=wrap;html=1;strokeWidth=4;" parent="1" vertex="1">
          <mxGeometry x="2720" y="723" width="400" height="80" as="geometry" />
        </mxCell>
        <mxCell id="H2nf7LDv6Upw4ht9AUnb-56" value="" style="rounded=0;whiteSpace=wrap;html=1;strokeWidth=4;" parent="1" vertex="1">
          <mxGeometry x="2720" y="803" width="400" height="80" as="geometry" />
        </mxCell>
        <mxCell id="H2nf7LDv6Upw4ht9AUnb-58" value="" style="rounded=0;whiteSpace=wrap;html=1;strokeWidth=4;" parent="1" vertex="1">
          <mxGeometry x="2880" y="1190" width="400" height="80" as="geometry" />
        </mxCell>
        <mxCell id="H2nf7LDv6Upw4ht9AUnb-59" value="" style="rounded=0;whiteSpace=wrap;html=1;strokeWidth=4;" parent="1" vertex="1">
          <mxGeometry x="3280" y="1190" width="400" height="80" as="geometry" />
        </mxCell>
        <mxCell id="H2nf7LDv6Upw4ht9AUnb-62" style="edgeStyle=orthogonalEdgeStyle;rounded=1;orthogonalLoop=1;jettySize=auto;html=1;exitX=0.5;exitY=1;exitDx=0;exitDy=0;fillColor=#e51400;strokeColor=#B20000;curved=0;strokeWidth=10;endArrow=none;endFill=0;" parent="1" source="H2nf7LDv6Upw4ht9AUnb-60" edge="1">
          <mxGeometry relative="1" as="geometry">
            <mxPoint x="2660" y="1640" as="targetPoint" />
            <Array as="points">
              <mxPoint x="3080" y="1640" />
            </Array>
          </mxGeometry>
        </mxCell>
        <mxCell id="H2nf7LDv6Upw4ht9AUnb-60" value="" style="rounded=0;whiteSpace=wrap;html=1;strokeWidth=4;" parent="1" vertex="1">
          <mxGeometry x="2880" y="1270" width="400" height="80" as="geometry" />
        </mxCell>
        <mxCell id="H2nf7LDv6Upw4ht9AUnb-61" value="" style="rounded=0;whiteSpace=wrap;html=1;strokeWidth=4;" parent="1" vertex="1">
          <mxGeometry x="3280" y="1270" width="400" height="80" as="geometry" />
        </mxCell>
        <mxCell id="H2nf7LDv6Upw4ht9AUnb-63" value="" style="rounded=0;whiteSpace=wrap;html=1;strokeWidth=4;" parent="1" vertex="1">
          <mxGeometry x="3280" y="1408" width="400" height="80" as="geometry" />
        </mxCell>
        <mxCell id="H2nf7LDv6Upw4ht9AUnb-65" style="edgeStyle=orthogonalEdgeStyle;rounded=1;orthogonalLoop=1;jettySize=auto;html=1;exitX=0.25;exitY=1;exitDx=0;exitDy=0;fillColor=#e51400;strokeColor=#B20000;curved=0;strokeWidth=10;endArrow=none;endFill=0;" parent="1" source="H2nf7LDv6Upw4ht9AUnb-64" edge="1">
          <mxGeometry relative="1" as="geometry">
            <mxPoint x="2410" y="1720" as="targetPoint" />
            <Array as="points">
              <mxPoint x="3380" y="1720" />
              <mxPoint x="2421" y="1720" />
            </Array>
          </mxGeometry>
        </mxCell>
        <mxCell id="H2nf7LDv6Upw4ht9AUnb-64" value="" style="rounded=0;whiteSpace=wrap;html=1;strokeWidth=4;" parent="1" vertex="1">
          <mxGeometry x="3280" y="1485" width="400" height="80" as="geometry" />
        </mxCell>
        <mxCell id="H2nf7LDv6Upw4ht9AUnb-67" style="edgeStyle=orthogonalEdgeStyle;rounded=1;orthogonalLoop=1;jettySize=auto;html=1;exitX=0;exitY=0.5;exitDx=0;exitDy=0;fillColor=#e51400;strokeColor=#B20000;curved=0;strokeWidth=10;endArrow=none;endFill=0;" parent="1" source="H2nf7LDv6Upw4ht9AUnb-66" edge="1">
          <mxGeometry relative="1" as="geometry">
            <mxPoint x="2490" y="1770" as="targetPoint" />
          </mxGeometry>
        </mxCell>
        <mxCell id="H2nf7LDv6Upw4ht9AUnb-66" value="" style="rounded=0;whiteSpace=wrap;html=1;strokeWidth=4;" parent="1" vertex="1">
          <mxGeometry x="3280" y="1790" width="400" height="80" as="geometry" />
        </mxCell>
        <mxCell id="H2nf7LDv6Upw4ht9AUnb-68" value="" style="shape=lineEllipse;perimeter=ellipsePerimeter;whiteSpace=wrap;html=1;backgroundOutline=1;fillColor=#000000;" parent="1" vertex="1">
          <mxGeometry x="40" y="757" width="70" height="70" as="geometry" />
        </mxCell>
        <mxCell id="H2nf7LDv6Upw4ht9AUnb-69" value="" style="html=1;shadow=0;dashed=0;align=center;verticalAlign=middle;shape=mxgraph.arrows2.arrow;dy=0.6;dx=40;direction=north;notch=0;fillColor=#000000;" parent="1" vertex="1">
          <mxGeometry x="40" y="837" width="70" height="70" as="geometry" />
        </mxCell>
        <mxCell id="H2nf7LDv6Upw4ht9AUnb-70" value="" style="html=1;shadow=0;dashed=0;align=center;verticalAlign=middle;shape=mxgraph.arrows2.arrow;dy=0.6;dx=40;direction=south;notch=0;fillColor=#000000;" parent="1" vertex="1">
          <mxGeometry x="40" y="1000" width="70" height="70" as="geometry" />
        </mxCell>
        <mxCell id="H2nf7LDv6Upw4ht9AUnb-71" value="" style="html=1;shadow=0;dashed=0;align=center;verticalAlign=middle;shape=mxgraph.arrows2.arrow;dy=0.6;dx=40;flipH=1;notch=0;fillColor=#000000;" parent="1" vertex="1">
          <mxGeometry x="40" y="1077" width="70" height="70" as="geometry" />
        </mxCell>
        <mxCell id="H2nf7LDv6Upw4ht9AUnb-72" value="" style="html=1;shadow=0;dashed=0;align=center;verticalAlign=middle;shape=mxgraph.arrows2.arrow;dy=0.6;dx=40;notch=0;fillColor=#000000;" parent="1" vertex="1">
          <mxGeometry x="40" y="920" width="70" height="70" as="geometry" />
        </mxCell>
        <mxCell id="H2nf7LDv6Upw4ht9AUnb-74" value="" style="shape=lineEllipse;perimeter=ellipsePerimeter;whiteSpace=wrap;html=1;backgroundOutline=1;fillColor=#000000;" parent="1" vertex="1">
          <mxGeometry x="780" y="685" width="70" height="70" as="geometry" />
        </mxCell>
        <mxCell id="H2nf7LDv6Upw4ht9AUnb-75" value="" style="html=1;shadow=0;dashed=0;align=center;verticalAlign=middle;shape=mxgraph.arrows2.arrow;dy=0.6;dx=40;direction=north;notch=0;fillColor=#000000;" parent="1" vertex="1">
          <mxGeometry x="780" y="765" width="70" height="70" as="geometry" />
        </mxCell>
        <mxCell id="H2nf7LDv6Upw4ht9AUnb-76" value="" style="html=1;shadow=0;dashed=0;align=center;verticalAlign=middle;shape=mxgraph.arrows2.arrow;dy=0.6;dx=40;direction=south;notch=0;fillColor=#000000;" parent="1" vertex="1">
          <mxGeometry x="780" y="920" width="70" height="70" as="geometry" />
        </mxCell>
        <mxCell id="H2nf7LDv6Upw4ht9AUnb-77" value="" style="html=1;shadow=0;dashed=0;align=center;verticalAlign=middle;shape=mxgraph.arrows2.arrow;dy=0.6;dx=40;flipH=1;notch=0;fillColor=#000000;" parent="1" vertex="1">
          <mxGeometry x="780" y="1005" width="70" height="70" as="geometry" />
        </mxCell>
        <mxCell id="H2nf7LDv6Upw4ht9AUnb-78" value="" style="html=1;shadow=0;dashed=0;align=center;verticalAlign=middle;shape=mxgraph.arrows2.arrow;dy=0.6;dx=40;notch=0;fillColor=#000000;" parent="1" vertex="1">
          <mxGeometry x="780" y="848" width="70" height="70" as="geometry" />
        </mxCell>
        <mxCell id="H2nf7LDv6Upw4ht9AUnb-79" value="" style="shape=lineEllipse;perimeter=ellipsePerimeter;whiteSpace=wrap;html=1;backgroundOutline=1;fillColor=#000000;" parent="1" vertex="1">
          <mxGeometry x="40" y="1207" width="70" height="70" as="geometry" />
        </mxCell>
        <mxCell id="H2nf7LDv6Upw4ht9AUnb-80" value="" style="html=1;shadow=0;dashed=0;align=center;verticalAlign=middle;shape=mxgraph.arrows2.arrow;dy=0.6;dx=40;direction=north;notch=0;fillColor=#000000;" parent="1" vertex="1">
          <mxGeometry x="40" y="1287" width="70" height="70" as="geometry" />
        </mxCell>
        <mxCell id="H2nf7LDv6Upw4ht9AUnb-81" value="" style="html=1;shadow=0;dashed=0;align=center;verticalAlign=middle;shape=mxgraph.arrows2.arrow;dy=0.6;dx=40;direction=south;notch=0;fillColor=#000000;" parent="1" vertex="1">
          <mxGeometry x="40" y="1447" width="70" height="70" as="geometry" />
        </mxCell>
        <mxCell id="H2nf7LDv6Upw4ht9AUnb-82" value="" style="html=1;shadow=0;dashed=0;align=center;verticalAlign=middle;shape=mxgraph.arrows2.arrow;dy=0.6;dx=40;flipH=1;notch=0;fillColor=#000000;" parent="1" vertex="1">
          <mxGeometry x="40" y="1527" width="70" height="70" as="geometry" />
        </mxCell>
        <mxCell id="H2nf7LDv6Upw4ht9AUnb-83" value="" style="html=1;shadow=0;dashed=0;align=center;verticalAlign=middle;shape=mxgraph.arrows2.arrow;dy=0.6;dx=40;notch=0;fillColor=#000000;" parent="1" vertex="1">
          <mxGeometry x="40" y="1370" width="70" height="70" as="geometry" />
        </mxCell>
        <mxCell id="H2nf7LDv6Upw4ht9AUnb-84" value="" style="shape=lineEllipse;perimeter=ellipsePerimeter;whiteSpace=wrap;html=1;backgroundOutline=1;fillColor=#000000;" parent="1" vertex="1">
          <mxGeometry x="3690" y="164" width="70" height="70" as="geometry" />
        </mxCell>
        <mxCell id="H2nf7LDv6Upw4ht9AUnb-85" value="" style="html=1;shadow=0;dashed=0;align=center;verticalAlign=middle;shape=mxgraph.arrows2.arrow;dy=0.6;dx=40;direction=north;notch=0;fillColor=#000000;" parent="1" vertex="1">
          <mxGeometry x="3690" y="484" width="70" height="70" as="geometry" />
        </mxCell>
        <mxCell id="H2nf7LDv6Upw4ht9AUnb-86" value="" style="html=1;shadow=0;dashed=0;align=center;verticalAlign=middle;shape=mxgraph.arrows2.arrow;dy=0.6;dx=40;direction=south;notch=0;fillColor=#000000;" parent="1" vertex="1">
          <mxGeometry x="3690" y="324" width="70" height="70" as="geometry" />
        </mxCell>
        <mxCell id="H2nf7LDv6Upw4ht9AUnb-87" value="" style="html=1;shadow=0;dashed=0;align=center;verticalAlign=middle;shape=mxgraph.arrows2.arrow;dy=0.6;dx=40;flipH=1;notch=0;fillColor=#000000;" parent="1" vertex="1">
          <mxGeometry x="3690" y="404" width="70" height="70" as="geometry" />
        </mxCell>
        <mxCell id="H2nf7LDv6Upw4ht9AUnb-88" value="" style="html=1;shadow=0;dashed=0;align=center;verticalAlign=middle;shape=mxgraph.arrows2.arrow;dy=0.6;dx=40;notch=0;fillColor=#000000;" parent="1" vertex="1">
          <mxGeometry x="3690" y="244" width="70" height="70" as="geometry" />
        </mxCell>
        <mxCell id="H2nf7LDv6Upw4ht9AUnb-89" value="" style="html=1;shadow=0;dashed=0;align=center;verticalAlign=middle;shape=mxgraph.arrows2.arrow;dy=0.6;dx=40;direction=north;notch=0;fillColor=#000000;" parent="1" vertex="1">
          <mxGeometry x="3690" y="624" width="70" height="70" as="geometry" />
        </mxCell>
        <mxCell id="H2nf7LDv6Upw4ht9AUnb-90" value="" style="html=1;shadow=0;dashed=0;align=center;verticalAlign=middle;shape=mxgraph.arrows2.arrow;dy=0.6;dx=40;direction=south;notch=0;fillColor=#000000;" parent="1" vertex="1">
          <mxGeometry x="3690" y="704" width="70" height="70" as="geometry" />
        </mxCell>
        <mxCell id="o_PfMhwtz6pL9-q8mV8C-2" style="edgeStyle=orthogonalEdgeStyle;rounded=1;orthogonalLoop=1;jettySize=auto;html=1;exitX=0;exitY=0.5;exitDx=0;exitDy=0;fillColor=#e51400;strokeColor=#B20000;curved=0;strokeWidth=10;endArrow=none;endFill=0;" parent="1" source="o_PfMhwtz6pL9-q8mV8C-1" edge="1">
          <mxGeometry relative="1" as="geometry">
            <mxPoint x="2370" y="1070.3846153846152" as="targetPoint" />
          </mxGeometry>
        </mxCell>
        <mxCell id="o_PfMhwtz6pL9-q8mV8C-1" value="" style="rounded=0;whiteSpace=wrap;html=1;strokeWidth=4;" parent="1" vertex="1">
          <mxGeometry x="2880" y="1030" width="400" height="80" as="geometry" />
        </mxCell>
        <mxCell id="o_PfMhwtz6pL9-q8mV8C-3" value="" style="shape=lineEllipse;perimeter=ellipsePerimeter;whiteSpace=wrap;html=1;backgroundOutline=1;fillColor=#000000;" parent="1" vertex="1">
          <mxGeometry x="40" y="332" width="70" height="70" as="geometry" />
        </mxCell>
        <mxCell id="o_PfMhwtz6pL9-q8mV8C-4" value="" style="html=1;shadow=0;dashed=0;align=center;verticalAlign=middle;shape=mxgraph.arrows2.arrow;dy=0.6;dx=40;direction=north;notch=0;fillColor=#000000;" parent="1" vertex="1">
          <mxGeometry x="40" y="412" width="70" height="70" as="geometry" />
        </mxCell>
        <mxCell id="o_PfMhwtz6pL9-q8mV8C-5" value="" style="html=1;shadow=0;dashed=0;align=center;verticalAlign=middle;shape=mxgraph.arrows2.arrow;dy=0.6;dx=40;direction=south;notch=0;fillColor=#000000;" parent="1" vertex="1">
          <mxGeometry x="40" y="575" width="70" height="70" as="geometry" />
        </mxCell>
        <mxCell id="o_PfMhwtz6pL9-q8mV8C-6" value="" style="html=1;shadow=0;dashed=0;align=center;verticalAlign=middle;shape=mxgraph.arrows2.arrow;dy=0.6;dx=40;flipH=1;notch=0;fillColor=#000000;" parent="1" vertex="1">
          <mxGeometry x="40" y="652" width="70" height="70" as="geometry" />
        </mxCell>
        <mxCell id="o_PfMhwtz6pL9-q8mV8C-7" value="" style="html=1;shadow=0;dashed=0;align=center;verticalAlign=middle;shape=mxgraph.arrows2.arrow;dy=0.6;dx=40;notch=0;fillColor=#000000;" parent="1" vertex="1">
          <mxGeometry x="40" y="495" width="70" height="70" as="geometry" />
        </mxCell>
        <mxCell id="o_PfMhwtz6pL9-q8mV8C-8" value="" style="rounded=0;whiteSpace=wrap;html=1;strokeWidth=4;" parent="1" vertex="1">
          <mxGeometry x="120" y="647" width="400" height="80" as="geometry" />
        </mxCell>
        <mxCell id="o_PfMhwtz6pL9-q8mV8C-10" value="" style="rounded=0;whiteSpace=wrap;html=1;strokeWidth=4;" parent="1" vertex="1">
          <mxGeometry x="80" y="2040" width="400" height="80" as="geometry" />
        </mxCell>
        <mxCell id="o_PfMhwtz6pL9-q8mV8C-12" value="" style="rounded=0;whiteSpace=wrap;html=1;strokeWidth=4;" parent="1" vertex="1">
          <mxGeometry x="520" y="2040" width="400" height="80" as="geometry" />
        </mxCell>
        <mxCell id="o_PfMhwtz6pL9-q8mV8C-14" value="" style="html=1;shadow=0;dashed=0;align=center;verticalAlign=middle;shape=mxgraph.arrows2.twoWayArrow;dy=0.6;dx=35;fillColor=#000000;" parent="1" vertex="1">
          <mxGeometry x="230" y="1960" width="100" height="60" as="geometry" />
        </mxCell>
        <mxCell id="o_PfMhwtz6pL9-q8mV8C-15" value="" style="html=1;shadow=0;dashed=0;align=center;verticalAlign=middle;shape=mxgraph.arrows2.twoWayArrow;dy=0.6;dx=35;fillColor=#000000;direction=south;" parent="1" vertex="1">
          <mxGeometry x="690" y="1933" width="60" height="100" as="geometry" />
        </mxCell>
        <mxCell id="o_PfMhwtz6pL9-q8mV8C-16" value="" style="rounded=0;whiteSpace=wrap;html=1;strokeWidth=4;" parent="1" vertex="1">
          <mxGeometry x="970" y="2040" width="400" height="80" as="geometry" />
        </mxCell>
        <mxCell id="o_PfMhwtz6pL9-q8mV8C-17" value="" style="html=1;shadow=0;dashed=0;align=center;verticalAlign=middle;shape=mxgraph.arrows2.bendDoubleArrow;dy=15;dx=38;arrowHead=55;rounded=1;rotation=45;fillColor=#000000;" parent="1" vertex="1">
          <mxGeometry x="1110" y="1940" width="100" height="100" as="geometry" />
        </mxCell>
      </root>
    </mxGraphModel>
  </diagram>
</mxfile>
